<?xml version="1.0" encoding="UTF-8"?>
<!DOCTYPE svg PUBLIC "-//W3C//DTD SVG 1.1//EN" "http://www.w3.org/Graphics/SVG/1.1/DTD/svg11.dtd">
<svg xmlns="http://www.w3.org/2000/svg" version="1.1" width="512px" height="512px" style="shape-rendering:geometricPrecision; text-rendering:geometricPrecision; image-rendering:optimizeQuality; fill-rule:evenodd; clip-rule:evenodd" xmlns:xlink="http://www.w3.org/1999/xlink">
<g><path style="opacity:0.958" fill="#7a96ae" d="M 207.5,401.5 C 206.506,391.013 206.172,380.346 206.5,369.5C 206.5,358.5 206.5,347.5 206.5,336.5C 217.167,336.5 227.833,336.5 238.5,336.5C 238.5,325.5 238.5,314.5 238.5,303.5C 249.5,303.5 260.5,303.5 271.5,303.5C 271.5,292.833 271.5,282.167 271.5,271.5C 282.167,271.5 292.833,271.5 303.5,271.5C 303.5,260.5 303.5,249.5 303.5,238.5C 314.5,238.5 325.5,238.5 336.5,238.5C 336.5,227.833 336.5,217.167 336.5,206.5C 347.5,206.5 358.5,206.5 369.5,206.5C 369.5,195.833 369.5,185.167 369.5,174.5C 358.5,174.5 347.5,174.5 336.5,174.5C 336.5,163.5 336.5,152.5 336.5,141.5C 325.833,141.5 315.167,141.5 304.5,141.5C 304.5,152.5 304.5,163.5 304.5,174.5C 293.833,174.5 283.167,174.5 272.5,174.5C 272.5,185.5 272.5,196.5 272.5,207.5C 261.5,207.5 250.5,207.5 239.5,207.5C 239.5,218.167 239.5,228.833 239.5,239.5C 228.833,239.5 218.167,239.5 207.5,239.5C 207.5,250.5 207.5,261.5 207.5,272.5C 196.5,272.5 185.5,272.5 174.5,272.5C 174.5,283.167 174.5,293.833 174.5,304.5C 163.5,304.5 152.5,304.5 141.5,304.5C 141.5,293.5 141.5,282.5 141.5,271.5C 152.167,271.5 162.833,271.5 173.5,271.5C 173.5,260.5 173.5,249.5 173.5,238.5C 184.5,238.5 195.5,238.5 206.5,238.5C 206.5,227.833 206.5,217.167 206.5,206.5C 217.167,206.5 227.833,206.5 238.5,206.5C 238.5,195.5 238.5,184.5 238.5,173.5C 249.5,173.5 260.5,173.5 271.5,173.5C 271.5,162.5 271.5,151.5 271.5,140.5C 282.167,140.5 292.833,140.5 303.5,140.5C 303.5,129.833 303.5,119.167 303.5,108.5C 314.5,108.5 325.5,108.5 336.5,108.5C 336.5,97.5 336.5,86.5 336.5,75.5C 358.5,75.5 380.5,75.5 402.5,75.5C 402.5,86.5 402.5,97.5 402.5,108.5C 413.5,108.5 424.5,108.5 435.5,108.5C 435.5,130.5 435.5,152.5 435.5,174.5C 424.5,174.5 413.5,174.5 402.5,174.5C 402.5,185.5 402.5,196.5 402.5,207.5C 391.833,207.5 381.167,207.5 370.5,207.5C 370.5,218.167 370.5,228.833 370.5,239.5C 359.5,239.5 348.5,239.5 337.5,239.5C 337.5,250.5 337.5,261.5 337.5,272.5C 326.5,272.5 315.5,272.5 304.5,272.5C 304.5,283.167 304.5,293.833 304.5,304.5C 293.833,304.5 283.167,304.5 272.5,304.5C 272.5,315.5 272.5,326.5 272.5,337.5C 261.5,337.5 250.5,337.5 239.5,337.5C 239.5,348.5 239.5,359.5 239.5,370.5C 228.833,370.5 218.167,370.5 207.5,370.5C 207.5,380.833 207.5,391.167 207.5,401.5 Z M 337.5,109.5 C 358.833,109.5 380.167,109.5 401.5,109.5C 401.5,130.833 401.5,152.167 401.5,173.5C 391.167,173.5 380.833,173.5 370.5,173.5C 370.5,162.5 370.5,151.5 370.5,140.5C 359.5,140.5 348.5,140.5 337.5,140.5C 337.5,130.167 337.5,119.833 337.5,109.5 Z"/></g>
<g><path style="opacity:0.974" fill="#7996ae" d="M 141.5,271.5 C 141.5,282.5 141.5,293.5 141.5,304.5C 141.5,315.167 141.5,325.833 141.5,336.5C 152.5,336.5 163.5,336.5 174.5,336.5C 174.5,347.5 174.5,358.5 174.5,369.5C 185.167,369.5 195.833,369.5 206.5,369.5C 206.172,380.346 206.506,391.013 207.5,401.5C 196.679,402.495 185.679,402.828 174.5,402.5C 174.5,413.5 174.5,424.5 174.5,435.5C 141.5,435.5 108.5,435.5 75.5,435.5C 75.5,402.5 75.5,369.5 75.5,336.5C 86.5,336.5 97.5,336.5 108.5,336.5C 108.5,325.5 108.5,314.5 108.5,303.5C 119.167,303.5 129.833,303.5 140.5,303.5C 140.172,292.654 140.506,281.987 141.5,271.5 Z M 109.5,337.5 C 119.833,337.5 130.167,337.5 140.5,337.5C 140.5,348.5 140.5,359.5 140.5,370.5C 151.5,370.5 162.5,370.5 173.5,370.5C 173.5,380.833 173.5,391.167 173.5,401.5C 152.167,401.5 130.833,401.5 109.5,401.5C 109.5,380.167 109.5,358.833 109.5,337.5 Z"/></g>
<g><path style="opacity:0.976" fill="#7a96ad" d="M 238.5,401.5 C 304.167,401.5 369.833,401.5 435.5,401.5C 435.5,412.833 435.5,424.167 435.5,435.5C 369.833,435.5 304.167,435.5 238.5,435.5C 238.5,424.167 238.5,412.833 238.5,401.5 Z"/></g>
</svg>
