<?xml version="1.0" encoding="UTF-8"?>
<svg version="1.1" xmlns="http://www.w3.org/2000/svg" width="640" height="640">
<path d="M0 0 C79.2 0 158.4 0 240 0 C240 3.3 240 6.6 240 10 C243.3 10 246.6 10 250 10 C250 49.6 250 89.2 250 130 C246.7 130 243.4 130 240 130 C240 136.6 240 143.2 240 150 C236.7 150 233.4 150 230 150 C230 153.3 230 156.6 230 160 C220.1 160 210.2 160 200 160 C200 166.6 200 173.2 200 180 C203.3 180 206.6 180 210 180 C210 183.3 210 186.6 210 190 C193.5 190 177 190 160 190 C160 186.7 160 183.4 160 180 C163.3 180 166.6 180 170 180 C170 173.4 170 166.8 170 160 C137 160 104 160 70 160 C70 166.6 70 173.2 70 180 C73.3 180 76.6 180 80 180 C80 183.3 80 186.6 80 190 C63.5 190 47 190 30 190 C30 186.7 30 183.4 30 180 C33.3 180 36.6 180 40 180 C40 173.4 40 166.8 40 160 C30.1 160 20.2 160 10 160 C10 156.7 10 153.4 10 150 C6.7 150 3.4 150 0 150 C0 143.4 0 136.8 0 130 C-3.3 130 -6.6 130 -10 130 C-10 90.4 -10 50.8 -10 10 C-6.7 10 -3.4 10 0 10 C0 6.7 0 3.4 0 0 Z " fill="#FFE6C6" transform="translate(200,450)"/>
<path d="M0 0 C79.2 0 158.4 0 240 0 C240 3.3 240 6.6 240 10 C243.3 10 246.6 10 250 10 C250 29.8 250 49.6 250 70 C246.7 70 243.4 70 240 70 C240 66.7 240 63.4 240 60 C236.7 60 233.4 60 230 60 C230 63.3 230 66.6 230 70 C226.7 70 223.4 70 220 70 C220 66.7 220 63.4 220 60 C216.7 60 213.4 60 210 60 C210 63.3 210 66.6 210 70 C206.7 70 203.4 70 200 70 C200 66.7 200 63.4 200 60 C196.7 60 193.4 60 190 60 C190 63.3 190 66.6 190 70 C186.7 70 183.4 70 180 70 C180 66.7 180 63.4 180 60 C176.7 60 173.4 60 170 60 C170 63.3 170 66.6 170 70 C166.7 70 163.4 70 160 70 C160 66.7 160 63.4 160 60 C156.7 60 153.4 60 150 60 C150 63.3 150 66.6 150 70 C146.7 70 143.4 70 140 70 C140 66.7 140 63.4 140 60 C136.7 60 133.4 60 130 60 C130 63.3 130 66.6 130 70 C126.7 70 123.4 70 120 70 C120 66.7 120 63.4 120 60 C116.7 60 113.4 60 110 60 C110 63.3 110 66.6 110 70 C106.7 70 103.4 70 100 70 C100 66.7 100 63.4 100 60 C96.7 60 93.4 60 90 60 C90 63.3 90 66.6 90 70 C86.7 70 83.4 70 80 70 C80 66.7 80 63.4 80 60 C76.7 60 73.4 60 70 60 C70 63.3 70 66.6 70 70 C66.7 70 63.4 70 60 70 C60 66.7 60 63.4 60 60 C56.7 60 53.4 60 50 60 C50 63.3 50 66.6 50 70 C46.7 70 43.4 70 40 70 C40 66.7 40 63.4 40 60 C36.7 60 33.4 60 30 60 C30 63.3 30 66.6 30 70 C26.7 70 23.4 70 20 70 C20 66.7 20 63.4 20 60 C16.7 60 13.4 60 10 60 C10 63.3 10 66.6 10 70 C6.7 70 3.4 70 0 70 C0 66.7 0 63.4 0 60 C-3.3 60 -6.6 60 -10 60 C-10 43.5 -10 27 -10 10 C-6.7 10 -3.4 10 0 10 C0 6.7 0 3.4 0 0 Z " fill="#FFE6C6" transform="translate(200,450)"/>
<path d="M0 0 C79.2 0 158.4 0 240 0 C240 3.3 240 6.6 240 10 C243.3 10 246.6 10 250 10 C250 13.3 250 16.6 250 20 C243.4 20 236.8 20 230 20 C230 23.3 230 26.6 230 30 C157.4 30 84.8 30 10 30 C10 26.7 10 23.4 10 20 C3.4 20 -3.2 20 -10 20 C-10 16.7 -10 13.4 -10 10 C-6.7 10 -3.4 10 0 10 C0 6.7 0 3.4 0 0 Z " fill="#F98284" transform="translate(200,450)"/>
<path d="M0 0 C9.9 0 19.8 0 30 0 C30 6.6 30 13.2 30 20 C33.3 20 36.6 20 40 20 C40 23.3 40 26.6 40 30 C23.5 30 7 30 -10 30 C-10 26.7 -10 23.4 -10 20 C-6.7 20 -3.4 20 0 20 C0 13.4 0 6.8 0 0 Z " fill="#F98284" transform="translate(370,610)"/>
<path d="M0 0 C9.9 0 19.8 0 30 0 C30 6.6 30 13.2 30 20 C33.3 20 36.6 20 40 20 C40 23.3 40 26.6 40 30 C23.5 30 7 30 -10 30 C-10 26.7 -10 23.4 -10 20 C-6.7 20 -3.4 20 0 20 C0 13.4 0 6.8 0 0 Z " fill="#F98284" transform="translate(240,610)"/>
<path d="M0 0 C3.3 0 6.6 0 10 0 C10 3.3 10 6.6 10 10 C6.7 10 3.4 10 0 10 C0 6.7 0 3.4 0 0 Z " fill="#FFF7A0" transform="translate(440,510)"/>
<path d="M0 0 C3.3 0 6.6 0 10 0 C10 3.3 10 6.6 10 10 C6.7 10 3.4 10 0 10 C0 6.7 0 3.4 0 0 Z " fill="#FFF7A0" transform="translate(420,510)"/>
<path d="M0 0 C3.3 0 6.6 0 10 0 C10 3.3 10 6.6 10 10 C6.7 10 3.4 10 0 10 C0 6.7 0 3.4 0 0 Z " fill="#FFF7A0" transform="translate(400,510)"/>
<path d="M0 0 C3.3 0 6.6 0 10 0 C10 3.3 10 6.6 10 10 C6.7 10 3.4 10 0 10 C0 6.7 0 3.4 0 0 Z " fill="#FFF7A0" transform="translate(380,510)"/>
<path d="M0 0 C3.3 0 6.6 0 10 0 C10 3.3 10 6.6 10 10 C6.7 10 3.4 10 0 10 C0 6.7 0 3.4 0 0 Z " fill="#FFF7A0" transform="translate(360,510)"/>
<path d="M0 0 C3.3 0 6.6 0 10 0 C10 3.3 10 6.6 10 10 C6.7 10 3.4 10 0 10 C0 6.7 0 3.4 0 0 Z " fill="#FFF7A0" transform="translate(340,510)"/>
<path d="M0 0 C3.3 0 6.6 0 10 0 C10 3.3 10 6.6 10 10 C6.7 10 3.4 10 0 10 C0 6.7 0 3.4 0 0 Z " fill="#FFF7A0" transform="translate(320,510)"/>
<path d="M0 0 C3.3 0 6.6 0 10 0 C10 3.3 10 6.6 10 10 C6.7 10 3.4 10 0 10 C0 6.7 0 3.4 0 0 Z " fill="#FFF7A0" transform="translate(300,510)"/>
<path d="M0 0 C3.3 0 6.6 0 10 0 C10 3.3 10 6.6 10 10 C6.7 10 3.4 10 0 10 C0 6.7 0 3.4 0 0 Z " fill="#FFF7A0" transform="translate(280,510)"/>
<path d="M0 0 C3.3 0 6.6 0 10 0 C10 3.3 10 6.6 10 10 C6.7 10 3.4 10 0 10 C0 6.7 0 3.4 0 0 Z " fill="#FFF7A0" transform="translate(260,510)"/>
<path d="M0 0 C3.3 0 6.6 0 10 0 C10 3.3 10 6.6 10 10 C6.7 10 3.4 10 0 10 C0 6.7 0 3.4 0 0 Z " fill="#FFF7A0" transform="translate(240,510)"/>
<path d="M0 0 C3.3 0 6.6 0 10 0 C10 3.3 10 6.6 10 10 C6.7 10 3.4 10 0 10 C0 6.7 0 3.4 0 0 Z " fill="#FFF7A0" transform="translate(220,510)"/>
<path d="M0 0 C3.3 0 6.6 0 10 0 C10 3.3 10 6.6 10 10 C6.7 10 3.4 10 0 10 C0 6.7 0 3.4 0 0 Z " fill="#FFF7A0" transform="translate(200,510)"/>
<path d="M0 0 C3.3 0 6.6 0 10 0 C10 3.3 10 6.6 10 10 C6.7 10 3.4 10 0 10 C0 6.7 0 3.4 0 0 Z " fill="#FFE6C6" transform="translate(440,500)"/>
<path d="M0 0 C3.3 0 6.6 0 10 0 C10 3.3 10 6.6 10 10 C6.7 10 3.4 10 0 10 C0 6.7 0 3.4 0 0 Z " fill="#FFF7A0" transform="translate(430,500)"/>
<path d="M0 0 C3.3 0 6.6 0 10 0 C10 3.3 10 6.6 10 10 C6.7 10 3.4 10 0 10 C0 6.7 0 3.4 0 0 Z " fill="#FFE6C6" transform="translate(420,500)"/>
<path d="M0 0 C3.3 0 6.6 0 10 0 C10 3.3 10 6.6 10 10 C6.7 10 3.4 10 0 10 C0 6.7 0 3.4 0 0 Z " fill="#FFF7A0" transform="translate(410,500)"/>
<path d="M0 0 C3.3 0 6.6 0 10 0 C10 3.3 10 6.6 10 10 C6.7 10 3.4 10 0 10 C0 6.7 0 3.4 0 0 Z " fill="#FFE6C6" transform="translate(400,500)"/>
<path d="M0 0 C3.3 0 6.6 0 10 0 C10 3.3 10 6.6 10 10 C6.7 10 3.4 10 0 10 C0 6.7 0 3.4 0 0 Z " fill="#FFF7A0" transform="translate(390,500)"/>
<path d="M0 0 C3.3 0 6.6 0 10 0 C10 3.3 10 6.6 10 10 C6.7 10 3.4 10 0 10 C0 6.7 0 3.4 0 0 Z " fill="#FFE6C6" transform="translate(380,500)"/>
<path d="M0 0 C3.3 0 6.6 0 10 0 C10 3.3 10 6.6 10 10 C6.7 10 3.4 10 0 10 C0 6.7 0 3.4 0 0 Z " fill="#FFF7A0" transform="translate(370,500)"/>
<path d="M0 0 C3.3 0 6.6 0 10 0 C10 3.3 10 6.6 10 10 C6.7 10 3.4 10 0 10 C0 6.7 0 3.4 0 0 Z " fill="#FFE6C6" transform="translate(360,500)"/>
<path d="M0 0 C3.3 0 6.6 0 10 0 C10 3.3 10 6.6 10 10 C6.7 10 3.4 10 0 10 C0 6.7 0 3.4 0 0 Z " fill="#FFF7A0" transform="translate(350,500)"/>
<path d="M0 0 C3.3 0 6.6 0 10 0 C10 3.3 10 6.6 10 10 C6.7 10 3.4 10 0 10 C0 6.7 0 3.4 0 0 Z " fill="#FFE6C6" transform="translate(340,500)"/>
<path d="M0 0 C3.3 0 6.6 0 10 0 C10 3.3 10 6.6 10 10 C6.7 10 3.4 10 0 10 C0 6.7 0 3.4 0 0 Z " fill="#FFF7A0" transform="translate(330,500)"/>
<path d="M0 0 C3.3 0 6.6 0 10 0 C10 3.3 10 6.6 10 10 C6.7 10 3.4 10 0 10 C0 6.7 0 3.4 0 0 Z " fill="#FFF7A0" transform="translate(310,500)"/>
<path d="M0 0 C3.3 0 6.6 0 10 0 C10 3.3 10 6.6 10 10 C6.7 10 3.4 10 0 10 C0 6.7 0 3.4 0 0 Z " fill="#FFF7A0" transform="translate(290,500)"/>
<path d="M0 0 C3.3 0 6.6 0 10 0 C10 3.3 10 6.6 10 10 C6.7 10 3.4 10 0 10 C0 6.7 0 3.4 0 0 Z " fill="#FFF7A0" transform="translate(270,500)"/>
<path d="M0 0 C3.3 0 6.6 0 10 0 C10 3.3 10 6.6 10 10 C6.7 10 3.4 10 0 10 C0 6.7 0 3.4 0 0 Z " fill="#FFF7A0" transform="translate(250,500)"/>
<path d="M0 0 C3.3 0 6.6 0 10 0 C10 3.3 10 6.6 10 10 C6.7 10 3.4 10 0 10 C0 6.7 0 3.4 0 0 Z " fill="#FFF7A0" transform="translate(230,500)"/>
<path d="M0 0 C3.3 0 6.6 0 10 0 C10 3.3 10 6.6 10 10 C6.7 10 3.4 10 0 10 C0 6.7 0 3.4 0 0 Z " fill="#FFF7A0" transform="translate(210,500)"/>
<path d="M0 0 C3.3 0 6.6 0 10 0 C10 3.3 10 6.6 10 10 C6.7 10 3.4 10 0 10 C0 6.7 0 3.4 0 0 Z " fill="#FFF7A0" transform="translate(190,500)"/>
<path d="M0 0 C3.3 0 6.6 0 10 0 C10 3.3 10 6.6 10 10 C6.7 10 3.4 10 0 10 C0 6.7 0 3.4 0 0 Z " fill="#FFF7A0" transform="translate(440,490)"/>
<path d="M0 0 C3.3 0 6.6 0 10 0 C10 3.3 10 6.6 10 10 C6.7 10 3.4 10 0 10 C0 6.7 0 3.4 0 0 Z " fill="#FFF7A0" transform="translate(420,490)"/>
<path d="M0 0 C3.3 0 6.6 0 10 0 C10 3.3 10 6.6 10 10 C6.7 10 3.4 10 0 10 C0 6.7 0 3.4 0 0 Z " fill="#FFF7A0" transform="translate(400,490)"/>
<path d="M0 0 C3.3 0 6.6 0 10 0 C10 3.3 10 6.6 10 10 C6.7 10 3.4 10 0 10 C0 6.7 0 3.4 0 0 Z " fill="#FFF7A0" transform="translate(380,490)"/>
<path d="M0 0 C3.3 0 6.6 0 10 0 C10 3.3 10 6.6 10 10 C6.7 10 3.4 10 0 10 C0 6.7 0 3.4 0 0 Z " fill="#FFF7A0" transform="translate(360,490)"/>
<path d="M0 0 C3.3 0 6.6 0 10 0 C10 3.3 10 6.6 10 10 C6.7 10 3.4 10 0 10 C0 6.7 0 3.4 0 0 Z " fill="#FFF7A0" transform="translate(340,490)"/>
<path d="M0 0 C3.3 0 6.6 0 10 0 C10 3.3 10 6.6 10 10 C6.7 10 3.4 10 0 10 C0 6.7 0 3.4 0 0 Z " fill="#FFF7A0" transform="translate(320,490)"/>
<path d="M0 0 C3.3 0 6.6 0 10 0 C10 3.3 10 6.6 10 10 C6.7 10 3.4 10 0 10 C0 6.7 0 3.4 0 0 Z " fill="#FFF7A0" transform="translate(300,490)"/>
<path d="M0 0 C3.3 0 6.6 0 10 0 C10 3.3 10 6.6 10 10 C6.7 10 3.4 10 0 10 C0 6.7 0 3.4 0 0 Z " fill="#FFF7A0" transform="translate(280,490)"/>
<path d="M0 0 C3.3 0 6.6 0 10 0 C10 3.3 10 6.6 10 10 C6.7 10 3.4 10 0 10 C0 6.7 0 3.4 0 0 Z " fill="#FFF7A0" transform="translate(260,490)"/>
<path d="M0 0 C3.3 0 6.6 0 10 0 C10 3.3 10 6.6 10 10 C6.7 10 3.4 10 0 10 C0 6.7 0 3.4 0 0 Z " fill="#FFF7A0" transform="translate(240,490)"/>
<path d="M0 0 C3.3 0 6.6 0 10 0 C10 3.3 10 6.6 10 10 C6.7 10 3.4 10 0 10 C0 6.7 0 3.4 0 0 Z " fill="#FFF7A0" transform="translate(220,490)"/>
<path d="M0 0 C3.3 0 6.6 0 10 0 C10 3.3 10 6.6 10 10 C6.7 10 3.4 10 0 10 C0 6.7 0 3.4 0 0 Z " fill="#FFF7A0" transform="translate(200,490)"/>
</svg>
