<?xml version="1.0" encoding="UTF-8"?>
<svg version="1.1" xmlns="http://www.w3.org/2000/svg" width="640" height="640">
<path d="M0 0 C6.6 0 13.2 0 20 0 C20 6.6 20 13.2 20 20 C23.3 20 26.6 20 30 20 C30 23.3 30 26.6 30 30 C33.3 30 36.6 30 40 30 C40 39.9 40 49.8 40 60 C43.3 60 46.6 60 50 60 C50 73.2 50 86.4 50 100 C53.3 100 56.6 100 60 100 C60 106.6 60 113.2 60 120 C63.3 120 66.6 120 70 120 C70 113.4 70 106.8 70 100 C73.3 100 76.6 100 80 100 C80 86.8 80 73.6 80 60 C83.3 60 86.6 60 90 60 C90 50.1 90 40.2 90 30 C93.3 30 96.6 30 100 30 C100 26.7 100 23.4 100 20 C103.3 20 106.6 20 110 20 C110 23.3 110 26.6 110 30 C113.3 30 116.6 30 120 30 C120 36.6 120 43.2 120 50 C123.3 50 126.6 50 130 50 C130 56.6 130 63.2 130 70 C133.3 70 136.6 70 140 70 C140 76.6 140 83.2 140 90 C143.3 90 146.6 90 150 90 C150 99.9 150 109.8 150 120 C153.3 120 156.6 120 160 120 C160 116.7 160 113.4 160 110 C163.3 110 166.6 110 170 110 C170 106.7 170 103.4 170 100 C173.3 100 176.6 100 180 100 C180 86.8 180 73.6 180 60 C183.3 60 186.6 60 190 60 C190 53.4 190 46.8 190 40 C193.3 40 196.6 40 200 40 C200 33.4 200 26.8 200 20 C206.6 20 213.2 20 220 20 C220 26.6 220 33.2 220 40 C223.3 40 226.6 40 230 40 C230 49.9 230 59.8 230 70 C233.3 70 236.6 70 240 70 C240 103 240 136 240 170 C236.7 170 233.4 170 230 170 C230 179.9 230 189.8 230 200 C226.7 200 223.4 200 220 200 C220 206.6 220 213.2 220 220 C216.7 220 213.4 220 210 220 C210 226.6 210 233.2 210 240 C206.7 240 203.4 240 200 240 C200 246.6 200 253.2 200 260 C196.7 260 193.4 260 190 260 C190 263.3 190 266.6 190 270 C203.2 270 216.4 270 230 270 C230 273.3 230 276.6 230 280 C233.3 280 236.6 280 240 280 C240 319.6 240 359.2 240 400 C236.7 400 233.4 400 230 400 C230 406.6 230 413.2 230 420 C226.7 420 223.4 420 220 420 C220 423.3 220 426.6 220 430 C210.1 430 200.2 430 190 430 C190 436.6 190 443.2 190 450 C193.3 450 196.6 450 200 450 C200 453.3 200 456.6 200 460 C183.5 460 167 460 150 460 C150 456.7 150 453.4 150 450 C153.3 450 156.6 450 160 450 C160 443.4 160 436.8 160 430 C127 430 94 430 60 430 C60 436.6 60 443.2 60 450 C63.3 450 66.6 450 70 450 C70 453.3 70 456.6 70 460 C53.5 460 37 460 20 460 C20 456.7 20 453.4 20 450 C23.3 450 26.6 450 30 450 C30 443.4 30 436.8 30 430 C20.1 430 10.2 430 0 430 C0 426.7 0 423.4 0 420 C-3.3 420 -6.6 420 -10 420 C-10 413.4 -10 406.8 -10 400 C-13.3 400 -16.6 400 -20 400 C-20 360.4 -20 320.8 -20 280 C-16.7 280 -13.4 280 -10 280 C-10 276.7 -10 273.4 -10 270 C3.2 270 16.4 270 30 270 C30 266.7 30 263.4 30 260 C26.7 260 23.4 260 20 260 C20 250.1 20 240.2 20 230 C16.7 230 13.4 230 10 230 C10 223.4 10 216.8 10 210 C6.7 210 3.4 210 0 210 C0 203.4 0 196.8 0 190 C-3.3 190 -6.6 190 -10 190 C-10 183.4 -10 176.8 -10 170 C-13.3 170 -16.6 170 -20 170 C-20 140.3 -20 110.6 -20 80 C-16.7 80 -13.4 80 -10 80 C-10 63.5 -10 47 -10 30 C-6.7 30 -3.4 30 0 30 C0 20.1 0 10.2 0 0 Z " fill="#FFE6C6" transform="translate(210,180)"/>
<path d="M0 0 C6.6 0 13.2 0 20 0 C20 6.6 20 13.2 20 20 C23.3 20 26.6 20 30 20 C30 23.3 30 26.6 30 30 C33.3 30 36.6 30 40 30 C40 39.9 40 49.8 40 60 C43.3 60 46.6 60 50 60 C50 73.2 50 86.4 50 100 C53.3 100 56.6 100 60 100 C60 106.6 60 113.2 60 120 C63.3 120 66.6 120 70 120 C70 113.4 70 106.8 70 100 C73.3 100 76.6 100 80 100 C80 86.8 80 73.6 80 60 C83.3 60 86.6 60 90 60 C90 50.1 90 40.2 90 30 C93.3 30 96.6 30 100 30 C100 26.7 100 23.4 100 20 C103.3 20 106.6 20 110 20 C110 23.3 110 26.6 110 30 C113.3 30 116.6 30 120 30 C120 36.6 120 43.2 120 50 C123.3 50 126.6 50 130 50 C130 56.6 130 63.2 130 70 C133.3 70 136.6 70 140 70 C140 76.6 140 83.2 140 90 C143.3 90 146.6 90 150 90 C150 99.9 150 109.8 150 120 C153.3 120 156.6 120 160 120 C160 116.7 160 113.4 160 110 C163.3 110 166.6 110 170 110 C170 106.7 170 103.4 170 100 C173.3 100 176.6 100 180 100 C180 86.8 180 73.6 180 60 C183.3 60 186.6 60 190 60 C190 53.4 190 46.8 190 40 C193.3 40 196.6 40 200 40 C200 33.4 200 26.8 200 20 C206.6 20 213.2 20 220 20 C220 26.6 220 33.2 220 40 C223.3 40 226.6 40 230 40 C230 49.9 230 59.8 230 70 C233.3 70 236.6 70 240 70 C240 103 240 136 240 170 C236.7 170 233.4 170 230 170 C230 179.9 230 189.8 230 200 C226.7 200 223.4 200 220 200 C220 206.6 220 213.2 220 220 C216.7 220 213.4 220 210 220 C210 226.6 210 233.2 210 240 C206.7 240 203.4 240 200 240 C200 246.6 200 253.2 200 260 C196.7 260 193.4 260 190 260 C190 263.3 190 266.6 190 270 C203.2 270 216.4 270 230 270 C230 273.3 230 276.6 230 280 C233.3 280 236.6 280 240 280 C240 283.3 240 286.6 240 290 C233.4 290 226.8 290 220 290 C220 293.3 220 296.6 220 300 C200.2 300 180.4 300 160 300 C160 293.4 160 286.8 160 280 C163.3 280 166.6 280 170 280 C170 273.4 170 266.8 170 260 C173.3 260 176.6 260 180 260 C180 250.1 180 240.2 180 230 C183.3 230 186.6 230 190 230 C190 223.4 190 216.8 190 210 C193.3 210 196.6 210 200 210 C200 196.8 200 183.6 200 170 C196.7 170 193.4 170 190 170 C190 156.8 190 143.6 190 130 C186.7 130 183.4 130 180 130 C180 133.3 180 136.6 180 140 C176.7 140 173.4 140 170 140 C170 146.6 170 153.2 170 160 C166.7 160 163.4 160 160 160 C160 166.6 160 173.2 160 180 C156.7 180 153.4 180 150 180 C150 183.3 150 186.6 150 190 C146.7 190 143.4 190 140 190 C140 196.6 140 203.2 140 210 C136.7 210 133.4 210 130 210 C130 216.6 130 223.2 130 230 C126.7 230 123.4 230 120 230 C120 233.3 120 236.6 120 240 C116.7 240 113.4 240 110 240 C110 233.4 110 226.8 110 220 C106.7 220 103.4 220 100 220 C100 213.4 100 206.8 100 200 C96.7 200 93.4 200 90 200 C90 196.7 90 193.4 90 190 C86.7 190 83.4 190 80 190 C80 183.4 80 176.8 80 170 C73.4 170 66.8 170 60 170 C60 166.7 60 163.4 60 160 C56.7 160 53.4 160 50 160 C50 156.7 50 153.4 50 150 C46.7 150 43.4 150 40 150 C40 159.9 40 169.8 40 180 C36.7 180 33.4 180 30 180 C30 193.2 30 206.4 30 220 C33.3 220 36.6 220 40 220 C40 226.6 40 233.2 40 240 C43.3 240 46.6 240 50 240 C50 246.6 50 253.2 50 260 C53.3 260 56.6 260 60 260 C60 266.6 60 273.2 60 280 C63.3 280 66.6 280 70 280 C70 283.3 70 286.6 70 290 C73.3 290 76.6 290 80 290 C80 293.3 80 296.6 80 300 C53.6 300 27.2 300 0 300 C0 296.7 0 293.4 0 290 C-6.6 290 -13.2 290 -20 290 C-20 286.7 -20 283.4 -20 280 C-16.7 280 -13.4 280 -10 280 C-10 276.7 -10 273.4 -10 270 C3.2 270 16.4 270 30 270 C30 266.7 30 263.4 30 260 C26.7 260 23.4 260 20 260 C20 250.1 20 240.2 20 230 C16.7 230 13.4 230 10 230 C10 223.4 10 216.8 10 210 C6.7 210 3.4 210 0 210 C0 203.4 0 196.8 0 190 C-3.3 190 -6.6 190 -10 190 C-10 183.4 -10 176.8 -10 170 C-13.3 170 -16.6 170 -20 170 C-20 140.3 -20 110.6 -20 80 C-16.7 80 -13.4 80 -10 80 C-10 63.5 -10 47 -10 30 C-6.7 30 -3.4 30 0 30 C0 20.1 0 10.2 0 0 Z " fill="#B0EB93" transform="translate(210,180)"/>
<path d="M0 0 C3.3 0 6.6 0 10 0 C10 13.2 10 26.4 10 40 C13.3 40 16.6 40 20 40 C20 53.2 20 66.4 20 80 C16.7 80 13.4 80 10 80 C10 86.6 10 93.2 10 100 C6.7 100 3.4 100 0 100 C0 109.9 0 119.8 0 130 C-3.3 130 -6.6 130 -10 130 C-10 136.6 -10 143.2 -10 150 C-13.3 150 -16.6 150 -20 150 C-20 156.6 -20 163.2 -20 170 C-46.4 170 -72.8 170 -100 170 C-100 166.7 -100 163.4 -100 160 C-103.3 160 -106.6 160 -110 160 C-110 156.7 -110 153.4 -110 150 C-113.3 150 -116.6 150 -120 150 C-120 143.4 -120 136.8 -120 130 C-123.3 130 -126.6 130 -130 130 C-130 123.4 -130 116.8 -130 110 C-133.3 110 -136.6 110 -140 110 C-140 103.4 -140 96.8 -140 90 C-143.3 90 -146.6 90 -150 90 C-150 76.8 -150 63.6 -150 50 C-146.7 50 -143.4 50 -140 50 C-140 40.1 -140 30.2 -140 20 C-136.7 20 -133.4 20 -130 20 C-130 23.3 -130 26.6 -130 30 C-126.7 30 -123.4 30 -120 30 C-120 33.3 -120 36.6 -120 40 C-113.4 40 -106.8 40 -100 40 C-100 46.6 -100 53.2 -100 60 C-96.7 60 -93.4 60 -90 60 C-90 63.3 -90 66.6 -90 70 C-86.7 70 -83.4 70 -80 70 C-80 76.6 -80 83.2 -80 90 C-76.7 90 -73.4 90 -70 90 C-70 96.6 -70 103.2 -70 110 C-66.7 110 -63.4 110 -60 110 C-60 106.7 -60 103.4 -60 100 C-56.7 100 -53.4 100 -50 100 C-50 93.4 -50 86.8 -50 80 C-46.7 80 -43.4 80 -40 80 C-40 73.4 -40 66.8 -40 60 C-36.7 60 -33.4 60 -30 60 C-30 56.7 -30 53.4 -30 50 C-26.7 50 -23.4 50 -20 50 C-20 43.4 -20 36.8 -20 30 C-16.7 30 -13.4 30 -10 30 C-10 23.4 -10 16.8 -10 10 C-6.7 10 -3.4 10 0 10 C0 6.7 0 3.4 0 0 Z " fill="#E9F59D" transform="translate(390,310)"/>
<path d="M0 0 C6.6 0 13.2 0 20 0 C20 6.6 20 13.2 20 20 C23.3 20 26.6 20 30 20 C30 23.3 30 26.6 30 30 C33.3 30 36.6 30 40 30 C40 39.9 40 49.8 40 60 C43.3 60 46.6 60 50 60 C50 73.2 50 86.4 50 100 C53.3 100 56.6 100 60 100 C60 119.8 60 139.6 60 160 C56.7 160 53.4 160 50 160 C50 156.7 50 153.4 50 150 C46.7 150 43.4 150 40 150 C40 159.9 40 169.8 40 180 C36.7 180 33.4 180 30 180 C30 193.2 30 206.4 30 220 C33.3 220 36.6 220 40 220 C40 226.6 40 233.2 40 240 C43.3 240 46.6 240 50 240 C50 246.6 50 253.2 50 260 C53.3 260 56.6 260 60 260 C60 266.6 60 273.2 60 280 C63.3 280 66.6 280 70 280 C70 283.3 70 286.6 70 290 C73.3 290 76.6 290 80 290 C80 293.3 80 296.6 80 300 C53.6 300 27.2 300 0 300 C0 296.7 0 293.4 0 290 C-6.6 290 -13.2 290 -20 290 C-20 286.7 -20 283.4 -20 280 C-16.7 280 -13.4 280 -10 280 C-10 276.7 -10 273.4 -10 270 C3.2 270 16.4 270 30 270 C30 266.7 30 263.4 30 260 C26.7 260 23.4 260 20 260 C20 250.1 20 240.2 20 230 C16.7 230 13.4 230 10 230 C10 223.4 10 216.8 10 210 C6.7 210 3.4 210 0 210 C0 203.4 0 196.8 0 190 C-3.3 190 -6.6 190 -10 190 C-10 183.4 -10 176.8 -10 170 C-13.3 170 -16.6 170 -20 170 C-20 140.3 -20 110.6 -20 80 C-16.7 80 -13.4 80 -10 80 C-10 63.5 -10 47 -10 30 C-6.7 30 -3.4 30 0 30 C0 20.1 0 10.2 0 0 Z " fill="#87A889" transform="translate(210,180)"/>
<path d="M0 0 C6.6 0 13.2 0 20 0 C20 6.6 20 13.2 20 20 C23.3 20 26.6 20 30 20 C30 29.9 30 39.8 30 50 C33.3 50 36.6 50 40 50 C40 83 40 116 40 150 C36.7 150 33.4 150 30 150 C30 159.9 30 169.8 30 180 C26.7 180 23.4 180 20 180 C20 186.6 20 193.2 20 200 C16.7 200 13.4 200 10 200 C10 206.6 10 213.2 10 220 C6.7 220 3.4 220 0 220 C0 226.6 0 233.2 0 240 C-3.3 240 -6.6 240 -10 240 C-10 243.3 -10 246.6 -10 250 C3.2 250 16.4 250 30 250 C30 253.3 30 256.6 30 260 C33.3 260 36.6 260 40 260 C40 263.3 40 266.6 40 270 C33.4 270 26.8 270 20 270 C20 273.3 20 276.6 20 280 C0.2 280 -19.6 280 -40 280 C-40 273.4 -40 266.8 -40 260 C-36.7 260 -33.4 260 -30 260 C-30 253.4 -30 246.8 -30 240 C-26.7 240 -23.4 240 -20 240 C-20 230.1 -20 220.2 -20 210 C-16.7 210 -13.4 210 -10 210 C-10 203.4 -10 196.8 -10 190 C-6.7 190 -3.4 190 0 190 C0 176.8 0 163.6 0 150 C-3.3 150 -6.6 150 -10 150 C-10 136.8 -10 123.6 -10 110 C-13.3 110 -16.6 110 -20 110 C-20 113.3 -20 116.6 -20 120 C-23.3 120 -26.6 120 -30 120 C-30 126.6 -30 133.2 -30 140 C-33.3 140 -36.6 140 -40 140 C-40 123.5 -40 107 -40 90 C-36.7 90 -33.4 90 -30 90 C-30 86.7 -30 83.4 -30 80 C-26.7 80 -23.4 80 -20 80 C-20 66.8 -20 53.6 -20 40 C-16.7 40 -13.4 40 -10 40 C-10 33.4 -10 26.8 -10 20 C-6.7 20 -3.4 20 0 20 C0 13.4 0 6.8 0 0 Z " fill="#87A889" transform="translate(410,200)"/>
<path d="M0 0 C6.6 0 13.2 0 20 0 C20 3.3 20 6.6 20 10 C92.6 10 165.2 10 240 10 C240 6.7 240 3.4 240 0 C246.6 0 253.2 0 260 0 C260 16.5 260 33 260 50 C256.7 50 253.4 50 250 50 C250 46.7 250 43.4 250 40 C246.7 40 243.4 40 240 40 C240 43.3 240 46.6 240 50 C236.7 50 233.4 50 230 50 C230 46.7 230 43.4 230 40 C226.7 40 223.4 40 220 40 C220 43.3 220 46.6 220 50 C216.7 50 213.4 50 210 50 C210 46.7 210 43.4 210 40 C206.7 40 203.4 40 200 40 C200 43.3 200 46.6 200 50 C196.7 50 193.4 50 190 50 C190 46.7 190 43.4 190 40 C186.7 40 183.4 40 180 40 C180 43.3 180 46.6 180 50 C176.7 50 173.4 50 170 50 C170 46.7 170 43.4 170 40 C166.7 40 163.4 40 160 40 C160 43.3 160 46.6 160 50 C156.7 50 153.4 50 150 50 C150 46.7 150 43.4 150 40 C146.7 40 143.4 40 140 40 C140 43.3 140 46.6 140 50 C136.7 50 133.4 50 130 50 C130 46.7 130 43.4 130 40 C126.7 40 123.4 40 120 40 C120 43.3 120 46.6 120 50 C116.7 50 113.4 50 110 50 C110 46.7 110 43.4 110 40 C106.7 40 103.4 40 100 40 C100 43.3 100 46.6 100 50 C96.7 50 93.4 50 90 50 C90 46.7 90 43.4 90 40 C86.7 40 83.4 40 80 40 C80 43.3 80 46.6 80 50 C76.7 50 73.4 50 70 50 C70 46.7 70 43.4 70 40 C66.7 40 63.4 40 60 40 C60 43.3 60 46.6 60 50 C56.7 50 53.4 50 50 50 C50 46.7 50 43.4 50 40 C46.7 40 43.4 40 40 40 C40 43.3 40 46.6 40 50 C36.7 50 33.4 50 30 50 C30 46.7 30 43.4 30 40 C26.7 40 23.4 40 20 40 C20 43.3 20 46.6 20 50 C16.7 50 13.4 50 10 50 C10 46.7 10 43.4 10 40 C6.7 40 3.4 40 0 40 C0 26.8 0 13.6 0 0 Z " fill="#FFE6C6" transform="translate(190,470)"/>
<path d="M0 0 C6.6 0 13.2 0 20 0 C20 6.6 20 13.2 20 20 C23.3 20 26.6 20 30 20 C30 23.3 30 26.6 30 30 C33.3 30 36.6 30 40 30 C40 39.9 40 49.8 40 60 C43.3 60 46.6 60 50 60 C50 73.2 50 86.4 50 100 C53.3 100 56.6 100 60 100 C60 119.8 60 139.6 60 160 C56.7 160 53.4 160 50 160 C50 156.7 50 153.4 50 150 C46.7 150 43.4 150 40 150 C40 159.9 40 169.8 40 180 C36.7 180 33.4 180 30 180 C30 176.7 30 173.4 30 170 C26.7 170 23.4 170 20 170 C20 156.8 20 143.6 20 130 C16.7 130 13.4 130 10 130 C10 113.5 10 97 10 80 C6.7 80 3.4 80 0 80 C0 53.6 0 27.2 0 0 Z " fill="#87A889" transform="translate(210,180)"/>
<path d="M0 0 C6.6 0 13.2 0 20 0 C20 19.8 20 39.6 20 60 C16.7 60 13.4 60 10 60 C10 76.5 10 93 10 110 C6.7 110 3.4 110 0 110 C0 119.9 0 129.8 0 140 C-3.3 140 -6.6 140 -10 140 C-10 130.1 -10 120.2 -10 110 C-13.3 110 -16.6 110 -20 110 C-20 113.3 -20 116.6 -20 120 C-23.3 120 -26.6 120 -30 120 C-30 126.6 -30 133.2 -30 140 C-33.3 140 -36.6 140 -40 140 C-40 123.5 -40 107 -40 90 C-36.7 90 -33.4 90 -30 90 C-30 86.7 -30 83.4 -30 80 C-26.7 80 -23.4 80 -20 80 C-20 66.8 -20 53.6 -20 40 C-16.7 40 -13.4 40 -10 40 C-10 33.4 -10 26.8 -10 20 C-6.7 20 -3.4 20 0 20 C0 13.4 0 6.8 0 0 Z " fill="#87A889" transform="translate(410,200)"/>
<path d="M0 0 C3.3 0 6.6 0 10 0 C10 52.8 10 105.6 10 160 C6.7 160 3.4 160 0 160 C0 166.6 0 173.2 0 180 C-3.3 180 -6.6 180 -10 180 C-10 170.1 -10 160.2 -10 150 C-6.7 150 -3.4 150 0 150 C0 100.5 0 51 0 0 Z " fill="#9FE27F" transform="translate(310,200)"/>
<path d="M0 0 C3.3 0 6.6 0 10 0 C10 23.1 10 46.2 10 70 C13.3 70 16.6 70 20 70 C20 86.5 20 103 20 120 C23.3 120 26.6 120 30 120 C30 136.5 30 153 30 170 C26.7 170 23.4 170 20 170 C20 156.8 20 143.6 20 130 C16.7 130 13.4 130 10 130 C10 113.5 10 97 10 80 C6.7 80 3.4 80 0 80 C0 53.6 0 27.2 0 0 Z " fill="#759877" transform="translate(210,180)"/>
<path d="M0 0 C3.3 0 6.6 0 10 0 C10 19.8 10 39.6 10 60 C6.7 60 3.4 60 0 60 C0 76.5 0 93 0 110 C-3.3 110 -6.6 110 -10 110 C-10 119.9 -10 129.8 -10 140 C-13.3 140 -16.6 140 -20 140 C-20 126.8 -20 113.6 -20 100 C-16.7 100 -13.4 100 -10 100 C-10 83.5 -10 67 -10 50 C-6.7 50 -3.4 50 0 50 C0 33.5 0 17 0 0 Z " fill="#759877" transform="translate(420,200)"/>
<path d="M0 0 C13.2 0 26.4 0 40 0 C40 3.3 40 6.6 40 10 C43.3 10 46.6 10 50 10 C50 13.3 50 16.6 50 20 C43.4 20 36.8 20 30 20 C30 23.3 30 26.6 30 30 C13.5 30 -3 30 -20 30 C-20 26.7 -20 23.4 -20 20 C-16.7 20 -13.4 20 -10 20 C-10 16.7 -10 13.4 -10 10 C-6.7 10 -3.4 10 0 10 C0 6.7 0 3.4 0 0 Z " fill="#F98284" transform="translate(400,450)"/>
<path d="M0 0 C13.2 0 26.4 0 40 0 C40 3.3 40 6.6 40 10 C43.3 10 46.6 10 50 10 C50 16.6 50 23.2 50 30 C36.8 30 23.6 30 10 30 C10 26.7 10 23.4 10 20 C3.4 20 -3.2 20 -10 20 C-10 16.7 -10 13.4 -10 10 C-6.7 10 -3.4 10 0 10 C0 6.7 0 3.4 0 0 Z " fill="#F98284" transform="translate(200,450)"/>
<path d="M0 0 C9.9 0 19.8 0 30 0 C30 6.6 30 13.2 30 20 C33.3 20 36.6 20 40 20 C40 23.3 40 26.6 40 30 C23.5 30 7 30 -10 30 C-10 26.7 -10 23.4 -10 20 C-6.7 20 -3.4 20 0 20 C0 13.4 0 6.8 0 0 Z " fill="#F98284" transform="translate(370,610)"/>
<path d="M0 0 C9.9 0 19.8 0 30 0 C30 6.6 30 13.2 30 20 C33.3 20 36.6 20 40 20 C40 23.3 40 26.6 40 30 C23.5 30 7 30 -10 30 C-10 26.7 -10 23.4 -10 20 C-6.7 20 -3.4 20 0 20 C0 13.4 0 6.8 0 0 Z " fill="#F98284" transform="translate(240,610)"/>
<path d="M0 0 C3.3 0 6.6 0 10 0 C10 3.3 10 6.6 10 10 C13.3 10 16.6 10 20 10 C20 23.2 20 36.4 20 50 C16.7 50 13.4 50 10 50 C10 40.1 10 30.2 10 20 C6.7 20 3.4 20 0 20 C0 13.4 0 6.8 0 0 Z " fill="#DBE692" transform="translate(250,330)"/>
<path d="M0 0 C3.3 0 6.6 0 10 0 C10 13.2 10 26.4 10 40 C6.7 40 3.4 40 0 40 C0 26.8 0 13.6 0 0 Z " fill="#DBE692" transform="translate(390,310)"/>
<path d="M0 0 C3.3 0 6.6 0 10 0 C10 3.3 10 6.6 10 10 C13.3 10 16.6 10 20 10 C20 13.3 20 16.6 20 20 C13.4 20 6.8 20 0 20 C0 13.4 0 6.8 0 0 Z " fill="#759877" transform="translate(270,460)"/>
<path d="M0 0 C3.3 0 6.6 0 10 0 C10 9.9 10 19.8 10 30 C6.7 30 3.4 30 0 30 C0 20.1 0 10.2 0 0 Z " fill="#DBE692" transform="translate(350,420)"/>
<path d="M0 0 C3.3 0 6.6 0 10 0 C10 9.9 10 19.8 10 30 C6.7 30 3.4 30 0 30 C0 20.1 0 10.2 0 0 Z " fill="#DBE692" transform="translate(270,380)"/>
<path d="M0 0 C3.3 0 6.6 0 10 0 C10 9.9 10 19.8 10 30 C6.7 30 3.4 30 0 30 C0 20.1 0 10.2 0 0 Z " fill="#DBE692" transform="translate(380,350)"/>
<path d="M0 0 C3.3 0 6.6 0 10 0 C10 6.6 10 13.2 10 20 C6.7 20 3.4 20 0 20 C0 13.4 0 6.8 0 0 Z " fill="#DBE692" transform="translate(330,460)"/>
<path d="M0 0 C3.3 0 6.6 0 10 0 C10 6.6 10 13.2 10 20 C6.7 20 3.4 20 0 20 C0 13.4 0 6.8 0 0 Z " fill="#DBE692" transform="translate(300,450)"/>
<path d="M0 0 C3.3 0 6.6 0 10 0 C10 6.6 10 13.2 10 20 C6.7 20 3.4 20 0 20 C0 13.4 0 6.8 0 0 Z " fill="#DBE692" transform="translate(290,430)"/>
<path d="M0 0 C3.3 0 6.6 0 10 0 C10 6.6 10 13.2 10 20 C6.7 20 3.4 20 0 20 C0 13.4 0 6.8 0 0 Z " fill="#DBE692" transform="translate(280,410)"/>
<path d="M0 0 C3.3 0 6.6 0 10 0 C10 6.6 10 13.2 10 20 C6.7 20 3.4 20 0 20 C0 13.4 0 6.8 0 0 Z " fill="#DBE692" transform="translate(360,400)"/>
<path d="M0 0 C3.3 0 6.6 0 10 0 C10 6.6 10 13.2 10 20 C6.7 20 3.4 20 0 20 C0 13.4 0 6.8 0 0 Z " fill="#DBE692" transform="translate(370,380)"/>
<path d="M0 0 C3.3 0 6.6 0 10 0 C10 3.3 10 6.6 10 10 C6.7 10 3.4 10 0 10 C0 6.7 0 3.4 0 0 Z " fill="#FFF7A0" transform="translate(440,510)"/>
<path d="M0 0 C3.3 0 6.6 0 10 0 C10 3.3 10 6.6 10 10 C6.7 10 3.4 10 0 10 C0 6.7 0 3.4 0 0 Z " fill="#FFF7A0" transform="translate(420,510)"/>
<path d="M0 0 C3.3 0 6.6 0 10 0 C10 3.3 10 6.6 10 10 C6.7 10 3.4 10 0 10 C0 6.7 0 3.4 0 0 Z " fill="#FFF7A0" transform="translate(400,510)"/>
<path d="M0 0 C3.3 0 6.6 0 10 0 C10 3.3 10 6.6 10 10 C6.7 10 3.4 10 0 10 C0 6.7 0 3.4 0 0 Z " fill="#FFF7A0" transform="translate(380,510)"/>
<path d="M0 0 C3.3 0 6.6 0 10 0 C10 3.3 10 6.6 10 10 C6.7 10 3.4 10 0 10 C0 6.7 0 3.4 0 0 Z " fill="#FFF7A0" transform="translate(360,510)"/>
<path d="M0 0 C3.3 0 6.6 0 10 0 C10 3.3 10 6.6 10 10 C6.7 10 3.4 10 0 10 C0 6.7 0 3.4 0 0 Z " fill="#FFF7A0" transform="translate(340,510)"/>
<path d="M0 0 C3.3 0 6.6 0 10 0 C10 3.3 10 6.6 10 10 C6.7 10 3.4 10 0 10 C0 6.7 0 3.4 0 0 Z " fill="#FFF7A0" transform="translate(320,510)"/>
<path d="M0 0 C3.3 0 6.6 0 10 0 C10 3.3 10 6.6 10 10 C6.7 10 3.4 10 0 10 C0 6.7 0 3.4 0 0 Z " fill="#FFF7A0" transform="translate(300,510)"/>
<path d="M0 0 C3.3 0 6.6 0 10 0 C10 3.3 10 6.6 10 10 C6.7 10 3.4 10 0 10 C0 6.7 0 3.4 0 0 Z " fill="#FFF7A0" transform="translate(280,510)"/>
<path d="M0 0 C3.3 0 6.6 0 10 0 C10 3.3 10 6.6 10 10 C6.7 10 3.4 10 0 10 C0 6.7 0 3.4 0 0 Z " fill="#FFF7A0" transform="translate(260,510)"/>
<path d="M0 0 C3.3 0 6.6 0 10 0 C10 3.3 10 6.6 10 10 C6.7 10 3.4 10 0 10 C0 6.7 0 3.4 0 0 Z " fill="#FFF7A0" transform="translate(240,510)"/>
<path d="M0 0 C3.3 0 6.6 0 10 0 C10 3.3 10 6.6 10 10 C6.7 10 3.4 10 0 10 C0 6.7 0 3.4 0 0 Z " fill="#FFF7A0" transform="translate(220,510)"/>
<path d="M0 0 C3.3 0 6.6 0 10 0 C10 3.3 10 6.6 10 10 C6.7 10 3.4 10 0 10 C0 6.7 0 3.4 0 0 Z " fill="#FFF7A0" transform="translate(200,510)"/>
<path d="M0 0 C3.3 0 6.6 0 10 0 C10 3.3 10 6.6 10 10 C6.7 10 3.4 10 0 10 C0 6.7 0 3.4 0 0 Z " fill="#FFE6C6" transform="translate(440,500)"/>
<path d="M0 0 C3.3 0 6.6 0 10 0 C10 3.3 10 6.6 10 10 C6.7 10 3.4 10 0 10 C0 6.7 0 3.4 0 0 Z " fill="#FFF7A0" transform="translate(430,500)"/>
<path d="M0 0 C3.3 0 6.6 0 10 0 C10 3.3 10 6.6 10 10 C6.7 10 3.4 10 0 10 C0 6.7 0 3.4 0 0 Z " fill="#FFE6C6" transform="translate(420,500)"/>
<path d="M0 0 C3.3 0 6.6 0 10 0 C10 3.3 10 6.6 10 10 C6.7 10 3.4 10 0 10 C0 6.7 0 3.4 0 0 Z " fill="#FFF7A0" transform="translate(410,500)"/>
<path d="M0 0 C3.3 0 6.6 0 10 0 C10 3.3 10 6.6 10 10 C6.7 10 3.4 10 0 10 C0 6.7 0 3.4 0 0 Z " fill="#FFE6C6" transform="translate(400,500)"/>
<path d="M0 0 C3.3 0 6.6 0 10 0 C10 3.3 10 6.6 10 10 C6.7 10 3.4 10 0 10 C0 6.7 0 3.4 0 0 Z " fill="#FFF7A0" transform="translate(390,500)"/>
<path d="M0 0 C3.3 0 6.6 0 10 0 C10 3.3 10 6.6 10 10 C6.7 10 3.4 10 0 10 C0 6.7 0 3.4 0 0 Z " fill="#FFE6C6" transform="translate(380,500)"/>
<path d="M0 0 C3.3 0 6.6 0 10 0 C10 3.3 10 6.6 10 10 C6.7 10 3.4 10 0 10 C0 6.7 0 3.4 0 0 Z " fill="#FFF7A0" transform="translate(370,500)"/>
<path d="M0 0 C3.3 0 6.6 0 10 0 C10 3.3 10 6.6 10 10 C6.7 10 3.4 10 0 10 C0 6.7 0 3.4 0 0 Z " fill="#FFE6C6" transform="translate(360,500)"/>
<path d="M0 0 C3.3 0 6.6 0 10 0 C10 3.3 10 6.6 10 10 C6.7 10 3.4 10 0 10 C0 6.7 0 3.4 0 0 Z " fill="#FFF7A0" transform="translate(350,500)"/>
<path d="M0 0 C3.3 0 6.6 0 10 0 C10 3.3 10 6.6 10 10 C6.7 10 3.4 10 0 10 C0 6.7 0 3.4 0 0 Z " fill="#FFE6C6" transform="translate(340,500)"/>
<path d="M0 0 C3.3 0 6.6 0 10 0 C10 3.3 10 6.6 10 10 C6.7 10 3.4 10 0 10 C0 6.7 0 3.4 0 0 Z " fill="#FFF7A0" transform="translate(330,500)"/>
<path d="M0 0 C3.3 0 6.6 0 10 0 C10 3.3 10 6.6 10 10 C6.7 10 3.4 10 0 10 C0 6.7 0 3.4 0 0 Z " fill="#FFF7A0" transform="translate(310,500)"/>
<path d="M0 0 C3.3 0 6.6 0 10 0 C10 3.3 10 6.6 10 10 C6.7 10 3.4 10 0 10 C0 6.7 0 3.4 0 0 Z " fill="#FFF7A0" transform="translate(290,500)"/>
<path d="M0 0 C3.3 0 6.6 0 10 0 C10 3.3 10 6.6 10 10 C6.7 10 3.4 10 0 10 C0 6.7 0 3.4 0 0 Z " fill="#FFF7A0" transform="translate(270,500)"/>
<path d="M0 0 C3.3 0 6.6 0 10 0 C10 3.3 10 6.6 10 10 C6.7 10 3.4 10 0 10 C0 6.7 0 3.4 0 0 Z " fill="#FFF7A0" transform="translate(250,500)"/>
<path d="M0 0 C3.3 0 6.6 0 10 0 C10 3.3 10 6.6 10 10 C6.7 10 3.4 10 0 10 C0 6.7 0 3.4 0 0 Z " fill="#FFF7A0" transform="translate(230,500)"/>
<path d="M0 0 C3.3 0 6.6 0 10 0 C10 3.3 10 6.6 10 10 C6.7 10 3.4 10 0 10 C0 6.7 0 3.4 0 0 Z " fill="#FFF7A0" transform="translate(210,500)"/>
<path d="M0 0 C3.3 0 6.6 0 10 0 C10 3.3 10 6.6 10 10 C6.7 10 3.4 10 0 10 C0 6.7 0 3.4 0 0 Z " fill="#FFF7A0" transform="translate(190,500)"/>
<path d="M0 0 C3.3 0 6.6 0 10 0 C10 3.3 10 6.6 10 10 C6.7 10 3.4 10 0 10 C0 6.7 0 3.4 0 0 Z " fill="#FFF7A0" transform="translate(440,490)"/>
<path d="M0 0 C3.3 0 6.6 0 10 0 C10 3.3 10 6.6 10 10 C6.7 10 3.4 10 0 10 C0 6.7 0 3.4 0 0 Z " fill="#FFF7A0" transform="translate(420,490)"/>
<path d="M0 0 C3.3 0 6.6 0 10 0 C10 3.3 10 6.6 10 10 C6.7 10 3.4 10 0 10 C0 6.7 0 3.4 0 0 Z " fill="#FFF7A0" transform="translate(400,490)"/>
<path d="M0 0 C3.3 0 6.6 0 10 0 C10 3.3 10 6.6 10 10 C6.7 10 3.4 10 0 10 C0 6.7 0 3.4 0 0 Z " fill="#FFF7A0" transform="translate(380,490)"/>
<path d="M0 0 C3.3 0 6.6 0 10 0 C10 3.3 10 6.6 10 10 C6.7 10 3.4 10 0 10 C0 6.7 0 3.4 0 0 Z " fill="#FFF7A0" transform="translate(360,490)"/>
<path d="M0 0 C3.3 0 6.6 0 10 0 C10 3.3 10 6.6 10 10 C6.7 10 3.4 10 0 10 C0 6.7 0 3.4 0 0 Z " fill="#FFF7A0" transform="translate(340,490)"/>
<path d="M0 0 C3.3 0 6.6 0 10 0 C10 3.3 10 6.6 10 10 C6.7 10 3.4 10 0 10 C0 6.7 0 3.4 0 0 Z " fill="#FFF7A0" transform="translate(320,490)"/>
<path d="M0 0 C3.3 0 6.6 0 10 0 C10 3.3 10 6.6 10 10 C6.7 10 3.4 10 0 10 C0 6.7 0 3.4 0 0 Z " fill="#FFF7A0" transform="translate(300,490)"/>
<path d="M0 0 C3.3 0 6.6 0 10 0 C10 3.3 10 6.6 10 10 C6.7 10 3.4 10 0 10 C0 6.7 0 3.4 0 0 Z " fill="#FFF7A0" transform="translate(280,490)"/>
<path d="M0 0 C3.3 0 6.6 0 10 0 C10 3.3 10 6.6 10 10 C6.7 10 3.4 10 0 10 C0 6.7 0 3.4 0 0 Z " fill="#FFF7A0" transform="translate(260,490)"/>
<path d="M0 0 C3.3 0 6.6 0 10 0 C10 3.3 10 6.6 10 10 C6.7 10 3.4 10 0 10 C0 6.7 0 3.4 0 0 Z " fill="#FFF7A0" transform="translate(240,490)"/>
<path d="M0 0 C3.3 0 6.6 0 10 0 C10 3.3 10 6.6 10 10 C6.7 10 3.4 10 0 10 C0 6.7 0 3.4 0 0 Z " fill="#FFF7A0" transform="translate(220,490)"/>
<path d="M0 0 C3.3 0 6.6 0 10 0 C10 3.3 10 6.6 10 10 C6.7 10 3.4 10 0 10 C0 6.7 0 3.4 0 0 Z " fill="#FFF7A0" transform="translate(200,490)"/>
<path d="M0 0 C3.3 0 6.6 0 10 0 C10 3.3 10 6.6 10 10 C6.7 10 3.4 10 0 10 C0 6.7 0 3.4 0 0 Z " fill="#DBE692" transform="translate(310,470)"/>
<path d="M0 0 C3.3 0 6.6 0 10 0 C10 3.3 10 6.6 10 10 C6.7 10 3.4 10 0 10 C0 6.7 0 3.4 0 0 Z " fill="#87A889" transform="translate(280,470)"/>
<path d="M0 0 C3.3 0 6.6 0 10 0 C10 3.3 10 6.6 10 10 C6.7 10 3.4 10 0 10 C0 6.7 0 3.4 0 0 Z " fill="#DBE692" transform="translate(340,450)"/>
<path d="M0 0 C3.3 0 6.6 0 10 0 C10 3.3 10 6.6 10 10 C6.7 10 3.4 10 0 10 C0 6.7 0 3.4 0 0 Z " fill="#759877" transform="translate(240,350)"/>
<path d="M0 0 C3.3 0 6.6 0 10 0 C10 3.3 10 6.6 10 10 C6.7 10 3.4 10 0 10 C0 6.7 0 3.4 0 0 Z " fill="#E9F59D" transform="translate(260,340)"/>
</svg>
