<?xml version="1.0" encoding="UTF-8"?>
<svg version="1.1" xmlns="http://www.w3.org/2000/svg" width="640" height="640">
<path d="M0 0 C16.5 0 33 0 50 0 C50 3.3 50 6.6 50 10 C53.3 10 56.6 10 60 10 C60 16.6 60 23.2 60 30 C63.3 30 66.6 30 70 30 C70 43.2 70 56.4 70 70 C76.6 70 83.2 70 90 70 C90 73.3 90 76.6 90 80 C93.3 80 96.6 80 100 80 C100 83.3 100 86.6 100 90 C103.3 90 106.6 90 110 90 C110 162.6 110 235.2 110 310 C106.7 310 103.4 310 100 310 C100 326.5 100 343 100 360 C96.7 360 93.4 360 90 360 C90 366.6 90 373.2 90 380 C86.7 380 83.4 380 80 380 C80 383.3 80 386.6 80 390 C43.7 390 7.4 390 -30 390 C-30 386.7 -30 383.4 -30 380 C-33.3 380 -36.6 380 -40 380 C-40 373.4 -40 366.8 -40 360 C-43.3 360 -46.6 360 -50 360 C-50 343.5 -50 327 -50 310 C-53.3 310 -56.6 310 -60 310 C-60 237.4 -60 164.8 -60 90 C-56.7 90 -53.4 90 -50 90 C-50 86.7 -50 83.4 -50 80 C-46.7 80 -43.4 80 -40 80 C-40 76.7 -40 73.4 -40 70 C-33.4 70 -26.8 70 -20 70 C-20 56.8 -20 43.6 -20 30 C-16.7 30 -13.4 30 -10 30 C-10 23.4 -10 16.8 -10 10 C-6.7 10 -3.4 10 0 10 C0 6.7 0 3.4 0 0 Z " fill="#DAEFEB" transform="translate(300,250)"/>
<path d="M0 0 C3.3 0 6.6 0 10 0 C10 6.6 10 13.2 10 20 C16.6 20 23.2 20 30 20 C30 16.7 30 13.4 30 10 C36.6 10 43.2 10 50 10 C50 6.7 50 3.4 50 0 C63.2 0 76.4 0 90 0 C90 3.3 90 6.6 90 10 C96.6 10 103.2 10 110 10 C110 13.3 110 16.6 110 20 C113.3 20 116.6 20 120 20 C120 16.7 120 13.4 120 10 C126.6 10 133.2 10 140 10 C140 6.7 140 3.4 140 0 C143.3 0 146.6 0 150 0 C150 42.9 150 85.8 150 130 C146.7 130 143.4 130 140 130 C140 136.6 140 143.2 140 150 C136.7 150 133.4 150 130 150 C130 153.3 130 156.6 130 160 C93.7 160 57.4 160 20 160 C20 156.7 20 153.4 20 150 C16.7 150 13.4 150 10 150 C10 143.4 10 136.8 10 130 C6.7 130 3.4 130 0 130 C0 87.1 0 44.2 0 0 Z " fill="#B0A9E4" transform="translate(250,480)"/>
<path d="M0 0 C3.3 0 6.6 0 10 0 C10 72.6 10 145.2 10 220 C6.7 220 3.4 220 0 220 C0 147.4 0 74.8 0 0 Z " fill="#B3E3DA" transform="translate(400,340)"/>
<path d="M0 0 C3.3 0 6.6 0 10 0 C10 72.6 10 145.2 10 220 C6.7 220 3.4 220 0 220 C0 147.4 0 74.8 0 0 Z " fill="#B3E3DA" transform="translate(240,340)"/>
<path d="M0 0 C16.5 0 33 0 50 0 C50 13.2 50 26.4 50 40 C33.5 40 17 40 0 40 C0 26.8 0 13.6 0 0 Z " fill="#9FCAC2" transform="translate(300,250)"/>
<path d="M0 0 C36.3 0 72.6 0 110 0 C110 3.3 110 6.6 110 10 C73.7 10 37.4 10 0 10 C0 6.7 0 3.4 0 0 Z " fill="#B3E3DA" transform="translate(270,630)"/>
<path d="M0 0 C3.3 0 6.6 0 10 0 C10 16.5 10 33 10 50 C6.7 50 3.4 50 0 50 C0 33.5 0 17 0 0 Z " fill="#B3E3DA" transform="translate(390,560)"/>
<path d="M0 0 C3.3 0 6.6 0 10 0 C10 16.5 10 33 10 50 C6.7 50 3.4 50 0 50 C0 33.5 0 17 0 0 Z " fill="#B3E3DA" transform="translate(250,560)"/>
<path d="M0 0 C16.5 0 33 0 50 0 C50 3.3 50 6.6 50 10 C33.5 10 17 10 0 10 C0 6.7 0 3.4 0 0 Z " fill="#B3E3DA" transform="translate(300,280)"/>
<path d="M0 0 C16.5 0 33 0 50 0 C50 3.3 50 6.6 50 10 C33.5 10 17 10 0 10 C0 6.7 0 3.4 0 0 Z " fill="#B3E3DA" transform="translate(300,250)"/>
<path d="M0 0 C3.3 0 6.6 0 10 0 C10 13.2 10 26.4 10 40 C6.7 40 3.4 40 0 40 C0 26.8 0 13.6 0 0 Z " fill="#B3E3DA" transform="translate(360,280)"/>
<path d="M0 0 C3.3 0 6.6 0 10 0 C10 13.2 10 26.4 10 40 C6.7 40 3.4 40 0 40 C0 26.8 0 13.6 0 0 Z " fill="#B3E3DA" transform="translate(280,280)"/>
<path d="M0 0 C3.3 0 6.6 0 10 0 C10 6.6 10 13.2 10 20 C6.7 20 3.4 20 0 20 C0 13.4 0 6.8 0 0 Z " fill="#B3E3DA" transform="translate(380,610)"/>
<path d="M0 0 C3.3 0 6.6 0 10 0 C10 6.6 10 13.2 10 20 C6.7 20 3.4 20 0 20 C0 13.4 0 6.8 0 0 Z " fill="#B3E3DA" transform="translate(260,610)"/>
<path d="M0 0 C6.6 0 13.2 0 20 0 C20 3.3 20 6.6 20 10 C13.4 10 6.8 10 0 10 C0 6.7 0 3.4 0 0 Z " fill="#B3E3DA" transform="translate(370,320)"/>
<path d="M0 0 C6.6 0 13.2 0 20 0 C20 3.3 20 6.6 20 10 C13.4 10 6.8 10 0 10 C0 6.7 0 3.4 0 0 Z " fill="#B3E3DA" transform="translate(260,320)"/>
<path d="M0 0 C3.3 0 6.6 0 10 0 C10 6.6 10 13.2 10 20 C6.7 20 3.4 20 0 20 C0 13.4 0 6.8 0 0 Z " fill="#B3E3DA" transform="translate(350,260)"/>
<path d="M0 0 C3.3 0 6.6 0 10 0 C10 6.6 10 13.2 10 20 C6.7 20 3.4 20 0 20 C0 13.4 0 6.8 0 0 Z " fill="#B3E3DA" transform="translate(290,260)"/>
<path d="M0 0 C3.3 0 6.6 0 10 0 C10 3.3 10 6.6 10 10 C6.7 10 3.4 10 0 10 C0 6.7 0 3.4 0 0 Z " fill="#B3E3DA" transform="translate(390,330)"/>
<path d="M0 0 C3.3 0 6.6 0 10 0 C10 3.3 10 6.6 10 10 C6.7 10 3.4 10 0 10 C0 6.7 0 3.4 0 0 Z " fill="#B3E3DA" transform="translate(250,330)"/>
</svg>
