<?xml version="1.0" encoding="UTF-8"?>
<svg version="1.1" xmlns="http://www.w3.org/2000/svg" width="640" height="640">
<path d="M0 0 C9.9 0 19.8 0 30 0 C30 3.3 30 6.6 30 10 C33.3 10 36.6 10 40 10 C40 13.3 40 16.6 40 20 C49.9 20 59.8 20 70 20 C70 13.4 70 6.8 70 0 C73.3 0 76.6 0 80 0 C80 6.6 80 13.2 80 20 C93.2 20 106.4 20 120 20 C120 13.4 120 6.8 120 0 C123.3 0 126.6 0 130 0 C130 3.3 130 6.6 130 10 C139.9 10 149.8 10 160 10 C160 6.7 160 3.4 160 0 C169.9 0 179.8 0 190 0 C190 3.3 190 6.6 190 10 C209.8 10 229.6 10 250 10 C250 13.3 250 16.6 250 20 C253.3 20 256.6 20 260 20 C260 23.3 260 26.6 260 30 C263.3 30 266.6 30 270 30 C270 33.3 270 36.6 270 40 C266.7 40 263.4 40 260 40 C260 43.3 260 46.6 260 50 C250.1 50 240.2 50 230 50 C230 46.7 230 43.4 230 40 C226.7 40 223.4 40 220 40 C220 36.7 220 33.4 220 30 C216.7 30 213.4 30 210 30 C210 26.7 210 23.4 210 20 C203.4 20 196.8 20 190 20 C190 23.3 190 26.6 190 30 C193.3 30 196.6 30 200 30 C200 39.9 200 49.8 200 60 C196.7 60 193.4 60 190 60 C190 63.3 190 66.6 190 70 C186.7 70 183.4 70 180 70 C180 66.7 180 63.4 180 60 C176.7 60 173.4 60 170 60 C170 53.4 170 46.8 170 40 C166.7 40 163.4 40 160 40 C160 33.4 160 26.8 160 20 C150.1 20 140.2 20 130 20 C130 23.3 130 26.6 130 30 C133.3 30 136.6 30 140 30 C140 36.6 140 43.2 140 50 C143.3 50 146.6 50 150 50 C150 63.2 150 76.4 150 90 C156.6 90 163.2 90 170 90 C170 93.3 170 96.6 170 100 C173.3 100 176.6 100 180 100 C180 103.3 180 106.6 180 110 C183.3 110 186.6 110 190 110 C190 182.6 190 255.2 190 330 C186.7 330 183.4 330 180 330 C180 346.5 180 363 180 380 C176.7 380 173.4 380 170 380 C170 386.6 170 393.2 170 400 C166.7 400 163.4 400 160 400 C160 403.3 160 406.6 160 410 C123.7 410 87.4 410 50 410 C50 406.7 50 403.4 50 400 C46.7 400 43.4 400 40 400 C40 393.4 40 386.8 40 380 C36.7 380 33.4 380 30 380 C30 363.5 30 347 30 330 C26.7 330 23.4 330 20 330 C20 257.4 20 184.8 20 110 C23.3 110 26.6 110 30 110 C30 106.7 30 103.4 30 100 C33.3 100 36.6 100 40 100 C40 96.7 40 93.4 40 90 C46.6 90 53.2 90 60 90 C60 76.8 60 63.6 60 50 C63.3 50 66.6 50 70 50 C70 43.4 70 36.8 70 30 C63.4 30 56.8 30 50 30 C50 33.3 50 36.6 50 40 C46.7 40 43.4 40 40 40 C40 43.3 40 46.6 40 50 C30.1 50 20.2 50 10 50 C10 46.7 10 43.4 10 40 C-3.2 40 -16.4 40 -30 40 C-30 36.7 -30 33.4 -30 30 C-33.3 30 -36.6 30 -40 30 C-40 26.7 -40 23.4 -40 20 C-33.4 20 -26.8 20 -20 20 C-20 16.7 -20 13.4 -20 10 C-13.4 10 -6.8 10 0 10 C0 6.7 0 3.4 0 0 Z " fill="#B0A9E4" transform="translate(220,230)"/>
<path d="M0 0 C9.9 0 19.8 0 30 0 C30 3.3 30 6.6 30 10 C33.3 10 36.6 10 40 10 C40 13.3 40 16.6 40 20 C49.9 20 59.8 20 70 20 C70 13.4 70 6.8 70 0 C73.3 0 76.6 0 80 0 C80 6.6 80 13.2 80 20 C93.2 20 106.4 20 120 20 C120 13.4 120 6.8 120 0 C123.3 0 126.6 0 130 0 C130 3.3 130 6.6 130 10 C139.9 10 149.8 10 160 10 C160 6.7 160 3.4 160 0 C169.9 0 179.8 0 190 0 C190 3.3 190 6.6 190 10 C209.8 10 229.6 10 250 10 C250 13.3 250 16.6 250 20 C253.3 20 256.6 20 260 20 C260 23.3 260 26.6 260 30 C263.3 30 266.6 30 270 30 C270 33.3 270 36.6 270 40 C266.7 40 263.4 40 260 40 C260 43.3 260 46.6 260 50 C250.1 50 240.2 50 230 50 C230 46.7 230 43.4 230 40 C226.7 40 223.4 40 220 40 C220 36.7 220 33.4 220 30 C216.7 30 213.4 30 210 30 C210 26.7 210 23.4 210 20 C203.4 20 196.8 20 190 20 C190 23.3 190 26.6 190 30 C193.3 30 196.6 30 200 30 C200 39.9 200 49.8 200 60 C196.7 60 193.4 60 190 60 C190 63.3 190 66.6 190 70 C186.7 70 183.4 70 180 70 C180 66.7 180 63.4 180 60 C176.7 60 173.4 60 170 60 C170 53.4 170 46.8 170 40 C166.7 40 163.4 40 160 40 C160 33.4 160 26.8 160 20 C150.1 20 140.2 20 130 20 C130 29.9 130 39.8 130 50 C123.4 50 116.8 50 110 50 C110 56.6 110 63.2 110 70 C113.3 70 116.6 70 120 70 C120 76.6 120 83.2 120 90 C123.3 90 126.6 90 130 90 C130 106.5 130 123 130 140 C133.3 140 136.6 140 140 140 C140 163.1 140 186.2 140 210 C143.3 210 146.6 210 150 210 C150 246.3 150 282.6 150 320 C146.7 320 143.4 320 140 320 C140 339.8 140 359.6 140 380 C136.7 380 133.4 380 130 380 C130 376.7 130 373.4 130 370 C126.7 370 123.4 370 120 370 C120 360.1 120 350.2 120 340 C123.3 340 126.6 340 130 340 C130 280.6 130 221.2 130 160 C126.7 160 123.4 160 120 160 C120 146.8 120 133.6 120 120 C116.7 120 113.4 120 110 120 C110 113.4 110 106.8 110 100 C106.7 100 103.4 100 100 100 C100 116.5 100 133 100 150 C96.7 150 93.4 150 90 150 C90 179.7 90 209.4 90 240 C86.7 240 83.4 240 80 240 C80 259.8 80 279.6 80 300 C83.3 300 86.6 300 90 300 C90 316.5 90 333 90 350 C86.7 350 83.4 350 80 350 C80 363.2 80 376.4 80 390 C76.7 390 73.4 390 70 390 C70 324 70 258 70 190 C73.3 190 76.6 190 80 190 C80 160.3 80 130.6 80 100 C83.3 100 86.6 100 90 100 C90 90.1 90 80.2 90 70 C93.3 70 96.6 70 100 70 C100 63.4 100 56.8 100 50 C93.4 50 86.8 50 80 50 C80 43.4 80 36.8 80 30 C70.1 30 60.2 30 50 30 C50 33.3 50 36.6 50 40 C46.7 40 43.4 40 40 40 C40 43.3 40 46.6 40 50 C30.1 50 20.2 50 10 50 C10 46.7 10 43.4 10 40 C-3.2 40 -16.4 40 -30 40 C-30 36.7 -30 33.4 -30 30 C-33.3 30 -36.6 30 -40 30 C-40 26.7 -40 23.4 -40 20 C-33.4 20 -26.8 20 -20 20 C-20 16.7 -20 13.4 -20 10 C-13.4 10 -6.8 10 0 10 C0 6.7 0 3.4 0 0 Z " fill="#87A889" transform="translate(220,230)"/>
<path d="M0 0 C3.3 0 6.6 0 10 0 C10 6.6 10 13.2 10 20 C16.6 20 23.2 20 30 20 C30 26.6 30 33.2 30 40 C26.7 40 23.4 40 20 40 C20 49.9 20 59.8 20 70 C16.7 70 13.4 70 10 70 C10 99.7 10 129.4 10 160 C6.7 160 3.4 160 0 160 C0 183.1 0 206.2 0 230 C-3.3 230 -6.6 230 -10 230 C-10 233.3 -10 236.6 -10 240 C-16.6 240 -23.2 240 -30 240 C-30 233.4 -30 226.8 -30 220 C-33.3 220 -36.6 220 -40 220 C-40 246.4 -40 272.8 -40 300 C-43.3 300 -46.6 300 -50 300 C-50 227.4 -50 154.8 -50 80 C-46.7 80 -43.4 80 -40 80 C-40 76.7 -40 73.4 -40 70 C-36.7 70 -33.4 70 -30 70 C-30 66.7 -30 63.4 -30 60 C-23.4 60 -16.8 60 -10 60 C-10 46.8 -10 33.6 -10 20 C-6.7 20 -3.4 20 0 20 C0 13.4 0 6.8 0 0 Z " fill="#DAEFEB" transform="translate(290,260)"/>
<path d="M0 0 C3.3 0 6.6 0 10 0 C10 6.6 10 13.2 10 20 C13.3 20 16.6 20 20 20 C20 33.2 20 46.4 20 60 C26.6 60 33.2 60 40 60 C40 63.3 40 66.6 40 70 C43.3 70 46.6 70 50 70 C50 73.3 50 76.6 50 80 C53.3 80 56.6 80 60 80 C60 152.6 60 225.2 60 300 C56.7 300 53.4 300 50 300 C50 273.6 50 247.2 50 220 C46.7 220 43.4 220 40 220 C40 223.3 40 226.6 40 230 C33.4 230 26.8 230 20 230 C20 213.5 20 197 20 180 C16.7 180 13.4 180 10 180 C10 156.9 10 133.8 10 110 C6.7 110 3.4 110 0 110 C0 93.5 0 77 0 60 C-3.3 60 -6.6 60 -10 60 C-10 53.4 -10 46.8 -10 40 C-13.3 40 -16.6 40 -20 40 C-20 33.4 -20 26.8 -20 20 C-13.4 20 -6.8 20 0 20 C0 13.4 0 6.8 0 0 Z " fill="#DAEFEB" transform="translate(350,260)"/>
<path d="M0 0 C9.9 0 19.8 0 30 0 C30 3.3 30 6.6 30 10 C36.6 10 43.2 10 50 10 C50 16.6 50 23.2 50 30 C53.3 30 56.6 30 60 30 C60 26.7 60 23.4 60 20 C73.2 20 86.4 20 100 20 C100 33.2 100 46.4 100 60 C96.7 60 93.4 60 90 60 C90 66.6 90 73.2 90 80 C86.7 80 83.4 80 80 80 C80 83.3 80 86.6 80 90 C70.1 90 60.2 90 50 90 C50 96.6 50 103.2 50 110 C43.4 110 36.8 110 30 110 C30 103.4 30 96.8 30 90 C23.4 90 16.8 90 10 90 C10 86.7 10 83.4 10 80 C6.7 80 3.4 80 0 80 C0 73.4 0 66.8 0 60 C-3.3 60 -6.6 60 -10 60 C-10 43.5 -10 27 -10 10 C-6.7 10 -3.4 10 0 10 C0 6.7 0 3.4 0 0 Z " fill="#F98284" transform="translate(230,110)"/>
<path d="M0 0 C9.9 0 19.8 0 30 0 C30 3.3 30 6.6 30 10 C33.3 10 36.6 10 40 10 C40 19.9 40 29.8 40 40 C43.3 40 46.6 40 50 40 C50 43.3 50 46.6 50 50 C53.3 50 56.6 50 60 50 C60 56.6 60 63.2 60 70 C56.7 70 53.4 70 50 70 C50 73.3 50 76.6 50 80 C43.4 80 36.8 80 30 80 C30 83.3 30 86.6 30 90 C10.2 90 -9.6 90 -30 90 C-30 86.7 -30 83.4 -30 80 C-33.3 80 -36.6 80 -40 80 C-40 76.7 -40 73.4 -40 70 C-43.3 70 -46.6 70 -50 70 C-50 63.4 -50 56.8 -50 50 C-46.7 50 -43.4 50 -40 50 C-40 40.1 -40 30.2 -40 20 C-36.7 20 -33.4 20 -30 20 C-30 16.7 -30 13.4 -30 10 C-20.1 10 -10.2 10 0 10 C0 6.7 0 3.4 0 0 Z " fill="#F98284" transform="translate(450,100)"/>
<path d="M0 0 C3.3 0 6.6 0 10 0 C10 6.6 10 13.2 10 20 C13.3 20 16.6 20 20 20 C20 33.2 20 46.4 20 60 C23.3 60 26.6 60 30 60 C30 93 30 126 30 160 C26.7 160 23.4 160 20 160 C20 156.7 20 153.4 20 150 C6.8 150 -6.4 150 -20 150 C-20 146.7 -20 143.4 -20 140 C-16.7 140 -13.4 140 -10 140 C-10 110.3 -10 80.6 -10 50 C-6.7 50 -3.4 50 0 50 C0 33.5 0 17 0 0 Z " fill="#DAEFEB" transform="translate(320,330)"/>
<path d="M0 0 C9.9 0 19.8 0 30 0 C30 3.3 30 6.6 30 10 C49.8 10 69.6 10 90 10 C90 13.3 90 16.6 90 20 C93.3 20 96.6 20 100 20 C100 23.3 100 26.6 100 30 C103.3 30 106.6 30 110 30 C110 33.3 110 36.6 110 40 C106.7 40 103.4 40 100 40 C100 43.3 100 46.6 100 50 C90.1 50 80.2 50 70 50 C70 46.7 70 43.4 70 40 C66.7 40 63.4 40 60 40 C60 36.7 60 33.4 60 30 C56.7 30 53.4 30 50 30 C50 26.7 50 23.4 50 20 C43.4 20 36.8 20 30 20 C30 23.3 30 26.6 30 30 C33.3 30 36.6 30 40 30 C40 39.9 40 49.8 40 60 C36.7 60 33.4 60 30 60 C30 63.3 30 66.6 30 70 C26.7 70 23.4 70 20 70 C20 66.7 20 63.4 20 60 C16.7 60 13.4 60 10 60 C10 53.4 10 46.8 10 40 C6.7 40 3.4 40 0 40 C0 33.4 0 26.8 0 20 C-9.9 20 -19.8 20 -30 20 C-30 16.7 -30 13.4 -30 10 C-20.1 10 -10.2 10 0 10 C0 6.7 0 3.4 0 0 Z " fill="#B0EB93" transform="translate(380,230)"/>
<path d="M0 0 C9.9 0 19.8 0 30 0 C30 3.3 30 6.6 30 10 C33.3 10 36.6 10 40 10 C40 13.3 40 16.6 40 20 C49.9 20 59.8 20 70 20 C70 13.4 70 6.8 70 0 C73.3 0 76.6 0 80 0 C80 6.6 80 13.2 80 20 C89.9 20 99.8 20 110 20 C110 26.6 110 33.2 110 40 C106.7 40 103.4 40 100 40 C100 36.7 100 33.4 100 30 C96.7 30 93.4 30 90 30 C90 36.6 90 43.2 90 50 C86.7 50 83.4 50 80 50 C80 43.4 80 36.8 80 30 C70.1 30 60.2 30 50 30 C50 33.3 50 36.6 50 40 C46.7 40 43.4 40 40 40 C40 43.3 40 46.6 40 50 C30.1 50 20.2 50 10 50 C10 46.7 10 43.4 10 40 C-3.2 40 -16.4 40 -30 40 C-30 36.7 -30 33.4 -30 30 C-33.3 30 -36.6 30 -40 30 C-40 26.7 -40 23.4 -40 20 C-33.4 20 -26.8 20 -20 20 C-20 16.7 -20 13.4 -20 10 C-13.4 10 -6.8 10 0 10 C0 6.7 0 3.4 0 0 Z " fill="#B0EB93" transform="translate(220,230)"/>
<path d="M0 0 C6.6 0 13.2 0 20 0 C20 36.3 20 72.6 20 110 C16.7 110 13.4 110 10 110 C10 129.8 10 149.6 10 170 C6.7 170 3.4 170 0 170 C0 166.7 0 163.4 0 160 C-3.3 160 -6.6 160 -10 160 C-10 150.1 -10 140.2 -10 130 C-6.7 130 -3.4 130 0 130 C0 87.1 0 44.2 0 0 Z " fill="#B0EB93" transform="translate(350,440)"/>
<path d="M0 0 C6.6 0 13.2 0 20 0 C20 16.5 20 33 20 50 C16.7 50 13.4 50 10 50 C10 53.3 10 56.6 10 60 C-3.2 60 -16.4 60 -30 60 C-30 53.4 -30 46.8 -30 40 C-26.7 40 -23.4 40 -20 40 C-20 30.1 -20 20.2 -20 10 C-13.4 10 -6.8 10 0 10 C0 6.7 0 3.4 0 0 Z " fill="#FFA4A6" transform="translate(300,140)"/>
<path d="M0 0 C3.3 0 6.6 0 10 0 C10 3.3 10 6.6 10 10 C16.6 10 23.2 10 30 10 C30 23.2 30 36.4 30 50 C26.7 50 23.4 50 20 50 C20 56.6 20 63.2 20 70 C10.1 70 0.2 70 -10 70 C-10 50.2 -10 30.4 -10 10 C-6.7 10 -3.4 10 0 10 C0 6.7 0 3.4 0 0 Z " fill="#FFA4A6" transform="translate(240,120)"/>
<path d="M0 0 C3.3 0 6.6 0 10 0 C10 72.6 10 145.2 10 220 C6.7 220 3.4 220 0 220 C0 147.4 0 74.8 0 0 Z " fill="#B3E3DA" transform="translate(400,340)"/>
<path d="M0 0 C3.3 0 6.6 0 10 0 C10 72.6 10 145.2 10 220 C6.7 220 3.4 220 0 220 C0 147.4 0 74.8 0 0 Z " fill="#B3E3DA" transform="translate(240,340)"/>
<path d="M0 0 C3.3 0 6.6 0 10 0 C10 3.3 10 6.6 10 10 C13.3 10 16.6 10 20 10 C20 13.3 20 16.6 20 20 C16.7 20 13.4 20 10 20 C10 23.3 10 26.6 10 30 C6.7 30 3.4 30 0 30 C0 33.3 0 36.6 0 40 C-9.9 40 -19.8 40 -30 40 C-30 43.3 -30 46.6 -30 50 C-36.6 50 -43.2 50 -50 50 C-50 46.7 -50 43.4 -50 40 C-46.7 40 -43.4 40 -40 40 C-40 33.4 -40 26.8 -40 20 C-36.7 20 -33.4 20 -30 20 C-30 16.7 -30 13.4 -30 10 C-20.1 10 -10.2 10 0 10 C0 6.7 0 3.4 0 0 Z " fill="#FFA4A6" transform="translate(460,110)"/>
<path d="M0 0 C6.6 0 13.2 0 20 0 C20 16.5 20 33 20 50 C16.7 50 13.4 50 10 50 C10 63.2 10 76.4 10 90 C6.7 90 3.4 90 0 90 C0 60.3 0 30.6 0 0 Z " fill="#B0EB93" transform="translate(290,530)"/>
<path d="M0 0 C6.6 0 13.2 0 20 0 C20 6.6 20 13.2 20 20 C13.4 20 6.8 20 0 20 C0 23.3 0 26.6 0 30 C-16.5 30 -33 30 -50 30 C-50 26.7 -50 23.4 -50 20 C-43.4 20 -36.8 20 -30 20 C-30 16.7 -30 13.4 -30 10 C-20.1 10 -10.2 10 0 10 C0 6.7 0 3.4 0 0 Z " fill="#FFA4A6" transform="translate(470,150)"/>
<path d="M0 0 C36.3 0 72.6 0 110 0 C110 3.3 110 6.6 110 10 C73.7 10 37.4 10 0 10 C0 6.7 0 3.4 0 0 Z " fill="#B3E3DA" transform="translate(270,630)"/>
<path d="M0 0 C3.3 0 6.6 0 10 0 C10 36.3 10 72.6 10 110 C6.7 110 3.4 110 0 110 C0 73.7 0 37.4 0 0 Z " fill="#87A889" transform="translate(360,440)"/>
<path d="M0 0 C6.6 0 13.2 0 20 0 C20 13.2 20 26.4 20 40 C16.7 40 13.4 40 10 40 C10 36.7 10 33.4 10 30 C6.7 30 3.4 30 0 30 C0 20.1 0 10.2 0 0 Z " fill="#B0EB93" transform="translate(340,570)"/>
<path d="M0 0 C3.3 0 6.6 0 10 0 C10 19.8 10 39.6 10 60 C6.7 60 3.4 60 0 60 C0 40.2 0 20.4 0 0 Z " fill="#87A889" transform="translate(290,470)"/>
<path d="M0 0 C9.9 0 19.8 0 30 0 C30 6.6 30 13.2 30 20 C26.7 20 23.4 20 20 20 C20 16.7 20 13.4 20 10 C16.7 10 13.4 10 10 10 C10 16.6 10 23.2 10 30 C6.7 30 3.4 30 0 30 C0 20.1 0 10.2 0 0 Z " fill="#9FCAC2" transform="translate(300,250)"/>
<path d="M0 0 C3.3 0 6.6 0 10 0 C10 6.6 10 13.2 10 20 C6.7 20 3.4 20 0 20 C0 23.3 0 26.6 0 30 C-9.9 30 -19.8 30 -30 30 C-30 26.7 -30 23.4 -30 20 C-23.4 20 -16.8 20 -10 20 C-10 16.7 -10 13.4 -10 10 C-6.7 10 -3.4 10 0 10 C0 6.7 0 3.4 0 0 Z " fill="#F98284" transform="translate(310,170)"/>
<path d="M0 0 C3.3 0 6.6 0 10 0 C10 16.5 10 33 10 50 C6.7 50 3.4 50 0 50 C0 33.5 0 17 0 0 Z " fill="#B3E3DA" transform="translate(390,560)"/>
<path d="M0 0 C3.3 0 6.6 0 10 0 C10 16.5 10 33 10 50 C6.7 50 3.4 50 0 50 C0 33.5 0 17 0 0 Z " fill="#B3E3DA" transform="translate(250,560)"/>
<path d="M0 0 C3.3 0 6.6 0 10 0 C10 16.5 10 33 10 50 C6.7 50 3.4 50 0 50 C0 33.5 0 17 0 0 Z " fill="#87A889" transform="translate(300,530)"/>
<path d="M0 0 C3.3 0 6.6 0 10 0 C10 16.5 10 33 10 50 C6.7 50 3.4 50 0 50 C0 33.5 0 17 0 0 Z " fill="#B0EB93" transform="translate(290,420)"/>
<path d="M0 0 C3.3 0 6.6 0 10 0 C10 16.5 10 33 10 50 C6.7 50 3.4 50 0 50 C0 33.5 0 17 0 0 Z " fill="#87A889" transform="translate(350,390)"/>
<path d="M0 0 C3.3 0 6.6 0 10 0 C10 16.5 10 33 10 50 C6.7 50 3.4 50 0 50 C0 33.5 0 17 0 0 Z " fill="#B0EB93" transform="translate(310,330)"/>
<path d="M0 0 C3.3 0 6.6 0 10 0 C10 16.5 10 33 10 50 C6.7 50 3.4 50 0 50 C0 33.5 0 17 0 0 Z " fill="#9FCAC2" transform="translate(340,230)"/>
<path d="M0 0 C3.3 0 6.6 0 10 0 C10 13.2 10 26.4 10 40 C6.7 40 3.4 40 0 40 C0 26.8 0 13.6 0 0 Z " fill="#87A889" transform="translate(310,580)"/>
<path d="M0 0 C3.3 0 6.6 0 10 0 C10 13.2 10 26.4 10 40 C6.7 40 3.4 40 0 40 C0 26.8 0 13.6 0 0 Z " fill="#B3E3DA" transform="translate(360,280)"/>
<path d="M0 0 C3.3 0 6.6 0 10 0 C10 13.2 10 26.4 10 40 C6.7 40 3.4 40 0 40 C0 26.8 0 13.6 0 0 Z " fill="#B3E3DA" transform="translate(280,280)"/>
<path d="M0 0 C3.3 0 6.6 0 10 0 C10 9.9 10 19.8 10 30 C6.7 30 3.4 30 0 30 C0 20.1 0 10.2 0 0 Z " fill="#87A889" transform="translate(340,570)"/>
<path d="M0 0 C3.3 0 6.6 0 10 0 C10 9.9 10 19.8 10 30 C6.7 30 3.4 30 0 30 C0 20.1 0 10.2 0 0 Z " fill="#B0EB93" transform="translate(340,320)"/>
<path d="M0 0 C6.6 0 13.2 0 20 0 C20 3.3 20 6.6 20 10 C16.7 10 13.4 10 10 10 C10 13.3 10 16.6 10 20 C6.7 20 3.4 20 0 20 C0 13.4 0 6.8 0 0 Z " fill="#B3E3DA" transform="translate(330,280)"/>
<path d="M0 0 C6.6 0 13.2 0 20 0 C20 6.6 20 13.2 20 20 C16.7 20 13.4 20 10 20 C10 16.7 10 13.4 10 10 C6.7 10 3.4 10 0 10 C0 6.7 0 3.4 0 0 Z " fill="#B3E3DA" transform="translate(310,250)"/>
<path d="M0 0 C3.3 0 6.6 0 10 0 C10 6.6 10 13.2 10 20 C6.7 20 3.4 20 0 20 C0 13.4 0 6.8 0 0 Z " fill="#B3E3DA" transform="translate(380,610)"/>
<path d="M0 0 C3.3 0 6.6 0 10 0 C10 6.6 10 13.2 10 20 C6.7 20 3.4 20 0 20 C0 13.4 0 6.8 0 0 Z " fill="#B3E3DA" transform="translate(260,610)"/>
<path d="M0 0 C3.3 0 6.6 0 10 0 C10 6.6 10 13.2 10 20 C6.7 20 3.4 20 0 20 C0 13.4 0 6.8 0 0 Z " fill="#87A889" transform="translate(330,600)"/>
<path d="M0 0 C3.3 0 6.6 0 10 0 C10 6.6 10 13.2 10 20 C6.7 20 3.4 20 0 20 C0 13.4 0 6.8 0 0 Z " fill="#87A889" transform="translate(350,550)"/>
<path d="M0 0 C3.3 0 6.6 0 10 0 C10 6.6 10 13.2 10 20 C6.7 20 3.4 20 0 20 C0 13.4 0 6.8 0 0 Z " fill="#B0EB93" transform="translate(350,370)"/>
<path d="M0 0 C6.6 0 13.2 0 20 0 C20 3.3 20 6.6 20 10 C13.4 10 6.8 10 0 10 C0 6.7 0 3.4 0 0 Z " fill="#B3E3DA" transform="translate(370,320)"/>
<path d="M0 0 C6.6 0 13.2 0 20 0 C20 3.3 20 6.6 20 10 C13.4 10 6.8 10 0 10 C0 6.7 0 3.4 0 0 Z " fill="#B3E3DA" transform="translate(260,320)"/>
<path d="M0 0 C3.3 0 6.6 0 10 0 C10 6.6 10 13.2 10 20 C6.7 20 3.4 20 0 20 C0 13.4 0 6.8 0 0 Z " fill="#B0EB93" transform="translate(320,310)"/>
<path d="M0 0 C6.6 0 13.2 0 20 0 C20 3.3 20 6.6 20 10 C13.4 10 6.8 10 0 10 C0 6.7 0 3.4 0 0 Z " fill="#B3E3DA" transform="translate(300,280)"/>
<path d="M0 0 C3.3 0 6.6 0 10 0 C10 6.6 10 13.2 10 20 C6.7 20 3.4 20 0 20 C0 13.4 0 6.8 0 0 Z " fill="#B3E3DA" transform="translate(350,260)"/>
<path d="M0 0 C3.3 0 6.6 0 10 0 C10 6.6 10 13.2 10 20 C6.7 20 3.4 20 0 20 C0 13.4 0 6.8 0 0 Z " fill="#B3E3DA" transform="translate(290,260)"/>
<path d="M0 0 C3.3 0 6.6 0 10 0 C10 6.6 10 13.2 10 20 C6.7 20 3.4 20 0 20 C0 13.4 0 6.8 0 0 Z " fill="#87A889" transform="translate(340,230)"/>
<path d="M0 0 C3.3 0 6.6 0 10 0 C10 6.6 10 13.2 10 20 C6.7 20 3.4 20 0 20 C0 13.4 0 6.8 0 0 Z " fill="#87A889" transform="translate(290,230)"/>
<path d="M0 0 C6.6 0 13.2 0 20 0 C20 3.3 20 6.6 20 10 C13.4 10 6.8 10 0 10 C0 6.7 0 3.4 0 0 Z " fill="#87A889" transform="translate(260,210)"/>
<path d="M0 0 C6.6 0 13.2 0 20 0 C20 3.3 20 6.6 20 10 C13.4 10 6.8 10 0 10 C0 6.7 0 3.4 0 0 Z " fill="#87A889" transform="translate(390,180)"/>
<path d="M0 0 C3.3 0 6.6 0 10 0 C10 6.6 10 13.2 10 20 C6.7 20 3.4 20 0 20 C0 13.4 0 6.8 0 0 Z " fill="#F98284" transform="translate(230,170)"/>
<path d="M0 0 C3.3 0 6.6 0 10 0 C10 3.3 10 6.6 10 10 C6.7 10 3.4 10 0 10 C0 6.7 0 3.4 0 0 Z " fill="#B3E3DA" transform="translate(390,330)"/>
<path d="M0 0 C3.3 0 6.6 0 10 0 C10 3.3 10 6.6 10 10 C6.7 10 3.4 10 0 10 C0 6.7 0 3.4 0 0 Z " fill="#B3E3DA" transform="translate(250,330)"/>
<path d="M0 0 C3.3 0 6.6 0 10 0 C10 3.3 10 6.6 10 10 C6.7 10 3.4 10 0 10 C0 6.7 0 3.4 0 0 Z " fill="#B0EB93" transform="translate(330,290)"/>
<path d="M0 0 C3.3 0 6.6 0 10 0 C10 3.3 10 6.6 10 10 C6.7 10 3.4 10 0 10 C0 6.7 0 3.4 0 0 Z " fill="#B0EB93" transform="translate(320,260)"/>
<path d="M0 0 C3.3 0 6.6 0 10 0 C10 3.3 10 6.6 10 10 C6.7 10 3.4 10 0 10 C0 6.7 0 3.4 0 0 Z " fill="#B0EB93" transform="translate(340,250)"/>
<path d="M0 0 C3.3 0 6.6 0 10 0 C10 3.3 10 6.6 10 10 C6.7 10 3.4 10 0 10 C0 6.7 0 3.4 0 0 Z " fill="#B0EB93" transform="translate(310,250)"/>
<path d="M0 0 C3.3 0 6.6 0 10 0 C10 3.3 10 6.6 10 10 C6.7 10 3.4 10 0 10 C0 6.7 0 3.4 0 0 Z " fill="#87A889" transform="translate(300,250)"/>
<path d="M0 0 C3.3 0 6.6 0 10 0 C10 3.3 10 6.6 10 10 C6.7 10 3.4 10 0 10 C0 6.7 0 3.4 0 0 Z " fill="#87A889" transform="translate(350,220)"/>
<path d="M0 0 C3.3 0 6.6 0 10 0 C10 3.3 10 6.6 10 10 C6.7 10 3.4 10 0 10 C0 6.7 0 3.4 0 0 Z " fill="#87A889" transform="translate(280,220)"/>
<path d="M0 0 C3.3 0 6.6 0 10 0 C10 3.3 10 6.6 10 10 C6.7 10 3.4 10 0 10 C0 6.7 0 3.4 0 0 Z " fill="#87A889" transform="translate(360,210)"/>
<path d="M0 0 C3.3 0 6.6 0 10 0 C10 3.3 10 6.6 10 10 C6.7 10 3.4 10 0 10 C0 6.7 0 3.4 0 0 Z " fill="#87A889" transform="translate(370,200)"/>
<path d="M0 0 C3.3 0 6.6 0 10 0 C10 3.3 10 6.6 10 10 C6.7 10 3.4 10 0 10 C0 6.7 0 3.4 0 0 Z " fill="#87A889" transform="translate(380,190)"/>
</svg>
