<?xml version="1.0" encoding="UTF-8"?>
<svg version="1.1" xmlns="http://www.w3.org/2000/svg" width="640" height="640">
<path d="M0 0 C39.6 0 79.2 0 120 0 C120 3.3 120 6.6 120 10 C123.3 10 126.6 10 130 10 C130 16.6 130 23.2 130 30 C133.3 30 136.6 30 140 30 C140 59.7 140 89.4 140 120 C136.7 120 133.4 120 130 120 C130 126.6 130 133.2 130 140 C126.7 140 123.4 140 120 140 C120 143.3 120 146.6 120 150 C80.4 150 40.8 150 0 150 C0 146.7 0 143.4 0 140 C-3.3 140 -6.6 140 -10 140 C-10 133.4 -10 126.8 -10 120 C-13.3 120 -16.6 120 -20 120 C-20 90.3 -20 60.6 -20 30 C-16.7 30 -13.4 30 -10 30 C-10 23.4 -10 16.8 -10 10 C-6.7 10 -3.4 10 0 10 C0 6.7 0 3.4 0 0 Z " fill="#FFC384" transform="translate(260,490)"/>
<path d="M0 0 C39.6 0 79.2 0 120 0 C120 3.3 120 6.6 120 10 C123.3 10 126.6 10 130 10 C130 16.6 130 23.2 130 30 C126.7 30 123.4 30 120 30 C120 33.3 120 36.6 120 40 C80.4 40 40.8 40 0 40 C0 36.7 0 33.4 0 30 C-3.3 30 -6.6 30 -10 30 C-10 23.4 -10 16.8 -10 10 C-6.7 10 -3.4 10 0 10 C0 6.7 0 3.4 0 0 Z " fill="#F7B875" transform="translate(260,490)"/>
<path d="M0 0 C33 0 66 0 100 0 C100 6.6 100 13.2 100 20 C67 20 34 20 0 20 C0 13.4 0 6.8 0 0 Z " fill="#DA9953" transform="translate(270,500)"/>
<path d="M0 0 C39.6 0 79.2 0 120 0 C120 3.3 120 6.6 120 10 C80.4 10 40.8 10 0 10 C0 6.7 0 3.4 0 0 Z " fill="#F7B875" transform="translate(260,630)"/>
<path d="M0 0 C3.3 0 6.6 0 10 0 C10 29.7 10 59.4 10 90 C6.7 90 3.4 90 0 90 C0 60.3 0 30.6 0 0 Z " fill="#F7B875" transform="translate(390,520)"/>
<path d="M0 0 C3.3 0 6.6 0 10 0 C10 29.7 10 59.4 10 90 C6.7 90 3.4 90 0 90 C0 60.3 0 30.6 0 0 Z " fill="#F7B875" transform="translate(240,520)"/>
<path d="M0 0 C3.3 0 6.6 0 10 0 C10 6.6 10 13.2 10 20 C6.7 20 3.4 20 0 20 C0 13.4 0 6.8 0 0 Z " fill="#F7B875" transform="translate(380,610)"/>
<path d="M0 0 C3.3 0 6.6 0 10 0 C10 6.6 10 13.2 10 20 C6.7 20 3.4 20 0 20 C0 13.4 0 6.8 0 0 Z " fill="#F7B875" transform="translate(250,610)"/>
</svg>
