<?xml version="1.0" encoding="UTF-8"?>
<svg version="1.1" xmlns="http://www.w3.org/2000/svg" width="640" height="640">
<path d="M0 0 C3.3 0 6.6 0 10 0 C10 9.9 10 19.8 10 30 C13.3 30 16.6 30 20 30 C20 23.4 20 16.8 20 10 C23.3 10 26.6 10 30 10 C30 23.2 30 36.4 30 50 C33.3 50 36.6 50 40 50 C40 56.6 40 63.2 40 70 C43.3 70 46.6 70 50 70 C50 76.6 50 83.2 50 90 C56.6 90 63.2 90 70 90 C70 93.3 70 96.6 70 100 C73.3 100 76.6 100 80 100 C80 106.6 80 113.2 80 120 C83.3 120 86.6 120 90 120 C90 149.7 90 179.4 90 210 C86.7 210 83.4 210 80 210 C80 216.6 80 223.2 80 230 C76.7 230 73.4 230 70 230 C70 233.3 70 236.6 70 240 C30.4 240 -9.2 240 -50 240 C-50 236.7 -50 233.4 -50 230 C-53.3 230 -56.6 230 -60 230 C-60 223.4 -60 216.8 -60 210 C-63.3 210 -66.6 210 -70 210 C-70 180.3 -70 150.6 -70 120 C-66.7 120 -63.4 120 -60 120 C-60 113.4 -60 106.8 -60 100 C-56.7 100 -53.4 100 -50 100 C-50 96.7 -50 93.4 -50 90 C-43.4 90 -36.8 90 -30 90 C-30 86.7 -30 83.4 -30 80 C-36.6 80 -43.2 80 -50 80 C-50 76.7 -50 73.4 -50 70 C-56.6 70 -63.2 70 -70 70 C-70 73.3 -70 76.6 -70 80 C-79.9 80 -89.8 80 -100 80 C-100 76.7 -100 73.4 -100 70 C-106.6 70 -113.2 70 -120 70 C-120 66.7 -120 63.4 -120 60 C-116.7 60 -113.4 60 -110 60 C-110 56.7 -110 53.4 -110 50 C-100.1 50 -90.2 50 -80 50 C-80 53.3 -80 56.6 -80 60 C-66.8 60 -53.6 60 -40 60 C-40 63.3 -40 66.6 -40 70 C-33.4 70 -26.8 70 -20 70 C-20 73.3 -20 76.6 -20 80 C-16.7 80 -13.4 80 -10 80 C-10 76.7 -10 73.4 -10 70 C-6.7 70 -3.4 70 0 70 C0 76.6 0 83.2 0 90 C3.3 90 6.6 90 10 90 C10 73.5 10 57 10 40 C6.7 40 3.4 40 0 40 C0 26.8 0 13.6 0 0 Z M20 60 C20 63.3 20 66.6 20 70 C23.3 70 26.6 70 30 70 C30 66.7 30 63.4 30 60 C26.7 60 23.4 60 20 60 Z M30 70 C30 73.3 30 76.6 30 80 C33.3 80 36.6 80 40 80 C40 76.7 40 73.4 40 70 C36.7 70 33.4 70 30 70 Z " fill="#FFC384" transform="translate(310,400)"/>
<path d="M0 0 C3.3 0 6.6 0 10 0 C10 9.9 10 19.8 10 30 C13.3 30 16.6 30 20 30 C20 23.4 20 16.8 20 10 C23.3 10 26.6 10 30 10 C30 23.2 30 36.4 30 50 C33.3 50 36.6 50 40 50 C40 56.6 40 63.2 40 70 C43.3 70 46.6 70 50 70 C50 76.6 50 83.2 50 90 C46.7 90 43.4 90 40 90 C40 96.6 40 103.2 40 110 C36.7 110 33.4 110 30 110 C30 113.3 30 116.6 30 120 C16.8 120 3.6 120 -10 120 C-10 113.4 -10 106.8 -10 100 C-13.3 100 -16.6 100 -20 100 C-20 96.7 -20 93.4 -20 90 C-23.3 90 -26.6 90 -30 90 C-30 86.7 -30 83.4 -30 80 C-36.6 80 -43.2 80 -50 80 C-50 76.7 -50 73.4 -50 70 C-56.6 70 -63.2 70 -70 70 C-70 73.3 -70 76.6 -70 80 C-79.9 80 -89.8 80 -100 80 C-100 76.7 -100 73.4 -100 70 C-106.6 70 -113.2 70 -120 70 C-120 66.7 -120 63.4 -120 60 C-116.7 60 -113.4 60 -110 60 C-110 56.7 -110 53.4 -110 50 C-100.1 50 -90.2 50 -80 50 C-80 53.3 -80 56.6 -80 60 C-66.8 60 -53.6 60 -40 60 C-40 63.3 -40 66.6 -40 70 C-33.4 70 -26.8 70 -20 70 C-20 73.3 -20 76.6 -20 80 C-16.7 80 -13.4 80 -10 80 C-10 76.7 -10 73.4 -10 70 C-6.7 70 -3.4 70 0 70 C0 76.6 0 83.2 0 90 C3.3 90 6.6 90 10 90 C10 73.5 10 57 10 40 C6.7 40 3.4 40 0 40 C0 26.8 0 13.6 0 0 Z M20 60 C20 63.3 20 66.6 20 70 C23.3 70 26.6 70 30 70 C30 66.7 30 63.4 30 60 C26.7 60 23.4 60 20 60 Z M30 70 C30 73.3 30 76.6 30 80 C33.3 80 36.6 80 40 80 C40 76.7 40 73.4 40 70 C36.7 70 33.4 70 30 70 Z " fill="#87A889" transform="translate(310,400)"/>
<path d="M0 0 C3.3 0 6.6 0 10 0 C10 9.9 10 19.8 10 30 C6.7 30 3.4 30 0 30 C0 36.6 0 43.2 0 50 C-3.3 50 -6.6 50 -10 50 C-10 56.6 -10 63.2 -10 70 C-13.3 70 -16.6 70 -20 70 C-20 83.2 -20 96.4 -20 110 C-16.7 110 -13.4 110 -10 110 C-10 113.3 -10 116.6 -10 120 C-6.7 120 -3.4 120 0 120 C0 116.7 0 113.4 0 110 C3.3 110 6.6 110 10 110 C10 106.7 10 103.4 10 100 C13.3 100 16.6 100 20 100 C20 109.9 20 119.8 20 130 C16.7 130 13.4 130 10 130 C10 136.6 10 143.2 10 150 C6.7 150 3.4 150 0 150 C0 153.3 0 156.6 0 160 C-3.3 160 -6.6 160 -10 160 C-10 153.4 -10 146.8 -10 140 C-19.9 140 -29.8 140 -40 140 C-40 136.7 -40 133.4 -40 130 C-43.3 130 -46.6 130 -50 130 C-50 126.7 -50 123.4 -50 120 C-53.3 120 -56.6 120 -60 120 C-60 116.7 -60 113.4 -60 110 C-50.1 110 -40.2 110 -30 110 C-30 106.7 -30 103.4 -30 100 C-33.3 100 -36.6 100 -40 100 C-40 93.4 -40 86.8 -40 80 C-43.3 80 -46.6 80 -50 80 C-50 76.7 -50 73.4 -50 70 C-53.3 70 -56.6 70 -60 70 C-60 73.3 -60 76.6 -60 80 C-69.9 80 -79.8 80 -90 80 C-90 76.7 -90 73.4 -90 70 C-93.3 70 -96.6 70 -100 70 C-100 66.7 -100 63.4 -100 60 C-96.7 60 -93.4 60 -90 60 C-90 56.7 -90 53.4 -90 50 C-80.1 50 -70.2 50 -60 50 C-60 53.3 -60 56.6 -60 60 C-53.4 60 -46.8 60 -40 60 C-40 63.3 -40 66.6 -40 70 C-36.7 70 -33.4 70 -30 70 C-30 66.7 -30 63.4 -30 60 C-26.7 60 -23.4 60 -20 60 C-20 46.8 -20 33.6 -20 20 C-16.7 20 -13.4 20 -10 20 C-10 16.7 -10 13.4 -10 10 C-6.7 10 -3.4 10 0 10 C0 6.7 0 3.4 0 0 Z " fill="#87A889" transform="translate(310,240)"/>
<path d="M0 0 C3.3 0 6.6 0 10 0 C10 3.3 10 6.6 10 10 C13.3 10 16.6 10 20 10 C20 26.5 20 43 20 60 C23.3 60 26.6 60 30 60 C30 69.9 30 79.8 30 90 C33.3 90 36.6 90 40 90 C40 106.5 40 123 40 140 C43.3 140 46.6 140 50 140 C50 146.6 50 153.2 50 160 C46.7 160 43.4 160 40 160 C40 166.6 40 173.2 40 180 C43.3 180 46.6 180 50 180 C50 176.7 50 173.4 50 170 C53.3 170 56.6 170 60 170 C60 176.6 60 183.2 60 190 C56.7 190 53.4 190 50 190 C50 193.3 50 196.6 50 200 C46.7 200 43.4 200 40 200 C40 203.3 40 206.6 40 210 C33.4 210 26.8 210 20 210 C20 216.6 20 223.2 20 230 C16.7 230 13.4 230 10 230 C10 220.1 10 210.2 10 200 C13.3 200 16.6 200 20 200 C20 193.4 20 186.8 20 180 C23.3 180 26.6 180 30 180 C30 173.4 30 166.8 30 160 C26.7 160 23.4 160 20 160 C20 156.7 20 153.4 20 150 C16.7 150 13.4 150 10 150 C10 143.4 10 136.8 10 130 C6.7 130 3.4 130 0 130 C0 123.4 0 116.8 0 110 C3.3 110 6.6 110 10 110 C10 113.3 10 116.6 10 120 C13.3 120 16.6 120 20 120 C20 123.3 20 126.6 20 130 C23.3 130 26.6 130 30 130 C30 120.1 30 110.2 30 100 C26.7 100 23.4 100 20 100 C20 90.1 20 80.2 20 70 C16.7 70 13.4 70 10 70 C10 63.4 10 56.8 10 50 C6.7 50 3.4 50 0 50 C0 46.7 0 43.4 0 40 C-3.3 40 -6.6 40 -10 40 C-10 33.4 -10 26.8 -10 20 C-6.7 20 -3.4 20 0 20 C0 13.4 0 6.8 0 0 Z " fill="#87A889" transform="translate(330,180)"/>
<path d="M0 0 C9.9 0 19.8 0 30 0 C30 3.3 30 6.6 30 10 C33.3 10 36.6 10 40 10 C40 16.6 40 23.2 40 30 C53.2 30 66.4 30 80 30 C80 26.7 80 23.4 80 20 C83.3 20 86.6 20 90 20 C90 13.4 90 6.8 90 0 C99.9 0 109.8 0 120 0 C120 3.3 120 6.6 120 10 C123.3 10 126.6 10 130 10 C130 16.6 130 23.2 130 30 C126.7 30 123.4 30 120 30 C120 33.3 120 36.6 120 40 C80.4 40 40.8 40 0 40 C0 36.7 0 33.4 0 30 C-3.3 30 -6.6 30 -10 30 C-10 23.4 -10 16.8 -10 10 C-6.7 10 -3.4 10 0 10 C0 6.7 0 3.4 0 0 Z " fill="#F7B875" transform="translate(260,490)"/>
<path d="M0 0 C6.6 0 13.2 0 20 0 C20 3.3 20 6.6 20 10 C23.3 10 26.6 10 30 10 C30 13.3 30 16.6 30 20 C36.6 20 43.2 20 50 20 C50 23.3 50 26.6 50 30 C56.6 30 63.2 30 70 30 C70 26.7 70 23.4 70 20 C73.3 20 76.6 20 80 20 C80 26.6 80 33.2 80 40 C83.3 40 86.6 40 90 40 C90 56.5 90 73 90 90 C86.7 90 83.4 90 80 90 C80 83.4 80 76.8 80 70 C76.7 70 73.4 70 70 70 C70 66.7 70 63.4 70 60 C66.7 60 63.4 60 60 60 C60 56.7 60 53.4 60 50 C56.7 50 53.4 50 50 50 C50 46.7 50 43.4 50 40 C46.7 40 43.4 40 40 40 C40 36.7 40 33.4 40 30 C23.5 30 7 30 -10 30 C-10 26.7 -10 23.4 -10 20 C-13.3 20 -16.6 20 -20 20 C-20 16.7 -20 13.4 -20 10 C-13.4 10 -6.8 10 0 10 C0 6.7 0 3.4 0 0 Z " fill="#B0EB93" transform="translate(210,380)"/>
<path d="M0 0 C9.9 0 19.8 0 30 0 C30 3.3 30 6.6 30 10 C33.3 10 36.6 10 40 10 C40 13.3 40 16.6 40 20 C33.4 20 26.8 20 20 20 C20 23.3 20 26.6 20 30 C6.8 30 -6.4 30 -20 30 C-20 33.3 -20 36.6 -20 40 C-23.3 40 -26.6 40 -30 40 C-30 43.3 -30 46.6 -30 50 C-33.3 50 -36.6 50 -40 50 C-40 53.3 -40 56.6 -40 60 C-43.3 60 -46.6 60 -50 60 C-50 63.3 -50 66.6 -50 70 C-53.3 70 -56.6 70 -60 70 C-60 76.6 -60 83.2 -60 90 C-63.3 90 -66.6 90 -70 90 C-70 93.3 -70 96.6 -70 100 C-73.3 100 -76.6 100 -80 100 C-80 93.4 -80 86.8 -80 80 C-76.7 80 -73.4 80 -70 80 C-70 73.4 -70 66.8 -70 60 C-66.7 60 -63.4 60 -60 60 C-60 56.7 -60 53.4 -60 50 C-56.7 50 -53.4 50 -50 50 C-50 46.7 -50 43.4 -50 40 C-46.7 40 -43.4 40 -40 40 C-40 36.7 -40 33.4 -40 30 C-36.7 30 -33.4 30 -30 30 C-30 26.7 -30 23.4 -30 20 C-26.7 20 -23.4 20 -20 20 C-20 16.7 -20 13.4 -20 10 C-13.4 10 -6.8 10 0 10 C0 6.7 0 3.4 0 0 Z " fill="#87A889" transform="translate(430,350)"/>
<path d="M0 0 C13.2 0 26.4 0 40 0 C40 3.3 40 6.6 40 10 C36.7 10 33.4 10 30 10 C30 13.3 30 16.6 30 20 C26.7 20 23.4 20 20 20 C20 23.3 20 26.6 20 30 C6.8 30 -6.4 30 -20 30 C-20 33.3 -20 36.6 -20 40 C-23.3 40 -26.6 40 -30 40 C-30 43.3 -30 46.6 -30 50 C-36.6 50 -43.2 50 -50 50 C-50 46.7 -50 43.4 -50 40 C-46.7 40 -43.4 40 -40 40 C-40 36.7 -40 33.4 -40 30 C-36.7 30 -33.4 30 -30 30 C-30 26.7 -30 23.4 -30 20 C-23.4 20 -16.8 20 -10 20 C-10 16.7 -10 13.4 -10 10 C-6.7 10 -3.4 10 0 10 C0 6.7 0 3.4 0 0 Z " fill="#B0EB93" transform="translate(410,420)"/>
<path d="M0 0 C6.6 0 13.2 0 20 0 C20 6.6 20 13.2 20 20 C16.7 20 13.4 20 10 20 C10 26.6 10 33.2 10 40 C3.4 40 -3.2 40 -10 40 C-10 46.6 -10 53.2 -10 60 C-13.3 60 -16.6 60 -20 60 C-20 63.3 -20 66.6 -20 70 C-23.3 70 -26.6 70 -30 70 C-30 63.4 -30 56.8 -30 50 C-26.7 50 -23.4 50 -20 50 C-20 43.4 -20 36.8 -20 30 C-16.7 30 -13.4 30 -10 30 C-10 23.4 -10 16.8 -10 10 C-6.7 10 -3.4 10 0 10 C0 6.7 0 3.4 0 0 Z " fill="#B0EB93" transform="translate(410,250)"/>
<path d="M0 0 C39.6 0 79.2 0 120 0 C120 3.3 120 6.6 120 10 C80.4 10 40.8 10 0 10 C0 6.7 0 3.4 0 0 Z " fill="#F7B875" transform="translate(260,630)"/>
<path d="M0 0 C6.6 0 13.2 0 20 0 C20 3.3 20 6.6 20 10 C23.3 10 26.6 10 30 10 C30 16.6 30 23.2 30 30 C16.8 30 3.6 30 -10 30 C-10 26.7 -10 23.4 -10 20 C-13.3 20 -16.6 20 -20 20 C-20 16.7 -20 13.4 -20 10 C-13.4 10 -6.8 10 0 10 C0 6.7 0 3.4 0 0 Z " fill="#B0EB93" transform="translate(210,380)"/>
<path d="M0 0 C9.9 0 19.8 0 30 0 C30 3.3 30 6.6 30 10 C33.3 10 36.6 10 40 10 C40 13.3 40 16.6 40 20 C33.4 20 26.8 20 20 20 C20 23.3 20 26.6 20 30 C13.4 30 6.8 30 0 30 C0 26.7 0 23.4 0 20 C-6.6 20 -13.2 20 -20 20 C-20 16.7 -20 13.4 -20 10 C-13.4 10 -6.8 10 0 10 C0 6.7 0 3.4 0 0 Z " fill="#B0EB93" transform="translate(430,350)"/>
<path d="M0 0 C3.3 0 6.6 0 10 0 C10 29.7 10 59.4 10 90 C6.7 90 3.4 90 0 90 C0 60.3 0 30.6 0 0 Z " fill="#F7B875" transform="translate(390,520)"/>
<path d="M0 0 C3.3 0 6.6 0 10 0 C10 29.7 10 59.4 10 90 C6.7 90 3.4 90 0 90 C0 60.3 0 30.6 0 0 Z " fill="#F7B875" transform="translate(240,520)"/>
<path d="M0 0 C9.9 0 19.8 0 30 0 C30 3.3 30 6.6 30 10 C26.7 10 23.4 10 20 10 C20 13.3 20 16.6 20 20 C26.6 20 33.2 20 40 20 C40 23.3 40 26.6 40 30 C30.1 30 20.2 30 10 30 C10 26.7 10 23.4 10 20 C3.4 20 -3.2 20 -10 20 C-10 16.7 -10 13.4 -10 10 C-6.7 10 -3.4 10 0 10 C0 6.7 0 3.4 0 0 Z " fill="#B0EB93" transform="translate(200,450)"/>
<path d="M0 0 C6.6 0 13.2 0 20 0 C20 3.3 20 6.6 20 10 C23.3 10 26.6 10 30 10 C30 13.3 30 16.6 30 20 C33.3 20 36.6 20 40 20 C40 23.3 40 26.6 40 30 C43.3 30 46.6 30 50 30 C50 36.6 50 43.2 50 50 C46.7 50 43.4 50 40 50 C40 46.7 40 43.4 40 40 C36.7 40 33.4 40 30 40 C30 36.7 30 33.4 30 30 C26.7 30 23.4 30 20 30 C20 26.7 20 23.4 20 20 C16.7 20 13.4 20 10 20 C10 16.7 10 13.4 10 10 C6.7 10 3.4 10 0 10 C0 6.7 0 3.4 0 0 Z " fill="#87A889" transform="translate(240,400)"/>
<path d="M0 0 C9.9 0 19.8 0 30 0 C30 3.3 30 6.6 30 10 C26.7 10 23.4 10 20 10 C20 13.3 20 16.6 20 20 C23.3 20 26.6 20 30 20 C30 23.3 30 26.6 30 30 C20.1 30 10.2 30 0 30 C0 26.7 0 23.4 0 20 C-3.3 20 -6.6 20 -10 20 C-10 16.7 -10 13.4 -10 10 C-6.7 10 -3.4 10 0 10 C0 6.7 0 3.4 0 0 Z " fill="#B0EB93" transform="translate(220,290)"/>
<path d="M0 0 C13.2 0 26.4 0 40 0 C40 3.3 40 6.6 40 10 C30.1 10 20.2 10 10 10 C10 13.3 10 16.6 10 20 C6.7 20 3.4 20 0 20 C0 23.3 0 26.6 0 30 C-6.6 30 -13.2 30 -20 30 C-20 26.7 -20 23.4 -20 20 C-16.7 20 -13.4 20 -10 20 C-10 16.7 -10 13.4 -10 10 C-6.7 10 -3.4 10 0 10 C0 6.7 0 3.4 0 0 Z " fill="#87A889" transform="translate(380,440)"/>
<path d="M0 0 C9.9 0 19.8 0 30 0 C30 3.3 30 6.6 30 10 C33.3 10 36.6 10 40 10 C40 16.6 40 23.2 40 30 C33.4 30 26.8 30 20 30 C20 26.7 20 23.4 20 20 C16.7 20 13.4 20 10 20 C10 16.7 10 13.4 10 10 C6.7 10 3.4 10 0 10 C0 6.7 0 3.4 0 0 Z " fill="#B0EB93" transform="translate(250,350)"/>
<path d="M0 0 C3.3 0 6.6 0 10 0 C10 9.9 10 19.8 10 30 C6.7 30 3.4 30 0 30 C0 36.6 0 43.2 0 50 C-3.3 50 -6.6 50 -10 50 C-10 43.4 -10 36.8 -10 30 C-13.3 30 -16.6 30 -20 30 C-20 26.7 -20 23.4 -20 20 C-16.7 20 -13.4 20 -10 20 C-10 16.7 -10 13.4 -10 10 C-6.7 10 -3.4 10 0 10 C0 6.7 0 3.4 0 0 Z " fill="#B0EB93" transform="translate(320,340)"/>
<path d="M0 0 C3.3 0 6.6 0 10 0 C10 9.9 10 19.8 10 30 C6.7 30 3.4 30 0 30 C0 36.6 0 43.2 0 50 C-3.3 50 -6.6 50 -10 50 C-10 43.4 -10 36.8 -10 30 C-13.3 30 -16.6 30 -20 30 C-20 26.7 -20 23.4 -20 20 C-16.7 20 -13.4 20 -10 20 C-10 16.7 -10 13.4 -10 10 C-6.7 10 -3.4 10 0 10 C0 6.7 0 3.4 0 0 Z " fill="#B0EB93" transform="translate(310,240)"/>
<path d="M0 0 C3.3 0 6.6 0 10 0 C10 3.3 10 6.6 10 10 C13.3 10 16.6 10 20 10 C20 19.9 20 29.8 20 40 C16.7 40 13.4 40 10 40 C10 36.7 10 33.4 10 30 C6.7 30 3.4 30 0 30 C0 33.3 0 36.6 0 40 C-3.3 40 -6.6 40 -10 40 C-10 33.4 -10 26.8 -10 20 C-6.7 20 -3.4 20 0 20 C0 13.4 0 6.8 0 0 Z " fill="#B0EB93" transform="translate(330,180)"/>
<path d="M0 0 C9.9 0 19.8 0 30 0 C30 6.6 30 13.2 30 20 C20.1 20 10.2 20 0 20 C0 13.4 0 6.8 0 0 Z " fill="#DA9953" transform="translate(270,500)"/>
<path d="M0 0 C3.3 0 6.6 0 10 0 C10 6.6 10 13.2 10 20 C6.7 20 3.4 20 0 20 C0 23.3 0 26.6 0 30 C-3.3 30 -6.6 30 -10 30 C-10 33.3 -10 36.6 -10 40 C-13.3 40 -16.6 40 -20 40 C-20 33.4 -20 26.8 -20 20 C-16.7 20 -13.4 20 -10 20 C-10 16.7 -10 13.4 -10 10 C-6.7 10 -3.4 10 0 10 C0 6.7 0 3.4 0 0 Z " fill="#B0EB93" transform="translate(380,350)"/>
<path d="M0 0 C3.3 0 6.6 0 10 0 C10 3.3 10 6.6 10 10 C13.3 10 16.6 10 20 10 C20 13.3 20 16.6 20 20 C23.3 20 26.6 20 30 20 C30 23.3 30 26.6 30 30 C26.7 30 23.4 30 20 30 C20 33.3 20 36.6 20 40 C16.7 40 13.4 40 10 40 C10 33.4 10 26.8 10 20 C6.7 20 3.4 20 0 20 C0 13.4 0 6.8 0 0 Z " fill="#B0EB93" transform="translate(330,290)"/>
<path d="M0 0 C6.6 0 13.2 0 20 0 C20 6.6 20 13.2 20 20 C10.1 20 0.2 20 -10 20 C-10 16.7 -10 13.4 -10 10 C-6.7 10 -3.4 10 0 10 C0 6.7 0 3.4 0 0 Z " fill="#DA9953" transform="translate(350,500)"/>
<path d="M0 0 C3.3 0 6.6 0 10 0 C10 9.9 10 19.8 10 30 C6.7 30 3.4 30 0 30 C0 26.7 0 23.4 0 20 C-3.3 20 -6.6 20 -10 20 C-10 16.7 -10 13.4 -10 10 C-6.7 10 -3.4 10 0 10 C0 6.7 0 3.4 0 0 Z " fill="#B0EB93" transform="translate(280,400)"/>
<path d="M0 0 C3.3 0 6.6 0 10 0 C10 3.3 10 6.6 10 10 C13.3 10 16.6 10 20 10 C20 16.6 20 23.2 20 30 C16.7 30 13.4 30 10 30 C10 26.7 10 23.4 10 20 C6.7 20 3.4 20 0 20 C0 13.4 0 6.8 0 0 Z " fill="#E9F59D" transform="translate(220,380)"/>
<path d="M0 0 C3.3 0 6.6 0 10 0 C10 6.6 10 13.2 10 20 C6.7 20 3.4 20 0 20 C0 23.3 0 26.6 0 30 C-3.3 30 -6.6 30 -10 30 C-10 23.4 -10 16.8 -10 10 C-6.7 10 -3.4 10 0 10 C0 6.7 0 3.4 0 0 Z " fill="#87A889" transform="translate(390,290)"/>
<path d="M0 0 C6.6 0 13.2 0 20 0 C20 3.3 20 6.6 20 10 C16.7 10 13.4 10 10 10 C10 13.3 10 16.6 10 20 C6.7 20 3.4 20 0 20 C0 13.4 0 6.8 0 0 Z " fill="#E9F59D" transform="translate(320,200)"/>
<path d="M0 0 C3.3 0 6.6 0 10 0 C10 6.6 10 13.2 10 20 C6.7 20 3.4 20 0 20 C0 13.4 0 6.8 0 0 Z " fill="#F7B875" transform="translate(380,610)"/>
<path d="M0 0 C3.3 0 6.6 0 10 0 C10 6.6 10 13.2 10 20 C6.7 20 3.4 20 0 20 C0 13.4 0 6.8 0 0 Z " fill="#F7B875" transform="translate(250,610)"/>
<path d="M0 0 C6.6 0 13.2 0 20 0 C20 3.3 20 6.6 20 10 C13.4 10 6.8 10 0 10 C0 6.7 0 3.4 0 0 Z " fill="#E9F59D" transform="translate(220,470)"/>
<path d="M0 0 C3.3 0 6.6 0 10 0 C10 6.6 10 13.2 10 20 C6.7 20 3.4 20 0 20 C0 13.4 0 6.8 0 0 Z " fill="#87A889" transform="translate(290,450)"/>
<path d="M0 0 C6.6 0 13.2 0 20 0 C20 3.3 20 6.6 20 10 C13.4 10 6.8 10 0 10 C0 6.7 0 3.4 0 0 Z " fill="#E9F59D" transform="translate(400,430)"/>
<path d="M0 0 C3.3 0 6.6 0 10 0 C10 6.6 10 13.2 10 20 C6.7 20 3.4 20 0 20 C0 13.4 0 6.8 0 0 Z " fill="#E9F59D" transform="translate(360,370)"/>
<path d="M0 0 C3.3 0 6.6 0 10 0 C10 6.6 10 13.2 10 20 C6.7 20 3.4 20 0 20 C0 13.4 0 6.8 0 0 Z " fill="#E9F59D" transform="translate(310,370)"/>
<path d="M0 0 C6.6 0 13.2 0 20 0 C20 3.3 20 6.6 20 10 C13.4 10 6.8 10 0 10 C0 6.7 0 3.4 0 0 Z " fill="#E9F59D" transform="translate(410,360)"/>
<path d="M0 0 C6.6 0 13.2 0 20 0 C20 3.3 20 6.6 20 10 C13.4 10 6.8 10 0 10 C0 6.7 0 3.4 0 0 Z " fill="#87A889" transform="translate(390,280)"/>
<path d="M0 0 C3.3 0 6.6 0 10 0 C10 6.6 10 13.2 10 20 C6.7 20 3.4 20 0 20 C0 13.4 0 6.8 0 0 Z " fill="#E9F59D" transform="translate(300,270)"/>
<path d="M0 0 C3.3 0 6.6 0 10 0 C10 3.3 10 6.6 10 10 C6.7 10 3.4 10 0 10 C0 6.7 0 3.4 0 0 Z " fill="#F7B875" transform="translate(310,490)"/>
<path d="M0 0 C3.3 0 6.6 0 10 0 C10 3.3 10 6.6 10 10 C6.7 10 3.4 10 0 10 C0 6.7 0 3.4 0 0 Z " fill="#B0EB93" transform="translate(210,470)"/>
<path d="M0 0 C3.3 0 6.6 0 10 0 C10 3.3 10 6.6 10 10 C6.7 10 3.4 10 0 10 C0 6.7 0 3.4 0 0 Z " fill="#E9F59D" transform="translate(210,460)"/>
<path d="M0 0 C3.3 0 6.6 0 10 0 C10 3.3 10 6.6 10 10 C6.7 10 3.4 10 0 10 C0 6.7 0 3.4 0 0 Z " fill="#E9F59D" transform="translate(220,450)"/>
<path d="M0 0 C3.3 0 6.6 0 10 0 C10 3.3 10 6.6 10 10 C6.7 10 3.4 10 0 10 C0 6.7 0 3.4 0 0 Z " fill="#E9F59D" transform="translate(420,440)"/>
<path d="M0 0 C3.3 0 6.6 0 10 0 C10 3.3 10 6.6 10 10 C6.7 10 3.4 10 0 10 C0 6.7 0 3.4 0 0 Z " fill="#E9F59D" transform="translate(290,440)"/>
<path d="M0 0 C3.3 0 6.6 0 10 0 C10 3.3 10 6.6 10 10 C6.7 10 3.4 10 0 10 C0 6.7 0 3.4 0 0 Z " fill="#E9F59D" transform="translate(280,420)"/>
<path d="M0 0 C3.3 0 6.6 0 10 0 C10 3.3 10 6.6 10 10 C6.7 10 3.4 10 0 10 C0 6.7 0 3.4 0 0 Z " fill="#E9F59D" transform="translate(230,400)"/>
<path d="M0 0 C3.3 0 6.6 0 10 0 C10 3.3 10 6.6 10 10 C6.7 10 3.4 10 0 10 C0 6.7 0 3.4 0 0 Z " fill="#87A889" transform="translate(230,390)"/>
<path d="M0 0 C3.3 0 6.6 0 10 0 C10 3.3 10 6.6 10 10 C6.7 10 3.4 10 0 10 C0 6.7 0 3.4 0 0 Z " fill="#E9F59D" transform="translate(430,370)"/>
<path d="M0 0 C3.3 0 6.6 0 10 0 C10 3.3 10 6.6 10 10 C6.7 10 3.4 10 0 10 C0 6.7 0 3.4 0 0 Z " fill="#E9F59D" transform="translate(320,360)"/>
<path d="M0 0 C3.3 0 6.6 0 10 0 C10 3.3 10 6.6 10 10 C6.7 10 3.4 10 0 10 C0 6.7 0 3.4 0 0 Z " fill="#E9F59D" transform="translate(280,360)"/>
<path d="M0 0 C3.3 0 6.6 0 10 0 C10 3.3 10 6.6 10 10 C6.7 10 3.4 10 0 10 C0 6.7 0 3.4 0 0 Z " fill="#E9F59D" transform="translate(270,350)"/>
<path d="M0 0 C3.3 0 6.6 0 10 0 C10 3.3 10 6.6 10 10 C6.7 10 3.4 10 0 10 C0 6.7 0 3.4 0 0 Z " fill="#E9F59D" transform="translate(350,330)"/>
<path d="M0 0 C3.3 0 6.6 0 10 0 C10 3.3 10 6.6 10 10 C6.7 10 3.4 10 0 10 C0 6.7 0 3.4 0 0 Z " fill="#E9F59D" transform="translate(340,320)"/>
<path d="M0 0 C3.3 0 6.6 0 10 0 C10 3.3 10 6.6 10 10 C6.7 10 3.4 10 0 10 C0 6.7 0 3.4 0 0 Z " fill="#E9F59D" transform="translate(240,310)"/>
<path d="M0 0 C3.3 0 6.6 0 10 0 C10 3.3 10 6.6 10 10 C6.7 10 3.4 10 0 10 C0 6.7 0 3.4 0 0 Z " fill="#E9F59D" transform="translate(230,300)"/>
<path d="M0 0 C3.3 0 6.6 0 10 0 C10 3.3 10 6.6 10 10 C6.7 10 3.4 10 0 10 C0 6.7 0 3.4 0 0 Z " fill="#E9F59D" transform="translate(240,290)"/>
<path d="M0 0 C3.3 0 6.6 0 10 0 C10 3.3 10 6.6 10 10 C6.7 10 3.4 10 0 10 C0 6.7 0 3.4 0 0 Z " fill="#E9F59D" transform="translate(410,280)"/>
<path d="M0 0 C3.3 0 6.6 0 10 0 C10 3.3 10 6.6 10 10 C6.7 10 3.4 10 0 10 C0 6.7 0 3.4 0 0 Z " fill="#E9F59D" transform="translate(390,280)"/>
<path d="M0 0 C3.3 0 6.6 0 10 0 C10 3.3 10 6.6 10 10 C6.7 10 3.4 10 0 10 C0 6.7 0 3.4 0 0 Z " fill="#E9F59D" transform="translate(400,270)"/>
<path d="M0 0 C3.3 0 6.6 0 10 0 C10 3.3 10 6.6 10 10 C6.7 10 3.4 10 0 10 C0 6.7 0 3.4 0 0 Z " fill="#E9F59D" transform="translate(290,260)"/>
<path d="M0 0 C3.3 0 6.6 0 10 0 C10 3.3 10 6.6 10 10 C6.7 10 3.4 10 0 10 C0 6.7 0 3.4 0 0 Z " fill="#E9F59D" transform="translate(340,210)"/>
<path d="M0 0 C3.3 0 6.6 0 10 0 C10 3.3 10 6.6 10 10 C6.7 10 3.4 10 0 10 C0 6.7 0 3.4 0 0 Z " fill="#E9F59D" transform="translate(320,210)"/>
<path d="M0 0 C3.3 0 6.6 0 10 0 C10 3.3 10 6.6 10 10 C6.7 10 3.4 10 0 10 C0 6.7 0 3.4 0 0 Z " fill="#B0EB93" transform="translate(320,200)"/>
</svg>
