<?xml version="1.0" encoding="UTF-8"?>
<svg version="1.1" xmlns="http://www.w3.org/2000/svg" width="640" height="640">
<path d="M0 0 C52.8 0 105.6 0 160 0 C160 3.3 160 6.6 160 10 C163.3 10 166.6 10 170 10 C170 19.9 170 29.8 170 40 C166.7 40 163.4 40 160 40 C160 53.2 160 66.4 160 80 C156.7 80 153.4 80 150 80 C150 83.3 150 86.6 150 90 C146.7 90 143.4 90 140 90 C140 93.3 140 96.6 140 100 C100.4 100 60.8 100 20 100 C20 96.7 20 93.4 20 90 C16.7 90 13.4 90 10 90 C10 86.7 10 83.4 10 80 C6.7 80 3.4 80 0 80 C0 66.8 0 53.6 0 40 C-3.3 40 -6.6 40 -10 40 C-10 30.1 -10 20.2 -10 10 C-6.7 10 -3.4 10 0 10 C0 6.7 0 3.4 0 0 Z " fill="#98C0DE" transform="translate(240,540)"/>
<path d="M0 0 C3.3 0 6.6 0 10 0 C10 3.3 10 6.6 10 10 C56.2 10 102.4 10 150 10 C150 6.7 150 3.4 150 0 C153.3 0 156.6 0 160 0 C160 13.2 160 26.4 160 40 C156.7 40 153.4 40 150 40 C150 43.3 150 46.6 150 50 C146.7 50 143.4 50 140 50 C140 53.3 140 56.6 140 60 C100.4 60 60.8 60 20 60 C20 56.7 20 53.4 20 50 C16.7 50 13.4 50 10 50 C10 46.7 10 43.4 10 40 C6.7 40 3.4 40 0 40 C0 26.8 0 13.6 0 0 Z " fill="#ACCCE4" transform="translate(240,580)"/>
<path d="M0 0 C39.6 0 79.2 0 120 0 C120 3.3 120 6.6 120 10 C123.3 10 126.6 10 130 10 C130 13.3 130 16.6 130 20 C126.7 20 123.4 20 120 20 C120 23.3 120 26.6 120 30 C80.4 30 40.8 30 0 30 C0 26.7 0 23.4 0 20 C-3.3 20 -6.6 20 -10 20 C-10 16.7 -10 13.4 -10 10 C-6.7 10 -3.4 10 0 10 C0 6.7 0 3.4 0 0 Z " fill="#867DCA" transform="translate(260,550)"/>
</svg>
