<?xml version="1.0" encoding="UTF-8"?>
<svg version="1.1" xmlns="http://www.w3.org/2000/svg" width="640" height="640">
<path d="M0 0 C3.3 0 6.6 0 10 0 C10 3.3 10 6.6 10 10 C13.3 10 16.6 10 20 10 C20 6.7 20 3.4 20 0 C26.6 0 33.2 0 40 0 C40 3.3 40 6.6 40 10 C43.3 10 46.6 10 50 10 C50 6.7 50 3.4 50 0 C53.3 0 56.6 0 60 0 C60 6.6 60 13.2 60 20 C56.7 20 53.4 20 50 20 C50 23.3 50 26.6 50 30 C53.3 30 56.6 30 60 30 C60 33.3 60 36.6 60 40 C63.3 40 66.6 40 70 40 C70 43.3 70 46.6 70 50 C73.3 50 76.6 50 80 50 C80 46.7 80 43.4 80 40 C83.3 40 86.6 40 90 40 C90 33.4 90 26.8 90 20 C93.3 20 96.6 20 100 20 C100 16.7 100 13.4 100 10 C103.3 10 106.6 10 110 10 C110 6.7 110 3.4 110 0 C119.9 0 129.8 0 140 0 C140 3.3 140 6.6 140 10 C143.3 10 146.6 10 150 10 C150 23.2 150 36.4 150 50 C146.7 50 143.4 50 140 50 C140 59.9 140 69.8 140 80 C136.7 80 133.4 80 130 80 C130 86.6 130 93.2 130 100 C126.7 100 123.4 100 120 100 C120 103.3 120 106.6 120 110 C116.7 110 113.4 110 110 110 C110 113.3 110 116.6 110 120 C106.7 120 103.4 120 100 120 C100 123.3 100 126.6 100 130 C103.3 130 106.6 130 110 130 C110 133.3 110 136.6 110 140 C113.3 140 116.6 140 120 140 C120 143.3 120 146.6 120 150 C123.3 150 126.6 150 130 150 C130 153.3 130 156.6 130 160 C133.3 160 136.6 160 140 160 C140 173.2 140 186.4 140 200 C143.3 200 146.6 200 150 200 C150 196.7 150 193.4 150 190 C159.9 190 169.8 190 180 190 C180 193.3 180 196.6 180 200 C183.3 200 186.6 200 190 200 C190 203.3 190 206.6 190 210 C193.3 210 196.6 210 200 210 C200 226.5 200 243 200 260 C196.7 260 193.4 260 190 260 C190 263.3 190 266.6 190 270 C186.7 270 183.4 270 180 270 C180 273.3 180 276.6 180 280 C173.4 280 166.8 280 160 280 C160 283.3 160 286.6 160 290 C146.8 290 133.6 290 120 290 C120 293.3 120 296.6 120 300 C116.7 300 113.4 300 110 300 C110 306.6 110 313.2 110 320 C123.2 320 136.4 320 150 320 C150 323.3 150 326.6 150 330 C153.3 330 156.6 330 160 330 C160 339.9 160 349.8 160 360 C156.7 360 153.4 360 150 360 C150 373.2 150 386.4 150 400 C146.7 400 143.4 400 140 400 C140 403.3 140 406.6 140 410 C136.7 410 133.4 410 130 410 C130 413.3 130 416.6 130 420 C90.4 420 50.8 420 10 420 C10 416.7 10 413.4 10 410 C6.7 410 3.4 410 0 410 C0 406.7 0 403.4 0 400 C-3.3 400 -6.6 400 -10 400 C-10 386.8 -10 373.6 -10 360 C-13.3 360 -16.6 360 -20 360 C-20 350.1 -20 340.2 -20 330 C-16.7 330 -13.4 330 -10 330 C-10 326.7 -10 323.4 -10 320 C3.2 320 16.4 320 30 320 C30 313.4 30 306.8 30 300 C26.7 300 23.4 300 20 300 C20 276.9 20 253.8 20 230 C23.3 230 26.6 230 30 230 C30 223.4 30 216.8 30 210 C26.7 210 23.4 210 20 210 C20 206.7 20 203.4 20 200 C16.7 200 13.4 200 10 200 C10 196.7 10 193.4 10 190 C6.7 190 3.4 190 0 190 C0 183.4 0 176.8 0 170 C-3.3 170 -6.6 170 -10 170 C-10 163.4 -10 156.8 -10 150 C-13.3 150 -16.6 150 -20 150 C-20 143.4 -20 136.8 -20 130 C-23.3 130 -26.6 130 -30 130 C-30 110.2 -30 90.4 -30 70 C-26.7 70 -23.4 70 -20 70 C-20 63.4 -20 56.8 -20 50 C-16.7 50 -13.4 50 -10 50 C-10 46.7 -10 43.4 -10 40 C-6.7 40 -3.4 40 0 40 C0 36.7 0 33.4 0 30 C3.3 30 6.6 30 10 30 C10 26.7 10 23.4 10 20 C6.7 20 3.4 20 0 20 C0 13.4 0 6.8 0 0 Z " fill="#AAE78D" transform="translate(250,220)"/>
<path d="M0 0 C13.2 0 26.4 0 40 0 C40 6.6 40 13.2 40 20 C43.3 20 46.6 20 50 20 C50 23.3 50 26.6 50 30 C69.8 30 89.6 30 110 30 C110 26.7 110 23.4 110 20 C113.3 20 116.6 20 120 20 C120 13.4 120 6.8 120 0 C133.2 0 146.4 0 160 0 C160 3.3 160 6.6 160 10 C163.3 10 166.6 10 170 10 C170 19.9 170 29.8 170 40 C166.7 40 163.4 40 160 40 C160 53.2 160 66.4 160 80 C156.7 80 153.4 80 150 80 C150 83.3 150 86.6 150 90 C146.7 90 143.4 90 140 90 C140 93.3 140 96.6 140 100 C100.4 100 60.8 100 20 100 C20 96.7 20 93.4 20 90 C16.7 90 13.4 90 10 90 C10 86.7 10 83.4 10 80 C6.7 80 3.4 80 0 80 C0 66.8 0 53.6 0 40 C-3.3 40 -6.6 40 -10 40 C-10 30.1 -10 20.2 -10 10 C-6.7 10 -3.4 10 0 10 C0 6.7 0 3.4 0 0 Z " fill="#ACCCE4" transform="translate(240,540)"/>
<path d="M0 0 C9.9 0 19.8 0 30 0 C30 3.3 30 6.6 30 10 C33.3 10 36.6 10 40 10 C40 23.2 40 36.4 40 50 C36.7 50 33.4 50 30 50 C30 59.9 30 69.8 30 80 C26.7 80 23.4 80 20 80 C20 86.6 20 93.2 20 100 C16.7 100 13.4 100 10 100 C10 103.3 10 106.6 10 110 C6.7 110 3.4 110 0 110 C0 113.3 0 116.6 0 120 C-3.3 120 -6.6 120 -10 120 C-10 123.3 -10 126.6 -10 130 C-6.7 130 -3.4 130 0 130 C0 133.3 0 136.6 0 140 C3.3 140 6.6 140 10 140 C10 143.3 10 146.6 10 150 C6.7 150 3.4 150 0 150 C0 159.9 0 169.8 0 180 C-3.3 180 -6.6 180 -10 180 C-10 183.3 -10 186.6 -10 190 C-13.3 190 -16.6 190 -20 190 C-20 199.9 -20 209.8 -20 220 C-23.3 220 -26.6 220 -30 220 C-30 262.9 -30 305.8 -30 350 C-33.3 350 -36.6 350 -40 350 C-40 297.2 -40 244.4 -40 190 C-36.7 190 -33.4 190 -30 190 C-30 183.4 -30 176.8 -30 170 C-26.7 170 -23.4 170 -20 170 C-20 163.4 -20 156.8 -20 150 C-29.9 150 -39.8 150 -50 150 C-50 146.7 -50 143.4 -50 140 C-43.4 140 -36.8 140 -30 140 C-30 120.2 -30 100.4 -30 80 C-33.3 80 -36.6 80 -40 80 C-40 76.7 -40 73.4 -40 70 C-43.3 70 -46.6 70 -50 70 C-50 63.4 -50 56.8 -50 50 C-43.4 50 -36.8 50 -30 50 C-30 46.7 -30 43.4 -30 40 C-26.7 40 -23.4 40 -20 40 C-20 33.4 -20 26.8 -20 20 C-16.7 20 -13.4 20 -10 20 C-10 16.7 -10 13.4 -10 10 C-6.7 10 -3.4 10 0 10 C0 6.7 0 3.4 0 0 Z " fill="#94CF77" transform="translate(360,220)"/>
<path d="M0 0 C3.3 0 6.6 0 10 0 C10 3.3 10 6.6 10 10 C13.3 10 16.6 10 20 10 C20 6.7 20 3.4 20 0 C26.6 0 33.2 0 40 0 C40 3.3 40 6.6 40 10 C43.3 10 46.6 10 50 10 C50 6.7 50 3.4 50 0 C53.3 0 56.6 0 60 0 C60 6.6 60 13.2 60 20 C56.7 20 53.4 20 50 20 C50 23.3 50 26.6 50 30 C53.3 30 56.6 30 60 30 C60 33.3 60 36.6 60 40 C63.3 40 66.6 40 70 40 C70 43.3 70 46.6 70 50 C66.7 50 63.4 50 60 50 C60 56.6 60 63.2 60 70 C63.3 70 66.6 70 70 70 C70 73.3 70 76.6 70 80 C73.3 80 76.6 80 80 80 C80 99.8 80 119.6 80 140 C73.4 140 66.8 140 60 140 C60 143.3 60 146.6 60 150 C56.7 150 53.4 150 50 150 C50 156.6 50 163.2 50 170 C46.7 170 43.4 170 40 170 C40 166.7 40 163.4 40 160 C36.7 160 33.4 160 30 160 C30 153.4 30 146.8 30 140 C26.7 140 23.4 140 20 140 C20 130.1 20 120.2 20 110 C16.7 110 13.4 110 10 110 C10 86.9 10 63.8 10 40 C6.7 40 3.4 40 0 40 C0 36.7 0 33.4 0 30 C3.3 30 6.6 30 10 30 C10 26.7 10 23.4 10 20 C6.7 20 3.4 20 0 20 C0 13.4 0 6.8 0 0 Z " fill="#93CE77" transform="translate(250,220)"/>
<path d="M0 0 C6.6 0 13.2 0 20 0 C20 23.1 20 46.2 20 70 C23.3 70 26.6 70 30 70 C30 79.9 30 89.8 30 100 C33.3 100 36.6 100 40 100 C40 106.6 40 113.2 40 120 C43.3 120 46.6 120 50 120 C50 123.3 50 126.6 50 130 C53.3 130 56.6 130 60 130 C60 123.4 60 116.8 60 110 C63.3 110 66.6 110 70 110 C70 119.9 70 129.8 70 140 C66.7 140 63.4 140 60 140 C60 146.6 60 153.2 60 160 C56.7 160 53.4 160 50 160 C50 169.9 50 179.8 50 190 C46.7 190 43.4 190 40 190 C40 183.4 40 176.8 40 170 C36.7 170 33.4 170 30 170 C30 166.7 30 163.4 30 160 C26.7 160 23.4 160 20 160 C20 156.7 20 153.4 20 150 C16.7 150 13.4 150 10 150 C10 143.4 10 136.8 10 130 C6.7 130 3.4 130 0 130 C0 123.4 0 116.8 0 110 C-3.3 110 -6.6 110 -10 110 C-10 103.4 -10 96.8 -10 90 C-13.3 90 -16.6 90 -20 90 C-20 70.2 -20 50.4 -20 30 C-16.7 30 -13.4 30 -10 30 C-10 23.4 -10 16.8 -10 10 C-6.7 10 -3.4 10 0 10 C0 6.7 0 3.4 0 0 Z " fill="#B0EB93" transform="translate(240,260)"/>
<path d="M0 0 C13.2 0 26.4 0 40 0 C40 6.6 40 13.2 40 20 C43.3 20 46.6 20 50 20 C50 23.3 50 26.6 50 30 C69.8 30 89.6 30 110 30 C110 26.7 110 23.4 110 20 C113.3 20 116.6 20 120 20 C120 13.4 120 6.8 120 0 C133.2 0 146.4 0 160 0 C160 3.3 160 6.6 160 10 C163.3 10 166.6 10 170 10 C170 19.9 170 29.8 170 40 C163.4 40 156.8 40 150 40 C150 43.3 150 46.6 150 50 C103.8 50 57.6 50 10 50 C10 46.7 10 43.4 10 40 C3.4 40 -3.2 40 -10 40 C-10 30.1 -10 20.2 -10 10 C-6.7 10 -3.4 10 0 10 C0 6.7 0 3.4 0 0 Z " fill="#98C0DE" transform="translate(240,540)"/>
<path d="M0 0 C9.9 0 19.8 0 30 0 C30 3.3 30 6.6 30 10 C33.3 10 36.6 10 40 10 C40 23.2 40 36.4 40 50 C36.7 50 33.4 50 30 50 C30 59.9 30 69.8 30 80 C26.7 80 23.4 80 20 80 C20 86.6 20 93.2 20 100 C16.7 100 13.4 100 10 100 C10 103.3 10 106.6 10 110 C3.4 110 -3.2 110 -10 110 C-10 96.8 -10 83.6 -10 70 C-16.6 70 -23.2 70 -30 70 C-30 66.7 -30 63.4 -30 60 C-26.7 60 -23.4 60 -20 60 C-20 46.8 -20 33.6 -20 20 C-16.7 20 -13.4 20 -10 20 C-10 16.7 -10 13.4 -10 10 C-6.7 10 -3.4 10 0 10 C0 6.7 0 3.4 0 0 Z " fill="#B0EB93" transform="translate(360,220)"/>
<path d="M0 0 C6.6 0 13.2 0 20 0 C20 19.8 20 39.6 20 60 C16.7 60 13.4 60 10 60 C10 66.6 10 73.2 10 80 C6.7 80 3.4 80 0 80 C0 99.8 0 119.6 0 140 C-6.6 140 -13.2 140 -20 140 C-20 107 -20 74 -20 40 C-16.7 40 -13.4 40 -10 40 C-10 30.1 -10 20.2 -10 10 C-6.7 10 -3.4 10 0 10 C0 6.7 0 3.4 0 0 Z " fill="#B0EB93" transform="translate(350,400)"/>
<path d="M0 0 C6.6 0 13.2 0 20 0 C20 3.3 20 6.6 20 10 C16.7 10 13.4 10 10 10 C10 29.8 10 49.6 10 70 C13.3 70 16.6 70 20 70 C20 76.6 20 83.2 20 90 C23.3 90 26.6 90 30 90 C30 93.3 30 96.6 30 100 C33.3 100 36.6 100 40 100 C40 103.3 40 106.6 40 110 C36.7 110 33.4 110 30 110 C30 116.6 30 123.2 30 130 C26.7 130 23.4 130 20 130 C20 126.7 20 123.4 20 120 C16.7 120 13.4 120 10 120 C10 113.4 10 106.8 10 100 C6.7 100 3.4 100 0 100 C0 90.1 0 80.2 0 70 C-3.3 70 -6.6 70 -10 70 C-10 53.5 -10 37 -10 20 C-6.7 20 -3.4 20 0 20 C0 13.4 0 6.8 0 0 Z " fill="#B0EB93" transform="translate(270,260)"/>
<path d="M0 0 C6.6 0 13.2 0 20 0 C20 3.3 20 6.6 20 10 C23.3 10 26.6 10 30 10 C30 13.3 30 16.6 30 20 C49.8 20 69.6 20 90 20 C90 16.7 90 13.4 90 10 C93.3 10 96.6 10 100 10 C100 6.7 100 3.4 100 0 C106.6 0 113.2 0 120 0 C120 3.3 120 6.6 120 10 C123.3 10 126.6 10 130 10 C130 13.3 130 16.6 130 20 C126.7 20 123.4 20 120 20 C120 23.3 120 26.6 120 30 C80.4 30 40.8 30 0 30 C0 26.7 0 23.4 0 20 C-3.3 20 -6.6 20 -10 20 C-10 16.7 -10 13.4 -10 10 C-6.7 10 -3.4 10 0 10 C0 6.7 0 3.4 0 0 Z " fill="#867DCA" transform="translate(260,550)"/>
<path d="M0 0 C3.3 0 6.6 0 10 0 C10 6.6 10 13.2 10 20 C13.3 20 16.6 20 20 20 C20 23.3 20 26.6 20 30 C23.3 30 26.6 30 30 30 C30 49.8 30 69.6 30 90 C23.4 90 16.8 90 10 90 C10 83.4 10 76.8 10 70 C6.7 70 3.4 70 0 70 C0 60.1 0 50.2 0 40 C-3.3 40 -6.6 40 -10 40 C-10 30.1 -10 20.2 -10 10 C-6.7 10 -3.4 10 0 10 C0 6.7 0 3.4 0 0 Z " fill="#B0EB93" transform="translate(300,270)"/>
<path d="M0 0 C6.6 0 13.2 0 20 0 C20 16.5 20 33 20 50 C16.7 50 13.4 50 10 50 C10 56.6 10 63.2 10 70 C6.7 70 3.4 70 0 70 C0 73.3 0 76.6 0 80 C-6.6 80 -13.2 80 -20 80 C-20 66.8 -20 53.6 -20 40 C-16.7 40 -13.4 40 -10 40 C-10 33.4 -10 26.8 -10 20 C-6.7 20 -3.4 20 0 20 C0 13.4 0 6.8 0 0 Z " fill="#B0EB93" transform="translate(370,250)"/>
<path d="M0 0 C9.9 0 19.8 0 30 0 C30 16.5 30 33 30 50 C26.7 50 23.4 50 20 50 C20 53.3 20 56.6 20 60 C6.8 60 -6.4 60 -20 60 C-20 56.7 -20 53.4 -20 50 C-16.7 50 -13.4 50 -10 50 C-10 46.7 -10 43.4 -10 40 C-6.7 40 -3.4 40 0 40 C0 26.8 0 13.6 0 0 Z " fill="#B0EB93" transform="translate(420,430)"/>
<path d="M0 0 C3.3 0 6.6 0 10 0 C10 9.9 10 19.8 10 30 C13.3 30 16.6 30 20 30 C20 36.6 20 43.2 20 50 C23.3 50 26.6 50 30 50 C30 53.3 30 56.6 30 60 C33.3 60 36.6 60 40 60 C40 53.4 40 46.8 40 40 C43.3 40 46.6 40 50 40 C50 49.9 50 59.8 50 70 C46.7 70 43.4 70 40 70 C40 76.6 40 83.2 40 90 C36.7 90 33.4 90 30 90 C30 83.4 30 76.8 30 70 C26.7 70 23.4 70 20 70 C20 66.7 20 63.4 20 60 C16.7 60 13.4 60 10 60 C10 53.4 10 46.8 10 40 C6.7 40 3.4 40 0 40 C0 26.8 0 13.6 0 0 Z " fill="#93CE77" transform="translate(260,330)"/>
<path d="M0 0 C9.9 0 19.8 0 30 0 C30 3.3 30 6.6 30 10 C33.3 10 36.6 10 40 10 C40 13.3 40 16.6 40 20 C33.4 20 26.8 20 20 20 C20 33.2 20 46.4 20 60 C16.7 60 13.4 60 10 60 C10 63.3 10 66.6 10 70 C6.7 70 3.4 70 0 70 C0 56.8 0 43.6 0 30 C3.3 30 6.6 30 10 30 C10 23.4 10 16.8 10 10 C6.7 10 3.4 10 0 10 C0 6.7 0 3.4 0 0 Z " fill="#93CE77" transform="translate(400,410)"/>
<path d="M0 0 C3.3 0 6.6 0 10 0 C10 3.3 10 6.6 10 10 C13.3 10 16.6 10 20 10 C20 6.7 20 3.4 20 0 C26.6 0 33.2 0 40 0 C40 3.3 40 6.6 40 10 C43.3 10 46.6 10 50 10 C50 6.7 50 3.4 50 0 C53.3 0 56.6 0 60 0 C60 6.6 60 13.2 60 20 C56.7 20 53.4 20 50 20 C50 23.3 50 26.6 50 30 C36.8 30 23.6 30 10 30 C10 26.7 10 23.4 10 20 C6.7 20 3.4 20 0 20 C0 13.4 0 6.8 0 0 Z " fill="#F98284" transform="translate(250,220)"/>
<path d="M0 0 C3.3 0 6.6 0 10 0 C10 36.3 10 72.6 10 110 C6.7 110 3.4 110 0 110 C0 73.7 0 37.4 0 0 Z " fill="#9EDE80" transform="translate(310,440)"/>
<path d="M0 0 C3.3 0 6.6 0 10 0 C10 33 10 66 10 100 C6.7 100 3.4 100 0 100 C0 67 0 34 0 0 Z " fill="#E9F59D" transform="translate(330,440)"/>
<path d="M0 0 C3.3 0 6.6 0 10 0 C10 13.2 10 26.4 10 40 C13.3 40 16.6 40 20 40 C20 43.3 20 46.6 20 50 C16.7 50 13.4 50 10 50 C10 63.2 10 76.4 10 90 C6.7 90 3.4 90 0 90 C0 60.3 0 30.6 0 0 Z " fill="#93CE77" transform="translate(380,380)"/>
<path d="M0 0 C9.9 0 19.8 0 30 0 C30 3.3 30 6.6 30 10 C33.3 10 36.6 10 40 10 C40 23.2 40 36.4 40 50 C36.7 50 33.4 50 30 50 C30 43.4 30 36.8 30 30 C23.4 30 16.8 30 10 30 C10 26.7 10 23.4 10 20 C13.3 20 16.6 20 20 20 C20 16.7 20 13.4 20 10 C13.4 10 6.8 10 0 10 C0 6.7 0 3.4 0 0 Z " fill="#93CE77" transform="translate(360,220)"/>
<path d="M0 0 C3.3 0 6.6 0 10 0 C10 6.6 10 13.2 10 20 C6.7 20 3.4 20 0 20 C0 33.2 0 46.4 0 60 C-6.6 60 -13.2 60 -20 60 C-20 56.7 -20 53.4 -20 50 C-16.7 50 -13.4 50 -10 50 C-10 36.8 -10 23.6 -10 10 C-6.7 10 -3.4 10 0 10 C0 6.7 0 3.4 0 0 Z " fill="#B0EB93" transform="translate(400,420)"/>
<path d="M0 0 C3.3 0 6.6 0 10 0 C10 3.3 10 6.6 10 10 C23.2 10 36.4 10 50 10 C50 13.3 50 16.6 50 20 C36.8 20 23.6 20 10 20 C10 23.3 10 26.6 10 30 C6.7 30 3.4 30 0 30 C0 20.1 0 10.2 0 0 Z " fill="#93CE77" transform="translate(360,490)"/>
<path d="M0 0 C3.3 0 6.6 0 10 0 C10 23.1 10 46.2 10 70 C6.7 70 3.4 70 0 70 C0 46.9 0 23.8 0 0 Z " fill="#93CE77" transform="translate(270,450)"/>
<path d="M0 0 C3.3 0 6.6 0 10 0 C10 9.9 10 19.8 10 30 C13.3 30 16.6 30 20 30 C20 36.6 20 43.2 20 50 C16.7 50 13.4 50 10 50 C10 46.7 10 43.4 10 40 C6.7 40 3.4 40 0 40 C0 26.8 0 13.6 0 0 Z " fill="#93CE77" transform="translate(280,520)"/>
<path d="M0 0 C19.8 0 39.6 0 60 0 C60 3.3 60 6.6 60 10 C40.2 10 20.4 10 0 10 C0 6.7 0 3.4 0 0 Z " fill="#B0EB93" transform="translate(370,490)"/>
<path d="M0 0 C3.3 0 6.6 0 10 0 C10 19.8 10 39.6 10 60 C6.7 60 3.4 60 0 60 C0 40.2 0 20.4 0 0 Z " fill="#93CE77" transform="translate(220,290)"/>
<path d="M0 0 C3.3 0 6.6 0 10 0 C10 16.5 10 33 10 50 C6.7 50 3.4 50 0 50 C0 33.5 0 17 0 0 Z " fill="#93CE77" transform="translate(440,430)"/>
<path d="M0 0 C3.3 0 6.6 0 10 0 C10 16.5 10 33 10 50 C6.7 50 3.4 50 0 50 C0 33.5 0 17 0 0 Z " fill="#E9F59D" transform="translate(260,280)"/>
<path d="M0 0 C3.3 0 6.6 0 10 0 C10 16.5 10 33 10 50 C6.7 50 3.4 50 0 50 C0 33.5 0 17 0 0 Z " fill="#93CE77" transform="translate(250,280)"/>
<path d="M0 0 C3.3 0 6.6 0 10 0 C10 13.2 10 26.4 10 40 C6.7 40 3.4 40 0 40 C0 26.8 0 13.6 0 0 Z " fill="#93CE77" transform="translate(350,520)"/>
<path d="M0 0 C3.3 0 6.6 0 10 0 C10 3.3 10 6.6 10 10 C16.6 10 23.2 10 30 10 C30 13.3 30 16.6 30 20 C20.1 20 10.2 20 0 20 C0 13.4 0 6.8 0 0 Z " fill="#93CE77" transform="translate(370,470)"/>
<path d="M0 0 C3.3 0 6.6 0 10 0 C10 13.2 10 26.4 10 40 C6.7 40 3.4 40 0 40 C0 26.8 0 13.6 0 0 Z " fill="#9EDE80" transform="translate(400,440)"/>
<path d="M0 0 C3.3 0 6.6 0 10 0 C10 13.2 10 26.4 10 40 C6.7 40 3.4 40 0 40 C0 26.8 0 13.6 0 0 Z " fill="#E9F59D" transform="translate(420,430)"/>
<path d="M0 0 C6.6 0 13.2 0 20 0 C20 9.9 20 19.8 20 30 C16.7 30 13.4 30 10 30 C10 23.4 10 16.8 10 10 C6.7 10 3.4 10 0 10 C0 6.7 0 3.4 0 0 Z " fill="#93CE77" transform="translate(270,420)"/>
<path d="M0 0 C3.3 0 6.6 0 10 0 C10 13.2 10 26.4 10 40 C6.7 40 3.4 40 0 40 C0 26.8 0 13.6 0 0 Z " fill="#9EDE80" transform="translate(330,310)"/>
<path d="M0 0 C3.3 0 6.6 0 10 0 C10 9.9 10 19.8 10 30 C3.4 30 -3.2 30 -10 30 C-10 26.7 -10 23.4 -10 20 C-6.7 20 -3.4 20 0 20 C0 13.4 0 6.8 0 0 Z " fill="#9EDE80" transform="translate(340,260)"/>
<path d="M0 0 C6.6 0 13.2 0 20 0 C20 6.6 20 13.2 20 20 C13.4 20 6.8 20 0 20 C0 13.4 0 6.8 0 0 Z " fill="#B0EB93" transform="translate(370,250)"/>
<path d="M0 0 C3.3 0 6.6 0 10 0 C10 9.9 10 19.8 10 30 C6.7 30 3.4 30 0 30 C0 20.1 0 10.2 0 0 Z " fill="#E9F59D" transform="translate(340,410)"/>
<path d="M0 0 C3.3 0 6.6 0 10 0 C10 9.9 10 19.8 10 30 C6.7 30 3.4 30 0 30 C0 20.1 0 10.2 0 0 Z " fill="#9EDE80" transform="translate(320,410)"/>
<path d="M0 0 C3.3 0 6.6 0 10 0 C10 9.9 10 19.8 10 30 C6.7 30 3.4 30 0 30 C0 20.1 0 10.2 0 0 Z " fill="#9EDE80" transform="translate(250,330)"/>
<path d="M0 0 C3.3 0 6.6 0 10 0 C10 9.9 10 19.8 10 30 C6.7 30 3.4 30 0 30 C0 20.1 0 10.2 0 0 Z " fill="#E9F59D" transform="translate(300,310)"/>
<path d="M0 0 C3.3 0 6.6 0 10 0 C10 9.9 10 19.8 10 30 C6.7 30 3.4 30 0 30 C0 20.1 0 10.2 0 0 Z " fill="#9EDE80" transform="translate(240,300)"/>
<path d="M0 0 C3.3 0 6.6 0 10 0 C10 9.9 10 19.8 10 30 C6.7 30 3.4 30 0 30 C0 20.1 0 10.2 0 0 Z " fill="#E9F59D" transform="translate(290,280)"/>
<path d="M0 0 C3.3 0 6.6 0 10 0 C10 9.9 10 19.8 10 30 C6.7 30 3.4 30 0 30 C0 20.1 0 10.2 0 0 Z " fill="#93CE77" transform="translate(380,270)"/>
<path d="M0 0 C6.6 0 13.2 0 20 0 C20 3.3 20 6.6 20 10 C13.4 10 6.8 10 0 10 C0 6.7 0 3.4 0 0 Z " fill="#93CE77" transform="translate(410,490)"/>
<path d="M0 0 C6.6 0 13.2 0 20 0 C20 3.3 20 6.6 20 10 C13.4 10 6.8 10 0 10 C0 6.7 0 3.4 0 0 Z " fill="#9EDE80" transform="translate(380,470)"/>
<path d="M0 0 C3.3 0 6.6 0 10 0 C10 6.6 10 13.2 10 20 C6.7 20 3.4 20 0 20 C0 13.4 0 6.8 0 0 Z " fill="#9EDE80" transform="translate(330,390)"/>
<path d="M0 0 C3.3 0 6.6 0 10 0 C10 6.6 10 13.2 10 20 C6.7 20 3.4 20 0 20 C0 13.4 0 6.8 0 0 Z " fill="#93CE77" transform="translate(250,390)"/>
<path d="M0 0 C3.3 0 6.6 0 10 0 C10 6.6 10 13.2 10 20 C6.7 20 3.4 20 0 20 C0 13.4 0 6.8 0 0 Z " fill="#E9F59D" transform="translate(360,370)"/>
<path d="M0 0 C3.3 0 6.6 0 10 0 C10 6.6 10 13.2 10 20 C6.7 20 3.4 20 0 20 C0 13.4 0 6.8 0 0 Z " fill="#93CE77" transform="translate(240,370)"/>
<path d="M0 0 C6.6 0 13.2 0 20 0 C20 3.3 20 6.6 20 10 C13.4 10 6.8 10 0 10 C0 6.7 0 3.4 0 0 Z " fill="#93CE77" transform="translate(310,360)"/>
<path d="M0 0 C3.3 0 6.6 0 10 0 C10 6.6 10 13.2 10 20 C6.7 20 3.4 20 0 20 C0 13.4 0 6.8 0 0 Z " fill="#93CE77" transform="translate(230,350)"/>
<path d="M0 0 C3.3 0 6.6 0 10 0 C10 6.6 10 13.2 10 20 C6.7 20 3.4 20 0 20 C0 13.4 0 6.8 0 0 Z " fill="#E9F59D" transform="translate(310,340)"/>
<path d="M0 0 C3.3 0 6.6 0 10 0 C10 6.6 10 13.2 10 20 C6.7 20 3.4 20 0 20 C0 13.4 0 6.8 0 0 Z " fill="#93CE77" transform="translate(300,340)"/>
<path d="M0 0 C3.3 0 6.6 0 10 0 C10 6.6 10 13.2 10 20 C6.7 20 3.4 20 0 20 C0 13.4 0 6.8 0 0 Z " fill="#E9F59D" transform="translate(270,340)"/>
<path d="M0 0 C3.3 0 6.6 0 10 0 C10 6.6 10 13.2 10 20 C6.7 20 3.4 20 0 20 C0 13.4 0 6.8 0 0 Z " fill="#9EDE80" transform="translate(280,310)"/>
<path d="M0 0 C3.3 0 6.6 0 10 0 C10 6.6 10 13.2 10 20 C6.7 20 3.4 20 0 20 C0 13.4 0 6.8 0 0 Z " fill="#93CE77" transform="translate(370,300)"/>
<path d="M0 0 C3.3 0 6.6 0 10 0 C10 6.6 10 13.2 10 20 C6.7 20 3.4 20 0 20 C0 13.4 0 6.8 0 0 Z " fill="#E9F59D" transform="translate(350,290)"/>
<path d="M0 0 C3.3 0 6.6 0 10 0 C10 6.6 10 13.2 10 20 C6.7 20 3.4 20 0 20 C0 13.4 0 6.8 0 0 Z " fill="#E9F59D" transform="translate(360,270)"/>
<path d="M0 0 C3.3 0 6.6 0 10 0 C10 6.6 10 13.2 10 20 C6.7 20 3.4 20 0 20 C0 13.4 0 6.8 0 0 Z " fill="#93CE77" transform="translate(350,270)"/>
<path d="M0 0 C3.3 0 6.6 0 10 0 C10 6.6 10 13.2 10 20 C6.7 20 3.4 20 0 20 C0 13.4 0 6.8 0 0 Z " fill="#9EDE80" transform="translate(310,270)"/>
<path d="M0 0 C3.3 0 6.6 0 10 0 C10 6.6 10 13.2 10 20 C6.7 20 3.4 20 0 20 C0 13.4 0 6.8 0 0 Z " fill="#93CE77" transform="translate(230,270)"/>
<path d="M0 0 C3.3 0 6.6 0 10 0 C10 6.6 10 13.2 10 20 C6.7 20 3.4 20 0 20 C0 13.4 0 6.8 0 0 Z " fill="#B0EB93" transform="translate(340,260)"/>
<path d="M0 0 C6.6 0 13.2 0 20 0 C20 3.3 20 6.6 20 10 C13.4 10 6.8 10 0 10 C0 6.7 0 3.4 0 0 Z " fill="#B0EB93" transform="translate(270,260)"/>
<path d="M0 0 C3.3 0 6.6 0 10 0 C10 6.6 10 13.2 10 20 C6.7 20 3.4 20 0 20 C0 13.4 0 6.8 0 0 Z " fill="#E9F59D" transform="translate(370,250)"/>
<path d="M0 0 C3.3 0 6.6 0 10 0 C10 6.6 10 13.2 10 20 C6.7 20 3.4 20 0 20 C0 13.4 0 6.8 0 0 Z " fill="#93CE77" transform="translate(360,250)"/>
<path d="M0 0 C6.6 0 13.2 0 20 0 C20 3.3 20 6.6 20 10 C13.4 10 6.8 10 0 10 C0 6.7 0 3.4 0 0 Z " fill="#9EDE80" transform="translate(370,240)"/>
<path d="M0 0 C3.3 0 6.6 0 10 0 C10 6.6 10 13.2 10 20 C6.7 20 3.4 20 0 20 C0 13.4 0 6.8 0 0 Z " fill="#93CE77" transform="translate(340,240)"/>
<path d="M0 0 C6.6 0 13.2 0 20 0 C20 3.3 20 6.6 20 10 C13.4 10 6.8 10 0 10 C0 6.7 0 3.4 0 0 Z " fill="#FFF7A0" transform="translate(270,240)"/>
<path d="M0 0 C3.3 0 6.6 0 10 0 C10 3.3 10 6.6 10 10 C6.7 10 3.4 10 0 10 C0 6.7 0 3.4 0 0 Z " fill="#93CE77" transform="translate(340,560)"/>
<path d="M0 0 C3.3 0 6.6 0 10 0 C10 3.3 10 6.6 10 10 C6.7 10 3.4 10 0 10 C0 6.7 0 3.4 0 0 Z " fill="#8EC573" transform="translate(320,560)"/>
<path d="M0 0 C3.3 0 6.6 0 10 0 C10 3.3 10 6.6 10 10 C6.7 10 3.4 10 0 10 C0 6.7 0 3.4 0 0 Z " fill="#B0EB93" transform="translate(330,540)"/>
<path d="M0 0 C3.3 0 6.6 0 10 0 C10 3.3 10 6.6 10 10 C6.7 10 3.4 10 0 10 C0 6.7 0 3.4 0 0 Z " fill="#93CE77" transform="translate(430,480)"/>
<path d="M0 0 C3.3 0 6.6 0 10 0 C10 3.3 10 6.6 10 10 C6.7 10 3.4 10 0 10 C0 6.7 0 3.4 0 0 Z " fill="#E9F59D" transform="translate(400,480)"/>
<path d="M0 0 C3.3 0 6.6 0 10 0 C10 3.3 10 6.6 10 10 C6.7 10 3.4 10 0 10 C0 6.7 0 3.4 0 0 Z " fill="#E9F59D" transform="translate(410,470)"/>
<path d="M0 0 C3.3 0 6.6 0 10 0 C10 3.3 10 6.6 10 10 C6.7 10 3.4 10 0 10 C0 6.7 0 3.4 0 0 Z " fill="#93CE77" transform="translate(400,470)"/>
<path d="M0 0 C3.3 0 6.6 0 10 0 C10 3.3 10 6.6 10 10 C6.7 10 3.4 10 0 10 C0 6.7 0 3.4 0 0 Z " fill="#B0EB93" transform="translate(380,470)"/>
<path d="M0 0 C3.3 0 6.6 0 10 0 C10 3.3 10 6.6 10 10 C6.7 10 3.4 10 0 10 C0 6.7 0 3.4 0 0 Z " fill="#9EDE80" transform="translate(340,440)"/>
<path d="M0 0 C3.3 0 6.6 0 10 0 C10 3.3 10 6.6 10 10 C6.7 10 3.4 10 0 10 C0 6.7 0 3.4 0 0 Z " fill="#9EDE80" transform="translate(420,420)"/>
<path d="M0 0 C3.3 0 6.6 0 10 0 C10 3.3 10 6.6 10 10 C6.7 10 3.4 10 0 10 C0 6.7 0 3.4 0 0 Z " fill="#93CE77" transform="translate(260,410)"/>
<path d="M0 0 C3.3 0 6.6 0 10 0 C10 3.3 10 6.6 10 10 C6.7 10 3.4 10 0 10 C0 6.7 0 3.4 0 0 Z " fill="#E9F59D" transform="translate(350,400)"/>
<path d="M0 0 C3.3 0 6.6 0 10 0 C10 3.3 10 6.6 10 10 C6.7 10 3.4 10 0 10 C0 6.7 0 3.4 0 0 Z " fill="#9EDE80" transform="translate(280,390)"/>
<path d="M0 0 C3.3 0 6.6 0 10 0 C10 3.3 10 6.6 10 10 C6.7 10 3.4 10 0 10 C0 6.7 0 3.4 0 0 Z " fill="#E9F59D" transform="translate(290,380)"/>
<path d="M0 0 C3.3 0 6.6 0 10 0 C10 3.3 10 6.6 10 10 C6.7 10 3.4 10 0 10 C0 6.7 0 3.4 0 0 Z " fill="#9EDE80" transform="translate(270,380)"/>
<path d="M0 0 C3.3 0 6.6 0 10 0 C10 3.3 10 6.6 10 10 C6.7 10 3.4 10 0 10 C0 6.7 0 3.4 0 0 Z " fill="#93CE77" transform="translate(370,370)"/>
<path d="M0 0 C3.3 0 6.6 0 10 0 C10 3.3 10 6.6 10 10 C6.7 10 3.4 10 0 10 C0 6.7 0 3.4 0 0 Z " fill="#E9F59D" transform="translate(280,370)"/>
<path d="M0 0 C3.3 0 6.6 0 10 0 C10 3.3 10 6.6 10 10 C6.7 10 3.4 10 0 10 C0 6.7 0 3.4 0 0 Z " fill="#9EDE80" transform="translate(260,360)"/>
<path d="M0 0 C3.3 0 6.6 0 10 0 C10 3.3 10 6.6 10 10 C6.7 10 3.4 10 0 10 C0 6.7 0 3.4 0 0 Z " fill="#9EDE80" transform="translate(290,340)"/>
<path d="M0 0 C3.3 0 6.6 0 10 0 C10 3.3 10 6.6 10 10 C6.7 10 3.4 10 0 10 C0 6.7 0 3.4 0 0 Z " fill="#93CE77" transform="translate(360,320)"/>
<path d="M0 0 C3.3 0 6.6 0 10 0 C10 3.3 10 6.6 10 10 C6.7 10 3.4 10 0 10 C0 6.7 0 3.4 0 0 Z " fill="#9EDE80" transform="translate(320,290)"/>
<path d="M0 0 C3.3 0 6.6 0 10 0 C10 3.3 10 6.6 10 10 C6.7 10 3.4 10 0 10 C0 6.7 0 3.4 0 0 Z " fill="#B0EB93" transform="translate(330,280)"/>
<path d="M0 0 C3.3 0 6.6 0 10 0 C10 3.3 10 6.6 10 10 C6.7 10 3.4 10 0 10 C0 6.7 0 3.4 0 0 Z " fill="#E9F59D" transform="translate(300,270)"/>
<path d="M0 0 C3.3 0 6.6 0 10 0 C10 3.3 10 6.6 10 10 C6.7 10 3.4 10 0 10 C0 6.7 0 3.4 0 0 Z " fill="#9EDE80" transform="translate(280,270)"/>
<path d="M0 0 C3.3 0 6.6 0 10 0 C10 3.3 10 6.6 10 10 C6.7 10 3.4 10 0 10 C0 6.7 0 3.4 0 0 Z " fill="#9EDE80" transform="translate(350,260)"/>
<path d="M0 0 C3.3 0 6.6 0 10 0 C10 3.3 10 6.6 10 10 C6.7 10 3.4 10 0 10 C0 6.7 0 3.4 0 0 Z " fill="#9EDE80" transform="translate(300,260)"/>
<path d="M0 0 C3.3 0 6.6 0 10 0 C10 3.3 10 6.6 10 10 C6.7 10 3.4 10 0 10 C0 6.7 0 3.4 0 0 Z " fill="#E9F59D" transform="translate(270,260)"/>
<path d="M0 0 C3.3 0 6.6 0 10 0 C10 3.3 10 6.6 10 10 C6.7 10 3.4 10 0 10 C0 6.7 0 3.4 0 0 Z " fill="#93CE77" transform="translate(240,260)"/>
<path d="M0 0 C3.3 0 6.6 0 10 0 C10 3.3 10 6.6 10 10 C6.7 10 3.4 10 0 10 C0 6.7 0 3.4 0 0 Z " fill="#93CE77" transform="translate(370,240)"/>
<path d="M0 0 C3.3 0 6.6 0 10 0 C10 3.3 10 6.6 10 10 C6.7 10 3.4 10 0 10 C0 6.7 0 3.4 0 0 Z " fill="#93CE77" transform="translate(350,230)"/>
</svg>
