<?xml version="1.0" encoding="UTF-8"?>
<svg version="1.1" xmlns="http://www.w3.org/2000/svg" width="640" height="640">
<path d="M0 0 C39.6 0 79.2 0 120 0 C120 3.3 120 6.6 120 10 C123.3 10 126.6 10 130 10 C130 76 130 142 130 210 C126.7 210 123.4 210 120 210 C120 213.3 120 216.6 120 220 C80.4 220 40.8 220 0 220 C0 216.7 0 213.4 0 210 C-3.3 210 -6.6 210 -10 210 C-10 144 -10 78 -10 10 C-6.7 10 -3.4 10 0 10 C0 6.7 0 3.4 0 0 Z " fill="#FFECA0" transform="translate(260,420)"/>
<path d="M0 0 C3.3 0 6.6 0 10 0 C10 3.3 10 6.6 10 10 C49.6 10 89.2 10 130 10 C130 6.7 130 3.4 130 0 C133.3 0 136.6 0 140 0 C140 6.6 140 13.2 140 20 C136.7 20 133.4 20 130 20 C130 23.3 130 26.6 130 30 C90.4 30 50.8 30 10 30 C10 26.7 10 23.4 10 20 C6.7 20 3.4 20 0 20 C0 13.4 0 6.8 0 0 Z " fill="#FFF7A0" transform="translate(250,610)"/>
<path d="M0 0 C33 0 66 0 100 0 C100 3.3 100 6.6 100 10 C103.3 10 106.6 10 110 10 C110 13.3 110 16.6 110 20 C70.4 20 30.8 20 -10 20 C-10 16.7 -10 13.4 -10 10 C-6.7 10 -3.4 10 0 10 C0 6.7 0 3.4 0 0 Z " fill="#FFC384" transform="translate(270,430)"/>
</svg>
