<?xml version="1.0" encoding="UTF-8"?>
<svg version="1.1" xmlns="http://www.w3.org/2000/svg" width="640" height="640">
<path d="M0 0 C6.6 0 13.2 0 20 0 C20 6.6 20 13.2 20 20 C16.7 20 13.4 20 10 20 C10 23.3 10 26.6 10 30 C6.7 30 3.4 30 0 30 C0 36.6 0 43.2 0 50 C-3.3 50 -6.6 50 -10 50 C-10 53.3 -10 56.6 -10 60 C-13.3 60 -16.6 60 -20 60 C-20 63.3 -20 66.6 -20 70 C-23.3 70 -26.6 70 -30 70 C-30 73.3 -30 76.6 -30 80 C-33.3 80 -36.6 80 -40 80 C-40 86.6 -40 93.2 -40 100 C-43.3 100 -46.6 100 -50 100 C-50 106.6 -50 113.2 -50 120 C-53.3 120 -56.6 120 -60 120 C-60 123.3 -60 126.6 -60 130 C-63.3 130 -66.6 130 -70 130 C-70 136.6 -70 143.2 -70 150 C-73.3 150 -76.6 150 -80 150 C-80 159.9 -80 169.8 -80 180 C-83.3 180 -86.6 180 -90 180 C-90 189.9 -90 199.8 -90 210 C-86.7 210 -83.4 210 -80 210 C-80 276 -80 342 -80 410 C-83.3 410 -86.6 410 -90 410 C-90 413.3 -90 416.6 -90 420 C-129.6 420 -169.2 420 -210 420 C-210 416.7 -210 413.4 -210 410 C-213.3 410 -216.6 410 -220 410 C-220 344 -220 278 -220 210 C-216.7 210 -213.4 210 -210 210 C-210 206.7 -210 203.4 -210 200 C-216.6 200 -223.2 200 -230 200 C-230 196.7 -230 193.4 -230 190 C-236.6 190 -243.2 190 -250 190 C-250 186.7 -250 183.4 -250 180 C-259.9 180 -269.8 180 -280 180 C-280 176.7 -280 173.4 -280 170 C-286.6 170 -293.2 170 -300 170 C-300 166.7 -300 163.4 -300 160 C-303.3 160 -306.6 160 -310 160 C-310 156.7 -310 153.4 -310 150 C-313.3 150 -316.6 150 -320 150 C-320 143.4 -320 136.8 -320 130 C-310.1 130 -300.2 130 -290 130 C-290 133.3 -290 136.6 -290 140 C-270.2 140 -250.4 140 -230 140 C-230 143.3 -230 146.6 -230 150 C-216.8 150 -203.6 150 -190 150 C-190 153.3 -190 156.6 -190 160 C-186.7 160 -183.4 160 -180 160 C-180 163.3 -180 166.6 -180 170 C-176.7 170 -173.4 170 -170 170 C-170 153.5 -170 137 -170 120 C-166.7 120 -163.4 120 -160 120 C-160 129.9 -160 139.8 -160 150 C-156.7 150 -153.4 150 -150 150 C-150 143.4 -150 136.8 -150 130 C-146.7 130 -143.4 130 -140 130 C-140 123.4 -140 116.8 -140 110 C-136.7 110 -133.4 110 -130 110 C-130 103.4 -130 96.8 -130 90 C-126.7 90 -123.4 90 -120 90 C-120 86.7 -120 83.4 -120 80 C-116.7 80 -113.4 80 -110 80 C-110 73.4 -110 66.8 -110 60 C-106.7 60 -103.4 60 -100 60 C-100 63.3 -100 66.6 -100 70 C-96.7 70 -93.4 70 -90 70 C-90 66.7 -90 63.4 -90 60 C-86.7 60 -83.4 60 -80 60 C-80 56.7 -80 53.4 -80 50 C-76.7 50 -73.4 50 -70 50 C-70 46.7 -70 43.4 -70 40 C-66.7 40 -63.4 40 -60 40 C-60 36.7 -60 33.4 -60 30 C-56.7 30 -53.4 30 -50 30 C-50 26.7 -50 23.4 -50 20 C-40.1 20 -30.2 20 -20 20 C-20 16.7 -20 13.4 -20 10 C-13.4 10 -6.8 10 0 10 C0 6.7 0 3.4 0 0 Z " fill="#FFEBA0" transform="translate(470,220)"/>
<path d="M0 0 C6.6 0 13.2 0 20 0 C20 6.6 20 13.2 20 20 C16.7 20 13.4 20 10 20 C10 23.3 10 26.6 10 30 C6.7 30 3.4 30 0 30 C0 36.6 0 43.2 0 50 C-3.3 50 -6.6 50 -10 50 C-10 53.3 -10 56.6 -10 60 C-13.3 60 -16.6 60 -20 60 C-20 63.3 -20 66.6 -20 70 C-23.3 70 -26.6 70 -30 70 C-30 73.3 -30 76.6 -30 80 C-33.3 80 -36.6 80 -40 80 C-40 86.6 -40 93.2 -40 100 C-43.3 100 -46.6 100 -50 100 C-50 106.6 -50 113.2 -50 120 C-53.3 120 -56.6 120 -60 120 C-60 123.3 -60 126.6 -60 130 C-63.3 130 -66.6 130 -70 130 C-70 136.6 -70 143.2 -70 150 C-73.3 150 -76.6 150 -80 150 C-80 159.9 -80 169.8 -80 180 C-83.3 180 -86.6 180 -90 180 C-90 186.6 -90 193.2 -90 200 C-93.3 200 -96.6 200 -100 200 C-100 209.9 -100 219.8 -100 230 C-123.1 230 -146.2 230 -170 230 C-170 226.7 -170 223.4 -170 220 C-173.3 220 -176.6 220 -180 220 C-180 216.7 -180 213.4 -180 210 C-189.9 210 -199.8 210 -210 210 C-210 206.7 -210 203.4 -210 200 C-216.6 200 -223.2 200 -230 200 C-230 196.7 -230 193.4 -230 190 C-236.6 190 -243.2 190 -250 190 C-250 186.7 -250 183.4 -250 180 C-259.9 180 -269.8 180 -280 180 C-280 176.7 -280 173.4 -280 170 C-286.6 170 -293.2 170 -300 170 C-300 166.7 -300 163.4 -300 160 C-303.3 160 -306.6 160 -310 160 C-310 156.7 -310 153.4 -310 150 C-313.3 150 -316.6 150 -320 150 C-320 143.4 -320 136.8 -320 130 C-310.1 130 -300.2 130 -290 130 C-290 133.3 -290 136.6 -290 140 C-270.2 140 -250.4 140 -230 140 C-230 143.3 -230 146.6 -230 150 C-216.8 150 -203.6 150 -190 150 C-190 153.3 -190 156.6 -190 160 C-186.7 160 -183.4 160 -180 160 C-180 163.3 -180 166.6 -180 170 C-176.7 170 -173.4 170 -170 170 C-170 153.5 -170 137 -170 120 C-166.7 120 -163.4 120 -160 120 C-160 129.9 -160 139.8 -160 150 C-156.7 150 -153.4 150 -150 150 C-150 143.4 -150 136.8 -150 130 C-146.7 130 -143.4 130 -140 130 C-140 123.4 -140 116.8 -140 110 C-136.7 110 -133.4 110 -130 110 C-130 103.4 -130 96.8 -130 90 C-126.7 90 -123.4 90 -120 90 C-120 86.7 -120 83.4 -120 80 C-116.7 80 -113.4 80 -110 80 C-110 73.4 -110 66.8 -110 60 C-106.7 60 -103.4 60 -100 60 C-100 63.3 -100 66.6 -100 70 C-96.7 70 -93.4 70 -90 70 C-90 66.7 -90 63.4 -90 60 C-86.7 60 -83.4 60 -80 60 C-80 56.7 -80 53.4 -80 50 C-76.7 50 -73.4 50 -70 50 C-70 46.7 -70 43.4 -70 40 C-66.7 40 -63.4 40 -60 40 C-60 36.7 -60 33.4 -60 30 C-56.7 30 -53.4 30 -50 30 C-50 26.7 -50 23.4 -50 20 C-40.1 20 -30.2 20 -20 20 C-20 16.7 -20 13.4 -20 10 C-13.4 10 -6.8 10 0 10 C0 6.7 0 3.4 0 0 Z " fill="#87A889" transform="translate(470,220)"/>
<path d="M0 0 C13.2 0 26.4 0 40 0 C40 3.3 40 6.6 40 10 C43.3 10 46.6 10 50 10 C50 13.3 50 16.6 50 20 C53.3 20 56.6 20 60 20 C60 29.9 60 39.8 60 50 C63.3 50 66.6 50 70 50 C70 43.4 70 36.8 70 30 C73.3 30 76.6 30 80 30 C80 23.4 80 16.8 80 10 C96.5 10 113 10 130 10 C130 19.9 130 29.8 130 40 C126.7 40 123.4 40 120 40 C120 46.6 120 53.2 120 60 C126.6 60 133.2 60 140 60 C140 63.3 140 66.6 140 70 C143.3 70 146.6 70 150 70 C150 79.9 150 89.8 150 100 C140.1 100 130.2 100 120 100 C120 103.3 120 106.6 120 110 C123.3 110 126.6 110 130 110 C130 113.3 130 116.6 130 120 C133.3 120 136.6 120 140 120 C140 126.6 140 133.2 140 140 C136.7 140 133.4 140 130 140 C130 146.6 130 153.2 130 160 C116.8 160 103.6 160 90 160 C90 163.3 90 166.6 90 170 C86.7 170 83.4 170 80 170 C80 160.1 80 150.2 80 140 C76.7 140 73.4 140 70 140 C70 143.3 70 146.6 70 150 C66.7 150 63.4 150 60 150 C60 156.6 60 163.2 60 170 C56.7 170 53.4 170 50 170 C50 173.3 50 176.6 50 180 C36.8 180 23.6 180 10 180 C10 166.8 10 153.6 10 140 C13.3 140 16.6 140 20 140 C20 136.7 20 133.4 20 130 C10.1 130 0.2 130 -10 130 C-10 126.7 -10 123.4 -10 120 C-13.3 120 -16.6 120 -20 120 C-20 106.8 -20 93.6 -20 80 C-16.7 80 -13.4 80 -10 80 C-10 76.7 -10 73.4 -10 70 C-0.1 70 9.8 70 20 70 C20 66.7 20 63.4 20 60 C16.7 60 13.4 60 10 60 C10 56.7 10 53.4 10 50 C6.7 50 3.4 50 0 50 C0 33.5 0 17 0 0 Z M20 120 C20 123.3 20 126.6 20 130 C23.3 130 26.6 130 30 130 C30 126.7 30 123.4 30 120 C26.7 120 23.4 120 20 120 Z " fill="#F98284" transform="translate(190,120)"/>
<path d="M0 0 C3.3 0 6.6 0 10 0 C10 3.3 10 6.6 10 10 C13.3 10 16.6 10 20 10 C20 19.9 20 29.8 20 40 C16.7 40 13.4 40 10 40 C10 46.6 10 53.2 10 60 C13.3 60 16.6 60 20 60 C20 56.7 20 53.4 20 50 C33.2 50 46.4 50 60 50 C60 63.2 60 76.4 60 90 C53.4 90 46.8 90 40 90 C40 93.3 40 96.6 40 100 C36.7 100 33.4 100 30 100 C30 103.3 30 106.6 30 110 C33.3 110 36.6 110 40 110 C40 116.6 40 123.2 40 130 C36.7 130 33.4 130 30 130 C30 133.3 30 136.6 30 140 C16.8 140 3.6 140 -10 140 C-10 136.7 -10 133.4 -10 130 C-19.9 130 -29.8 130 -40 130 C-40 123.4 -40 116.8 -40 110 C-49.9 110 -59.8 110 -70 110 C-70 106.7 -70 103.4 -70 100 C-76.6 100 -83.2 100 -90 100 C-90 96.7 -90 93.4 -90 90 C-93.3 90 -96.6 90 -100 90 C-100 76.8 -100 63.6 -100 50 C-90.1 50 -80.2 50 -70 50 C-70 36.8 -70 23.6 -70 10 C-63.4 10 -56.8 10 -50 10 C-50 13.3 -50 16.6 -50 20 C-43.4 20 -36.8 20 -30 20 C-30 26.6 -30 33.2 -30 40 C-26.7 40 -23.4 40 -20 40 C-20 33.4 -20 26.8 -20 20 C-16.7 20 -13.4 20 -10 20 C-10 16.7 -10 13.4 -10 10 C-6.7 10 -3.4 10 0 10 C0 6.7 0 3.4 0 0 Z " fill="#FFAFB0" transform="translate(430,60)"/>
<path d="M0 0 C6.6 0 13.2 0 20 0 C20 6.6 20 13.2 20 20 C16.7 20 13.4 20 10 20 C10 23.3 10 26.6 10 30 C6.7 30 3.4 30 0 30 C0 36.6 0 43.2 0 50 C-3.3 50 -6.6 50 -10 50 C-10 53.3 -10 56.6 -10 60 C-13.3 60 -16.6 60 -20 60 C-20 63.3 -20 66.6 -20 70 C-23.3 70 -26.6 70 -30 70 C-30 73.3 -30 76.6 -30 80 C-33.3 80 -36.6 80 -40 80 C-40 86.6 -40 93.2 -40 100 C-43.3 100 -46.6 100 -50 100 C-50 106.6 -50 113.2 -50 120 C-53.3 120 -56.6 120 -60 120 C-60 123.3 -60 126.6 -60 130 C-63.3 130 -66.6 130 -70 130 C-70 136.6 -70 143.2 -70 150 C-73.3 150 -76.6 150 -80 150 C-80 159.9 -80 169.8 -80 180 C-83.3 180 -86.6 180 -90 180 C-90 186.6 -90 193.2 -90 200 C-93.3 200 -96.6 200 -100 200 C-100 209.9 -100 219.8 -100 230 C-106.6 230 -113.2 230 -120 230 C-120 206.9 -120 183.8 -120 160 C-116.7 160 -113.4 160 -110 160 C-110 143.5 -110 127 -110 110 C-106.7 110 -103.4 110 -100 110 C-100 96.8 -100 83.6 -100 70 C-96.7 70 -93.4 70 -90 70 C-90 66.7 -90 63.4 -90 60 C-86.7 60 -83.4 60 -80 60 C-80 56.7 -80 53.4 -80 50 C-76.7 50 -73.4 50 -70 50 C-70 46.7 -70 43.4 -70 40 C-66.7 40 -63.4 40 -60 40 C-60 36.7 -60 33.4 -60 30 C-56.7 30 -53.4 30 -50 30 C-50 26.7 -50 23.4 -50 20 C-40.1 20 -30.2 20 -20 20 C-20 16.7 -20 13.4 -20 10 C-13.4 10 -6.8 10 0 10 C0 6.7 0 3.4 0 0 Z " fill="#87A889" transform="translate(470,220)"/>
<path d="M0 0 C6.6 0 13.2 0 20 0 C20 3.3 20 6.6 20 10 C23.3 10 26.6 10 30 10 C30 13.3 30 16.6 30 20 C33.3 20 36.6 20 40 20 C40 29.9 40 39.8 40 50 C43.3 50 46.6 50 50 50 C50 56.6 50 63.2 50 70 C53.3 70 56.6 70 60 70 C60 73.3 60 76.6 60 80 C66.6 80 73.2 80 80 80 C80 76.7 80 73.4 80 70 C83.3 70 86.6 70 90 70 C90 66.7 90 63.4 90 60 C99.9 60 109.8 60 120 60 C120 63.3 120 66.6 120 70 C123.3 70 126.6 70 130 70 C130 73.3 130 76.6 130 80 C116.8 80 103.6 80 90 80 C90 83.3 90 86.6 90 90 C83.4 90 76.8 90 70 90 C70 93.3 70 96.6 70 100 C66.7 100 63.4 100 60 100 C60 103.3 60 106.6 60 110 C56.7 110 53.4 110 50 110 C50 116.6 50 123.2 50 130 C46.7 130 43.4 130 40 130 C40 136.6 40 143.2 40 150 C36.7 150 33.4 150 30 150 C30 153.3 30 156.6 30 160 C23.4 160 16.8 160 10 160 C10 153.4 10 146.8 10 140 C13.3 140 16.6 140 20 140 C20 136.7 20 133.4 20 130 C23.3 130 26.6 130 30 130 C30 123.4 30 116.8 30 110 C33.3 110 36.6 110 40 110 C40 106.7 40 103.4 40 100 C30.1 100 20.2 100 10 100 C10 106.6 10 113.2 10 120 C0.1 120 -9.8 120 -20 120 C-20 106.8 -20 93.6 -20 80 C-16.7 80 -13.4 80 -10 80 C-10 76.7 -10 73.4 -10 70 C-0.1 70 9.8 70 20 70 C20 73.3 20 76.6 20 80 C26.6 80 33.2 80 40 80 C40 73.4 40 66.8 40 60 C36.7 60 33.4 60 30 60 C30 56.7 30 53.4 30 50 C26.7 50 23.4 50 20 50 C20 46.7 20 43.4 20 40 C16.7 40 13.4 40 10 40 C10 36.7 10 33.4 10 30 C6.7 30 3.4 30 0 30 C0 20.1 0 10.2 0 0 Z " fill="#FFF7A0" transform="translate(200,130)"/>
<path d="M0 0 C9.9 0 19.8 0 30 0 C30 3.3 30 6.6 30 10 C36.6 10 43.2 10 50 10 C50 13.3 50 16.6 50 20 C59.9 20 69.8 20 80 20 C80 23.3 80 26.6 80 30 C86.6 30 93.2 30 100 30 C100 33.3 100 36.6 100 40 C106.6 40 113.2 40 120 40 C120 43.3 120 46.6 120 50 C126.6 50 133.2 50 140 50 C140 53.3 140 56.6 140 60 C146.6 60 153.2 60 160 60 C160 63.3 160 66.6 160 70 C163.3 70 166.6 70 170 70 C170 73.3 170 76.6 170 80 C173.3 80 176.6 80 180 80 C180 70.1 180 60.2 180 50 C183.3 50 186.6 50 190 50 C190 66.5 190 83 190 100 C176.8 100 163.6 100 150 100 C150 96.7 150 93.4 150 90 C146.7 90 143.4 90 140 90 C140 86.7 140 83.4 140 80 C130.1 80 120.2 80 110 80 C110 76.7 110 73.4 110 70 C103.4 70 96.8 70 90 70 C90 66.7 90 63.4 90 60 C83.4 60 76.8 60 70 60 C70 56.7 70 53.4 70 50 C60.1 50 50.2 50 40 50 C40 46.7 40 43.4 40 40 C33.4 40 26.8 40 20 40 C20 36.7 20 33.4 20 30 C16.7 30 13.4 30 10 30 C10 26.7 10 23.4 10 20 C6.7 20 3.4 20 0 20 C0 13.4 0 6.8 0 0 Z " fill="#719874" transform="translate(150,350)"/>
<path d="M0 0 C3.3 0 6.6 0 10 0 C10 6.6 10 13.2 10 20 C13.3 20 16.6 20 20 20 C20 16.7 20 13.4 20 10 C33.2 10 46.4 10 60 10 C60 23.2 60 36.4 60 50 C53.4 50 46.8 50 40 50 C40 53.3 40 56.6 40 60 C36.7 60 33.4 60 30 60 C30 63.3 30 66.6 30 70 C33.3 70 36.6 70 40 70 C40 76.6 40 83.2 40 90 C36.7 90 33.4 90 30 90 C30 93.3 30 96.6 30 100 C16.8 100 3.6 100 -10 100 C-10 96.7 -10 93.4 -10 90 C-16.6 90 -23.2 90 -30 90 C-30 83.4 -30 76.8 -30 70 C-26.7 70 -23.4 70 -20 70 C-20 66.7 -20 63.4 -20 60 C-16.7 60 -13.4 60 -10 60 C-10 50.1 -10 40.2 -10 30 C-6.7 30 -3.4 30 0 30 C0 20.1 0 10.2 0 0 Z " fill="#F98284" transform="translate(430,100)"/>
<path d="M0 0 C9.9 0 19.8 0 30 0 C30 3.3 30 6.6 30 10 C26.7 10 23.4 10 20 10 C20 16.6 20 23.2 20 30 C16.7 30 13.4 30 10 30 C10 33.3 10 36.6 10 40 C6.7 40 3.4 40 0 40 C0 46.6 0 53.2 0 60 C6.6 60 13.2 60 20 60 C20 56.7 20 53.4 20 50 C23.3 50 26.6 50 30 50 C30 43.4 30 36.8 30 30 C33.3 30 36.6 30 40 30 C40 23.4 40 16.8 40 10 C43.3 10 46.6 10 50 10 C50 6.7 50 3.4 50 0 C63.2 0 76.4 0 90 0 C90 3.3 90 6.6 90 10 C93.3 10 96.6 10 100 10 C100 13.3 100 16.6 100 20 C103.3 20 106.6 20 110 20 C110 29.9 110 39.8 110 50 C96.8 50 83.6 50 70 50 C70 53.3 70 56.6 70 60 C66.7 60 63.4 60 60 60 C60 50.1 60 40.2 60 30 C56.7 30 53.4 30 50 30 C50 33.3 50 36.6 50 40 C46.7 40 43.4 40 40 40 C40 46.6 40 53.2 40 60 C36.7 60 33.4 60 30 60 C30 63.3 30 66.6 30 70 C16.8 70 3.6 70 -10 70 C-10 56.8 -10 43.6 -10 30 C-6.7 30 -3.4 30 0 30 C0 26.7 0 23.4 0 20 C3.3 20 6.6 20 10 20 C10 16.7 10 13.4 10 10 C6.7 10 3.4 10 0 10 C0 6.7 0 3.4 0 0 Z " fill="#F98284" transform="translate(210,230)"/>
<path d="M0 0 C6.6 0 13.2 0 20 0 C20 6.6 20 13.2 20 20 C16.7 20 13.4 20 10 20 C10 23.3 10 26.6 10 30 C3.4 30 -3.2 30 -10 30 C-10 33.3 -10 36.6 -10 40 C-16.6 40 -23.2 40 -30 40 C-30 43.3 -30 46.6 -30 50 C-33.3 50 -36.6 50 -40 50 C-40 53.3 -40 56.6 -40 60 C-43.3 60 -46.6 60 -50 60 C-50 63.3 -50 66.6 -50 70 C-53.3 70 -56.6 70 -60 70 C-60 73.3 -60 76.6 -60 80 C-63.3 80 -66.6 80 -70 80 C-70 83.3 -70 86.6 -70 90 C-73.3 90 -76.6 90 -80 90 C-80 96.6 -80 103.2 -80 110 C-83.3 110 -86.6 110 -90 110 C-90 113.3 -90 116.6 -90 120 C-93.3 120 -96.6 120 -100 120 C-100 126.6 -100 133.2 -100 140 C-103.3 140 -106.6 140 -110 140 C-110 130.1 -110 120.2 -110 110 C-106.7 110 -103.4 110 -100 110 C-100 96.8 -100 83.6 -100 70 C-96.7 70 -93.4 70 -90 70 C-90 66.7 -90 63.4 -90 60 C-86.7 60 -83.4 60 -80 60 C-80 56.7 -80 53.4 -80 50 C-76.7 50 -73.4 50 -70 50 C-70 46.7 -70 43.4 -70 40 C-66.7 40 -63.4 40 -60 40 C-60 36.7 -60 33.4 -60 30 C-56.7 30 -53.4 30 -50 30 C-50 26.7 -50 23.4 -50 20 C-40.1 20 -30.2 20 -20 20 C-20 16.7 -20 13.4 -20 10 C-13.4 10 -6.8 10 0 10 C0 6.7 0 3.4 0 0 Z " fill="#87A889" transform="translate(470,220)"/>
<path d="M0 0 C6.6 0 13.2 0 20 0 C20 3.3 20 6.6 20 10 C16.7 10 13.4 10 10 10 C10 23.2 10 36.4 10 50 C13.3 50 16.6 50 20 50 C20 53.3 20 56.6 20 60 C23.3 60 26.6 60 30 60 C30 63.3 30 66.6 30 70 C26.7 70 23.4 70 20 70 C20 76.6 20 83.2 20 90 C23.3 90 26.6 90 30 90 C30 93.3 30 96.6 30 100 C20.1 100 10.2 100 0 100 C0 96.7 0 93.4 0 90 C-6.6 90 -13.2 90 -20 90 C-20 86.7 -20 83.4 -20 80 C-23.3 80 -26.6 80 -30 80 C-30 66.8 -30 53.6 -30 40 C-20.1 40 -10.2 40 0 40 C0 26.8 0 13.6 0 0 Z " fill="#F98284" transform="translate(360,70)"/>
<path d="M0 0 C9.9 0 19.8 0 30 0 C30 3.3 30 6.6 30 10 C39.9 10 49.8 10 60 10 C60 13.3 60 16.6 60 20 C66.6 20 73.2 20 80 20 C80 23.3 80 26.6 80 30 C86.6 30 93.2 30 100 30 C100 33.3 100 36.6 100 40 C106.6 40 113.2 40 120 40 C120 43.3 120 46.6 120 50 C126.6 50 133.2 50 140 50 C140 53.3 140 56.6 140 60 C143.3 60 146.6 60 150 60 C150 63.3 150 66.6 150 70 C153.3 70 156.6 70 160 70 C160 73.3 160 76.6 160 80 C153.4 80 146.8 80 140 80 C140 76.7 140 73.4 140 70 C136.7 70 133.4 70 130 70 C130 66.7 130 63.4 130 60 C120.1 60 110.2 60 100 60 C100 56.7 100 53.4 100 50 C93.4 50 86.8 50 80 50 C80 46.7 80 43.4 80 40 C73.4 40 66.8 40 60 40 C60 36.7 60 33.4 60 30 C50.1 30 40.2 30 30 30 C30 26.7 30 23.4 30 20 C23.4 20 16.8 20 10 20 C10 16.7 10 13.4 10 10 C6.7 10 3.4 10 0 10 C0 6.7 0 3.4 0 0 Z " fill="#87A889" transform="translate(160,370)"/>
<path d="M0 0 C3.3 0 6.6 0 10 0 C10 3.3 10 6.6 10 10 C49.6 10 89.2 10 130 10 C130 6.7 130 3.4 130 0 C133.3 0 136.6 0 140 0 C140 6.6 140 13.2 140 20 C136.7 20 133.4 20 130 20 C130 23.3 130 26.6 130 30 C90.4 30 50.8 30 10 30 C10 26.7 10 23.4 10 20 C6.7 20 3.4 20 0 20 C0 13.4 0 6.8 0 0 Z " fill="#FFF7A0" transform="translate(250,610)"/>
<path d="M0 0 C3.3 0 6.6 0 10 0 C10 6.6 10 13.2 10 20 C16.6 20 23.2 20 30 20 C30 23.3 30 26.6 30 30 C33.3 30 36.6 30 40 30 C40 39.9 40 49.8 40 60 C30.1 60 20.2 60 10 60 C10 63.3 10 66.6 10 70 C13.3 70 16.6 70 20 70 C20 73.3 20 76.6 20 80 C23.3 80 26.6 80 30 80 C30 86.6 30 93.2 30 100 C26.7 100 23.4 100 20 100 C20 96.7 20 93.4 20 90 C16.7 90 13.4 90 10 90 C10 86.7 10 83.4 10 80 C6.7 80 3.4 80 0 80 C0 76.7 0 73.4 0 70 C-9.9 70 -19.8 70 -30 70 C-30 66.7 -30 63.4 -30 60 C-23.4 60 -16.8 60 -10 60 C-10 56.7 -10 53.4 -10 50 C3.2 50 16.4 50 30 50 C30 46.7 30 43.4 30 40 C26.7 40 23.4 40 20 40 C20 36.7 20 33.4 20 30 C10.1 30 0.2 30 -10 30 C-10 33.3 -10 36.6 -10 40 C-13.3 40 -16.6 40 -20 40 C-20 43.3 -20 46.6 -20 50 C-26.6 50 -33.2 50 -40 50 C-40 46.7 -40 43.4 -40 40 C-36.7 40 -33.4 40 -30 40 C-30 36.7 -30 33.4 -30 30 C-26.7 30 -23.4 30 -20 30 C-20 26.7 -20 23.4 -20 20 C-13.4 20 -6.8 20 0 20 C0 13.4 0 6.8 0 0 Z " fill="#F98284" transform="translate(300,160)"/>
<path d="M0 0 C13.2 0 26.4 0 40 0 C40 3.3 40 6.6 40 10 C46.6 10 53.2 10 60 10 C60 16.6 60 23.2 60 30 C56.7 30 53.4 30 50 30 C50 33.3 50 36.6 50 40 C36.8 40 23.6 40 10 40 C10 36.7 10 33.4 10 30 C3.4 30 -3.2 30 -10 30 C-10 23.4 -10 16.8 -10 10 C-6.7 10 -3.4 10 0 10 C0 6.7 0 3.4 0 0 Z " fill="#FFAFB0" transform="translate(410,160)"/>
<path d="M0 0 C16.5 0 33 0 50 0 C50 9.9 50 19.8 50 30 C43.4 30 36.8 30 30 30 C30 36.6 30 43.2 30 50 C23.4 50 16.8 50 10 50 C10 53.3 10 56.6 10 60 C6.7 60 3.4 60 0 60 C0 40.2 0 20.4 0 0 Z " fill="#FFAFB0" transform="translate(270,130)"/>
<path d="M0 0 C9.9 0 19.8 0 30 0 C30 3.3 30 6.6 30 10 C33.3 10 36.6 10 40 10 C40 16.6 40 23.2 40 30 C33.4 30 26.8 30 20 30 C20 36.6 20 43.2 20 50 C10.1 50 0.2 50 -10 50 C-10 36.8 -10 23.6 -10 10 C-6.7 10 -3.4 10 0 10 C0 6.7 0 3.4 0 0 Z " fill="#FFAFB0" transform="translate(190,200)"/>
<path d="M0 0 C13.2 0 26.4 0 40 0 C40 3.3 40 6.6 40 10 C53.2 10 66.4 10 80 10 C80 13.3 80 16.6 80 20 C83.3 20 86.6 20 90 20 C90 23.3 90 26.6 90 30 C93.3 30 96.6 30 100 30 C100 33.3 100 36.6 100 40 C103.3 40 106.6 40 110 40 C110 43.3 110 46.6 110 50 C103.4 50 96.8 50 90 50 C90 46.7 90 43.4 90 40 C83.4 40 76.8 40 70 40 C70 36.7 70 33.4 70 30 C63.4 30 56.8 30 50 30 C50 26.7 50 23.4 50 20 C43.4 20 36.8 20 30 20 C30 16.7 30 13.4 30 10 C20.1 10 10.2 10 0 10 C0 6.7 0 3.4 0 0 Z " fill="#87A889" transform="translate(200,360)"/>
<path d="M0 0 C6.6 0 13.2 0 20 0 C20 3.3 20 6.6 20 10 C16.7 10 13.4 10 10 10 C10 13.3 10 16.6 10 20 C6.7 20 3.4 20 0 20 C0 23.3 0 26.6 0 30 C-3.3 30 -6.6 30 -10 30 C-10 33.3 -10 36.6 -10 40 C-13.3 40 -16.6 40 -20 40 C-20 43.3 -20 46.6 -20 50 C-23.3 50 -26.6 50 -30 50 C-30 56.6 -30 63.2 -30 70 C-33.3 70 -36.6 70 -40 70 C-40 73.3 -40 76.6 -40 80 C-43.3 80 -46.6 80 -50 80 C-50 86.6 -50 93.2 -50 100 C-53.3 100 -56.6 100 -60 100 C-60 90.1 -60 80.2 -60 70 C-56.7 70 -53.4 70 -50 70 C-50 66.7 -50 63.4 -50 60 C-46.7 60 -43.4 60 -40 60 C-40 53.4 -40 46.8 -40 40 C-36.7 40 -33.4 40 -30 40 C-30 36.7 -30 33.4 -30 30 C-26.7 30 -23.4 30 -20 30 C-20 26.7 -20 23.4 -20 20 C-16.7 20 -13.4 20 -10 20 C-10 16.7 -10 13.4 -10 10 C-6.7 10 -3.4 10 0 10 C0 6.7 0 3.4 0 0 Z " fill="#719874" transform="translate(420,260)"/>
<path d="M0 0 C6.6 0 13.2 0 20 0 C20 3.3 20 6.6 20 10 C23.3 10 26.6 10 30 10 C30 13.3 30 16.6 30 20 C33.3 20 36.6 20 40 20 C40 29.9 40 39.8 40 50 C43.3 50 46.6 50 50 50 C50 56.6 50 63.2 50 70 C46.7 70 43.4 70 40 70 C40 66.7 40 63.4 40 60 C36.7 60 33.4 60 30 60 C30 56.7 30 53.4 30 50 C26.7 50 23.4 50 20 50 C20 46.7 20 43.4 20 40 C16.7 40 13.4 40 10 40 C10 36.7 10 33.4 10 30 C6.7 30 3.4 30 0 30 C0 20.1 0 10.2 0 0 Z " fill="#FFAFB0" transform="translate(200,130)"/>
<path d="M0 0 C6.6 0 13.2 0 20 0 C20 3.3 20 6.6 20 10 C23.3 10 26.6 10 30 10 C30 16.6 30 23.2 30 30 C26.7 30 23.4 30 20 30 C20 33.3 20 36.6 20 40 C16.7 40 13.4 40 10 40 C10 46.6 10 53.2 10 60 C6.7 60 3.4 60 0 60 C0 50.1 0 40.2 0 30 C-3.3 30 -6.6 30 -10 30 C-10 23.4 -10 16.8 -10 10 C-6.7 10 -3.4 10 0 10 C0 6.7 0 3.4 0 0 Z " fill="#FFF7A0" transform="translate(390,130)"/>
<path d="M0 0 C9.9 0 19.8 0 30 0 C30 3.3 30 6.6 30 10 C33.3 10 36.6 10 40 10 C40 13.3 40 16.6 40 20 C43.3 20 46.6 20 50 20 C50 23.3 50 26.6 50 30 C46.7 30 43.4 30 40 30 C40 33.3 40 36.6 40 40 C33.4 40 26.8 40 20 40 C20 33.4 20 26.8 20 20 C13.4 20 6.8 20 0 20 C0 13.4 0 6.8 0 0 Z " fill="#FFAFB0" transform="translate(270,230)"/>
<path d="M0 0 C6.6 0 13.2 0 20 0 C20 6.6 20 13.2 20 20 C26.6 20 33.2 20 40 20 C40 16.7 40 13.4 40 10 C43.3 10 46.6 10 50 10 C50 16.6 50 23.2 50 30 C36.8 30 23.6 30 10 30 C10 33.3 10 36.6 10 40 C6.7 40 3.4 40 0 40 C0 26.8 0 13.6 0 0 Z " fill="#F98284" transform="translate(270,250)"/>
<path d="M0 0 C6.6 0 13.2 0 20 0 C20 6.6 20 13.2 20 20 C16.7 20 13.4 20 10 20 C10 26.6 10 33.2 10 40 C6.7 40 3.4 40 0 40 C0 43.3 0 46.6 0 50 C-6.6 50 -13.2 50 -20 50 C-20 43.4 -20 36.8 -20 30 C-16.7 30 -13.4 30 -10 30 C-10 26.7 -10 23.4 -10 20 C-6.7 20 -3.4 20 0 20 C0 13.4 0 6.8 0 0 Z " fill="#FFAFB0" transform="translate(230,240)"/>
<path d="M0 0 C6.6 0 13.2 0 20 0 C20 6.6 20 13.2 20 20 C16.7 20 13.4 20 10 20 C10 23.3 10 26.6 10 30 C3.4 30 -3.2 30 -10 30 C-10 33.3 -10 36.6 -10 40 C-16.6 40 -23.2 40 -30 40 C-30 36.7 -30 33.4 -30 30 C-26.7 30 -23.4 30 -20 30 C-20 23.4 -20 16.8 -20 10 C-13.4 10 -6.8 10 0 10 C0 6.7 0 3.4 0 0 Z " fill="#719874" transform="translate(470,220)"/>
<path d="M0 0 C3.3 0 6.6 0 10 0 C10 16.5 10 33 10 50 C6.7 50 3.4 50 0 50 C0 63.2 0 76.4 0 90 C-3.3 90 -6.6 90 -10 90 C-10 73.5 -10 57 -10 40 C-6.7 40 -3.4 40 0 40 C0 26.8 0 13.6 0 0 Z " fill="#B0EB93" transform="translate(380,190)"/>
<path d="M0 0 C9.9 0 19.8 0 30 0 C30 3.3 30 6.6 30 10 C33.3 10 36.6 10 40 10 C40 13.3 40 16.6 40 20 C26.8 20 13.6 20 0 20 C0 23.3 0 26.6 0 30 C-6.6 30 -13.2 30 -20 30 C-20 26.7 -20 23.4 -20 20 C-16.7 20 -13.4 20 -10 20 C-10 16.7 -10 13.4 -10 10 C-6.7 10 -3.4 10 0 10 C0 6.7 0 3.4 0 0 Z " fill="#FFAFB0" transform="translate(290,190)"/>
<path d="M0 0 C6.6 0 13.2 0 20 0 C20 6.6 20 13.2 20 20 C13.4 20 6.8 20 0 20 C0 23.3 0 26.6 0 30 C-13.2 30 -26.4 30 -40 30 C-40 26.7 -40 23.4 -40 20 C-33.4 20 -26.8 20 -20 20 C-20 16.7 -20 13.4 -20 10 C-13.4 10 -6.8 10 0 10 C0 6.7 0 3.4 0 0 Z " fill="#FFAFB0" transform="translate(460,120)"/>
<path d="M0 0 C3.3 0 6.6 0 10 0 C10 3.3 10 6.6 10 10 C13.3 10 16.6 10 20 10 C20 16.6 20 23.2 20 30 C23.3 30 26.6 30 30 30 C30 36.6 30 43.2 30 50 C23.4 50 16.8 50 10 50 C10 46.7 10 43.4 10 40 C6.7 40 3.4 40 0 40 C0 26.8 0 13.6 0 0 Z " fill="#FFAFB0" transform="translate(370,80)"/>
<path d="M0 0 C6.6 0 13.2 0 20 0 C20 3.3 20 6.6 20 10 C23.3 10 26.6 10 30 10 C30 13.3 30 16.6 30 20 C33.3 20 36.6 20 40 20 C40 26.6 40 33.2 40 40 C36.7 40 33.4 40 30 40 C30 36.7 30 33.4 30 30 C23.4 30 16.8 30 10 30 C10 26.7 10 23.4 10 20 C6.7 20 3.4 20 0 20 C0 13.4 0 6.8 0 0 Z " fill="#FFAFB0" transform="translate(340,120)"/>
<path d="M0 0 C16.5 0 33 0 50 0 C50 9.9 50 19.8 50 30 C46.7 30 43.4 30 40 30 C40 23.4 40 16.8 40 10 C30.1 10 20.2 10 10 10 C10 13.3 10 16.6 10 20 C6.7 20 3.4 20 0 20 C0 13.4 0 6.8 0 0 Z " fill="#F98284" transform="translate(270,130)"/>
<path d="M0 0 C3.3 0 6.6 0 10 0 C10 23.1 10 46.2 10 70 C6.7 70 3.4 70 0 70 C0 46.9 0 23.8 0 0 Z " fill="#B0EB93" transform="translate(340,380)"/>
<path d="M0 0 C6.6 0 13.2 0 20 0 C20 6.6 20 13.2 20 20 C23.3 20 26.6 20 30 20 C30 29.9 30 39.8 30 50 C26.7 50 23.4 50 20 50 C20 43.4 20 36.8 20 30 C16.7 30 13.4 30 10 30 C10 23.4 10 16.8 10 10 C6.7 10 3.4 10 0 10 C0 6.7 0 3.4 0 0 Z " fill="#F98284" transform="translate(380,80)"/>
<path d="M0 0 C6.6 0 13.2 0 20 0 C20 3.3 20 6.6 20 10 C23.3 10 26.6 10 30 10 C30 13.3 30 16.6 30 20 C16.8 20 3.6 20 -10 20 C-10 16.7 -10 13.4 -10 10 C-6.7 10 -3.4 10 0 10 C0 6.7 0 3.4 0 0 Z " fill="#FFC384" transform="translate(270,430)"/>
<path d="M0 0 C3.3 0 6.6 0 10 0 C10 19.8 10 39.6 10 60 C6.7 60 3.4 60 0 60 C0 40.2 0 20.4 0 0 Z " fill="#B0EB93" transform="translate(300,340)"/>
<path d="M0 0 C3.3 0 6.6 0 10 0 C10 16.5 10 33 10 50 C6.7 50 3.4 50 0 50 C0 33.5 0 17 0 0 Z " fill="#B0EB93" transform="translate(350,330)"/>
<path d="M0 0 C3.3 0 6.6 0 10 0 C10 16.5 10 33 10 50 C6.7 50 3.4 50 0 50 C0 33.5 0 17 0 0 Z " fill="#B0EB93" transform="translate(360,280)"/>
<path d="M0 0 C13.2 0 26.4 0 40 0 C40 3.3 40 6.6 40 10 C26.8 10 13.6 10 0 10 C0 6.7 0 3.4 0 0 Z " fill="#F98284" transform="translate(420,190)"/>
<path d="M0 0 C3.3 0 6.6 0 10 0 C10 9.9 10 19.8 10 30 C6.7 30 3.4 30 0 30 C0 20.1 0 10.2 0 0 Z " fill="#B0EB93" transform="translate(280,290)"/>
<path d="M0 0 C3.3 0 6.6 0 10 0 C10 9.9 10 19.8 10 30 C6.7 30 3.4 30 0 30 C0 20.1 0 10.2 0 0 Z " fill="#B0EB93" transform="translate(270,260)"/>
<path d="M0 0 C9.9 0 19.8 0 30 0 C30 3.3 30 6.6 30 10 C20.1 10 10.2 10 0 10 C0 6.7 0 3.4 0 0 Z " fill="#F98284" transform="translate(180,240)"/>
<path d="M0 0 C3.3 0 6.6 0 10 0 C10 3.3 10 6.6 10 10 C13.3 10 16.6 10 20 10 C20 13.3 20 16.6 20 20 C13.4 20 6.8 20 0 20 C0 13.4 0 6.8 0 0 Z " fill="#F98284" transform="translate(400,170)"/>
<path d="M0 0 C3.3 0 6.6 0 10 0 C10 9.9 10 19.8 10 30 C6.7 30 3.4 30 0 30 C0 20.1 0 10.2 0 0 Z " fill="#F98284" transform="translate(440,70)"/>
<path d="M0 0 C6.6 0 13.2 0 20 0 C20 3.3 20 6.6 20 10 C13.4 10 6.8 10 0 10 C0 6.7 0 3.4 0 0 Z " fill="#87A889" transform="translate(160,350)"/>
<path d="M0 0 C3.3 0 6.6 0 10 0 C10 6.6 10 13.2 10 20 C6.7 20 3.4 20 0 20 C0 13.4 0 6.8 0 0 Z " fill="#B0EB93" transform="translate(290,320)"/>
<path d="M0 0 C3.3 0 6.6 0 10 0 C10 6.6 10 13.2 10 20 C6.7 20 3.4 20 0 20 C0 13.4 0 6.8 0 0 Z " fill="#F98284" transform="translate(460,170)"/>
<path d="M0 0 C3.3 0 6.6 0 10 0 C10 6.6 10 13.2 10 20 C6.7 20 3.4 20 0 20 C0 13.4 0 6.8 0 0 Z " fill="#B0EB93" transform="translate(390,170)"/>
<path d="M0 0 C3.3 0 6.6 0 10 0 C10 6.6 10 13.2 10 20 C6.7 20 3.4 20 0 20 C0 13.4 0 6.8 0 0 Z " fill="#F98284" transform="translate(410,80)"/>
<path d="M0 0 C3.3 0 6.6 0 10 0 C10 3.3 10 6.6 10 10 C6.7 10 3.4 10 0 10 C0 6.7 0 3.4 0 0 Z " fill="#FFC384" transform="translate(370,440)"/>
<path d="M0 0 C3.3 0 6.6 0 10 0 C10 3.3 10 6.6 10 10 C6.7 10 3.4 10 0 10 C0 6.7 0 3.4 0 0 Z " fill="#B0EB93" transform="translate(310,400)"/>
<path d="M0 0 C3.3 0 6.6 0 10 0 C10 3.3 10 6.6 10 10 C6.7 10 3.4 10 0 10 C0 6.7 0 3.4 0 0 Z " fill="#87A889" transform="translate(360,330)"/>
<path d="M0 0 C3.3 0 6.6 0 10 0 C10 3.3 10 6.6 10 10 C6.7 10 3.4 10 0 10 C0 6.7 0 3.4 0 0 Z " fill="#B0EB93" transform="translate(260,250)"/>
<path d="M0 0 C3.3 0 6.6 0 10 0 C10 3.3 10 6.6 10 10 C6.7 10 3.4 10 0 10 C0 6.7 0 3.4 0 0 Z " fill="#87A889" transform="translate(470,240)"/>
<path d="M0 0 C3.3 0 6.6 0 10 0 C10 3.3 10 6.6 10 10 C6.7 10 3.4 10 0 10 C0 6.7 0 3.4 0 0 Z " fill="#87A889" transform="translate(450,230)"/>
<path d="M0 0 C3.3 0 6.6 0 10 0 C10 3.3 10 6.6 10 10 C6.7 10 3.4 10 0 10 C0 6.7 0 3.4 0 0 Z " fill="#87A889" transform="translate(470,220)"/>
<path d="M0 0 C3.3 0 6.6 0 10 0 C10 3.3 10 6.6 10 10 C6.7 10 3.4 10 0 10 C0 6.7 0 3.4 0 0 Z " fill="#FFC384" transform="translate(260,190)"/>
<path d="M0 0 C3.3 0 6.6 0 10 0 C10 3.3 10 6.6 10 10 C6.7 10 3.4 10 0 10 C0 6.7 0 3.4 0 0 Z " fill="#EFAE6B" transform="translate(410,160)"/>
<path d="M0 0 C3.3 0 6.6 0 10 0 C10 3.3 10 6.6 10 10 C6.7 10 3.4 10 0 10 C0 6.7 0 3.4 0 0 Z " fill="#F98284" transform="translate(420,70)"/>
<path d="M0 0 C3.3 0 6.6 0 10 0 C10 3.3 10 6.6 10 10 C6.7 10 3.4 10 0 10 C0 6.7 0 3.4 0 0 Z " fill="#F98284" transform="translate(430,60)"/>
</svg>
