<?xml version="1.0" encoding="UTF-8"?>
<!DOCTYPE svg PUBLIC "-//W3C//DTD SVG 1.1//EN" "http://www.w3.org/Graphics/SVG/1.1/DTD/svg11.dtd">
<svg xmlns="http://www.w3.org/2000/svg" version="1.1" width="512px" height="512px" style="shape-rendering:geometricPrecision; text-rendering:geometricPrecision; image-rendering:optimizeQuality; fill-rule:evenodd; clip-rule:evenodd" xmlns:xlink="http://www.w3.org/1999/xlink">
<g><path style="opacity:0.99" fill="#7a9b7b" d="M 144.5,239.5 C 144.167,239.5 143.833,239.5 143.5,239.5C 133.167,239.5 122.833,239.5 112.5,239.5C 112.5,186.5 112.5,133.5 112.5,80.5C 123.167,80.5 133.833,80.5 144.5,80.5C 144.5,133.5 144.5,186.5 144.5,239.5 Z"/></g>
<g><path style="opacity:0.971" fill="#7a9c7b" d="M 271.5,176.5 C 270.833,176.5 270.5,176.167 270.5,175.5C 270.5,165.167 270.5,154.833 270.5,144.5C 260.5,144.5 250.5,144.5 240.5,144.5C 240.5,154.833 240.5,165.167 240.5,175.5C 240.5,176.167 240.167,176.5 239.5,176.5C 228.833,176.5 218.167,176.5 207.5,176.5C 207.5,165.5 207.5,154.5 207.5,143.5C 218.167,143.5 228.833,143.5 239.5,143.5C 239.5,122.5 239.5,101.5 239.5,80.5C 250.167,80.5 260.833,80.5 271.5,80.5C 271.5,101.5 271.5,122.5 271.5,143.5C 282.167,143.5 292.833,143.5 303.5,143.5C 303.5,154.5 303.5,165.5 303.5,176.5C 292.833,176.5 282.167,176.5 271.5,176.5 Z M 270.5,175.5 C 260.5,175.5 250.5,175.5 240.5,175.5C 240.5,165.167 240.5,154.833 240.5,144.5C 250.5,144.5 260.5,144.5 270.5,144.5C 270.5,154.833 270.5,165.167 270.5,175.5 Z"/></g>
<g><path style="opacity:0.989" fill="#799b7b" d="M 398.5,334.5 C 397.833,334.5 397.5,334.833 397.5,335.5C 387.5,335.5 377.5,335.5 367.5,335.5C 366.506,345.653 366.172,355.986 366.5,366.5C 355.986,366.172 345.653,366.506 335.5,367.5C 334.505,356.679 334.172,345.679 334.5,334.5C 345.167,334.5 355.833,334.5 366.5,334.5C 366.5,249.833 366.5,165.167 366.5,80.5C 377.167,80.5 387.833,80.5 398.5,80.5C 398.5,165.167 398.5,249.833 398.5,334.5 Z"/></g>
<g><path style="opacity:0.991" fill="#7a9c7b" d="M 240.5,175.5 C 250.5,175.5 260.5,175.5 270.5,175.5C 270.5,176.167 270.833,176.5 271.5,176.5C 271.5,261.167 271.5,345.833 271.5,430.5C 260.833,430.5 250.167,430.5 239.5,430.5C 239.5,345.833 239.5,261.167 239.5,176.5C 240.167,176.5 240.5,176.167 240.5,175.5 Z"/></g>
<g><path style="opacity:0.981" fill="#7a9c7b" d="M 112.5,239.5 C 112.5,250.167 112.5,260.833 112.5,271.5C 101.833,271.5 91.1667,271.5 80.5,271.5C 80.5,260.833 80.5,250.167 80.5,239.5C 91.1667,239.5 101.833,239.5 112.5,239.5 Z"/></g>
<g><path style="opacity:0.125" fill="#789d7f" d="M 112.5,239.5 C 122.833,239.5 133.167,239.5 143.5,239.5C 143.5,239.833 143.5,240.167 143.5,240.5C 133.5,240.5 123.5,240.5 113.5,240.5C 113.5,250.5 113.5,260.5 113.5,270.5C 113.5,271.167 113.167,271.5 112.5,271.5C 112.5,260.833 112.5,250.167 112.5,239.5 Z"/></g>
<g><path style="opacity:0.984" fill="#7a9c7b" d="M 143.5,239.5 C 143.833,239.5 144.167,239.5 144.5,239.5C 155.167,239.5 165.833,239.5 176.5,239.5C 176.5,250.167 176.5,260.833 176.5,271.5C 165.833,271.5 155.167,271.5 144.5,271.5C 144.5,324.5 144.5,377.5 144.5,430.5C 133.833,430.5 123.167,430.5 112.5,430.5C 112.5,377.5 112.5,324.5 112.5,271.5C 113.167,271.5 113.5,271.167 113.5,270.5C 123.5,270.5 133.5,270.5 143.5,270.5C 143.5,260.5 143.5,250.5 143.5,240.5C 143.5,240.167 143.5,239.833 143.5,239.5 Z"/></g>
<g><path style="opacity:0.977" fill="#7a9c7b" d="M 398.5,334.5 C 409.167,334.5 419.833,334.5 430.5,334.5C 430.828,345.679 430.495,356.679 429.5,367.5C 419.347,366.506 409.014,366.172 398.5,366.5C 398.5,355.833 398.5,345.167 398.5,334.5 Z"/></g>
<g><path style="opacity:0.985" fill="#799b7c" d="M 398.5,334.5 C 398.5,345.167 398.5,355.833 398.5,366.5C 409.014,366.172 419.347,366.506 429.5,367.5C 419.167,367.5 408.833,367.5 398.5,367.5C 398.5,388.5 398.5,409.5 398.5,430.5C 387.833,430.5 377.167,430.5 366.5,430.5C 366.5,409.5 366.5,388.5 366.5,367.5C 356.167,367.5 345.833,367.5 335.5,367.5C 345.653,366.506 355.986,366.172 366.5,366.5C 366.172,355.986 366.506,345.653 367.5,335.5C 367.5,345.833 367.5,356.167 367.5,366.5C 377.5,366.5 387.5,366.5 397.5,366.5C 397.5,356.167 397.5,345.833 397.5,335.5C 397.5,334.833 397.833,334.5 398.5,334.5 Z M 367.5,335.5 C 377.5,335.5 387.5,335.5 397.5,335.5C 397.5,345.833 397.5,356.167 397.5,366.5C 387.5,366.5 377.5,366.5 367.5,366.5C 367.5,356.167 367.5,345.833 367.5,335.5 Z"/></g>
</svg>
